SplineFontDB: 3.0
FontName: WeatherIcons
FullName: WeatherIcons
FamilyName: WeatherIcons
Weight: Regular
Copyright: Copyright (c) 2020, xi,,,
UComments: "2020-9-11: Created with FontForge (http://fontforge.org)"
Version: 001.1
ItalicAngle: 0
UnderlinePosition: -102
UnderlineWidth: 51
Ascent: 819
Descent: 205
InvalidEm: 0
LayerCount: 2
Layer: 0 0 "Back" 1
Layer: 1 0 "Fore" 0
XUID: [1021 544 1901708894 9247708]
StyleMap: 0x0000
FSType: 0
OS2Version: 0
OS2_WeightWidthSlopeOnly: 0
OS2_UseTypoMetrics: 1
CreationTime: 1599862050
ModificationTime: 1600630990
OS2TypoAscent: 0
OS2TypoAOffset: 1
OS2TypoDescent: 0
OS2TypoDOffset: 1
OS2TypoLinegap: 92
OS2WinAscent: 0
OS2WinAOffset: 1
OS2WinDescent: 0
OS2WinDOffset: 1
HheadAscent: 0
HheadAOffset: 1
HheadDescent: 0
HheadDOffset: 1
MarkAttachClasses: 1
DEI: 91125
Encoding: ISO8859-1
UnicodeInterp: none
NameList: AGL For New Fonts
DisplaySize: -48
AntiAlias: 1
FitToEm: 0
WinInfo: 64 16 4
BeginPrivate: 0
EndPrivate
BeginChars: 256 52

StartChar: A
Encoding: 65 65 0
Width: 1024
VWidth: 0
Flags: HW
LayerCount: 2
Fore
SplineSet
513 552 m 0
 646 552 753 444 753 311 c 0
 753 178 645 71 511 71 c 0
 379 71 271 179 271 312 c 0
 271 445 379 552 513 552 c 0
273 174 m 0
 283 158 279 138 263 128 c 0
 232 109 201 92 170 74 c 0
 165 71 160 70 155 70 c 0
 139 70 126 80 121 95 c 0
 116 110 122 126 137 135 c 0
 162 150 188 164 214 179 c 0
 219 182 222 185 227 187 c 0
 244 196 264 190 273 174 c 0
748 455 m 0
 744 469 748 485 760 493 c 0
 792 512 824 530 856 548 c 0
 872 557 891 550 900 534 c 0
 909 518 905 497 889 488 c 0
 858 470 827 452 796 434 c 0
 791 431 785 431 780 431 c 0
 765 431 752 441 748 455 c 0
519 582 m 0
 500 582 485 597 485 617 c 0
 485 651 485 685 485 719 c 0
 485 739 500 754 519 754 c 0
 538 754 554 738 554 719 c 2
 554 668 l 2
 554 651 554 634 554 617 c 0
 554 597 538 582 519 582 c 0
519 33 m 0
 538 33 553 17 553 -2 c 2
 553 -53 l 2
 553 -70 553 -87 553 -104 c 0
 553 -124 538 -139 519 -139 c 0
 500 -139 485 -124 485 -104 c 0
 485 -70 485 -36 485 -2 c 0
 485 18 500 33 519 33 c 0
201 276 m 0
 184 276 168 276 151 276 c 0
 134 276 116 276 99 276 c 0
 79 276 64 291 64 310 c 0
 63 328 78 345 97 345 c 0
 132 346 168 346 204 345 c 0
 224 345 237 328 236 309 c 0
 235 290 220 276 201 276 c 0
927 345 m 0
 947 345 961 328 960 309 c 0
 959 290 944 276 925 276 c 0
 908 276 891 276 874 276 c 0
 857 276 840 276 823 276 c 0
 803 276 789 291 788 310 c 0
 787 328 802 345 821 345 c 0
 856 346 891 346 927 345 c 0
671 537 m 0
 646 537 628 564 640 586 c 0
 657 618 675 650 694 681 c 0
 703 696 724 700 740 691 c 0
 756 682 762 662 753 646 c 0
 736 615 717 583 699 552 c 0
 693 542 683 537 671 537 c 0
887 135 m 0
 902 126 908 110 903 95 c 0
 899 81 886 71 870 71 c 0
 863 70 857 73 851 76 c 0
 822 92 794 109 765 126 c 0
 747 137 741 156 751 173 c 0
 761 190 780 196 798 186 c 0
 828 169 858 152 887 135 c 0
327 562 m 0
 310 591 292 620 275 650 c 0
 265 667 272 687 288 697 c 0
 305 707 325 702 335 685 c 0
 353 655 370 625 387 595 c 0
 400 571 384 544 357 544 c 0
 344 544 334 551 327 562 c 0
137 486 m 0
 119 496 114 516 124 533 c 0
 133 550 153 556 171 546 c 0
 201 529 231 512 261 494 c 0
 275 486 280 470 276 455 c 0
 272 441 258 430 241 430 c 0
 236 430 232 432 226 435 c 0
 197 452 166 469 137 486 c 0
379 66 m 0
 396 56 400 35 390 17 c 0
 373 -12 356 -41 339 -70 c 0
 330 -84 315 -91 299 -86 c 0
 284 -82 275 -68 275 -52 c 0
 275 -46 277 -40 280 -34 c 0
 297 -5 313 23 330 52 c 0
 341 71 362 76 379 66 c 0
698 59 m 0
 715 30 731 2 748 -27 c 0
 751 -33 753 -39 753 -44 c 0
 753 -61 743 -74 729 -78 c 0
 714 -83 698 -77 689 -63 c 0
 680 -48 672 -34 663 -19 c 0
 655 -4 646 10 638 25 c 0
 628 43 632 63 649 73 c 0
 666 83 687 78 698 59 c 0
EndSplineSet
Validated: 33
EndChar

StartChar: B
Encoding: 66 66 1
Width: 1024
VWidth: 0
Flags: HW
LayerCount: 2
Fore
SplineSet
907 243 m 0
 960 191 975 112 945 44 c 0
 913 -28 856 -65 778 -68 c 0
 734 -70 689 -69 640 -69 c 2
 317 -69 l 2
 280 -68 242 -71 205 -68 c 0
 169 -65 138 -51 115 -29 c 1
 115 -29 l 2
 115 -28 115 -29 114 -28 c 0
 111 -25 109 -22 106 -19 c 0
 10 88 108 180 108 180 c 1
 108 180 l 1
 121 195 137 207 158 216 c 0
 167 220 167 230 168 237 c 0
 190 362 281 453 397 467 c 0
 524 482 637 416 685 296 c 0
 691 280 697 280 711 285 c 0
 785 312 851 297 907 243 c 0
441 506 m 0
 473 569 549 594 612 562 c 0
 675 530 701 455 669 392 c 0
 667 387 664 383 661 379 c 1
 609 452 527 492 435 490 c 1
 437 495 438 501 441 506 c 0
700 461 m 0
 701 469 707 475 715 476 c 0
 734 477 755 478 774 479 c 0
 784 479 790 472 791 462 c 0
 791 452 785 444 775 443 c 0
 756 442 737 441 718 440 c 0
 715 440 713 441 710 442 c 0
 703 445 699 453 700 461 c 0
623 575 m 0
 614 580 610 590 615 600 c 0
 623 616 631 632 639 648 c 0
 644 657 654 661 663 656 c 0
 672 651 675 641 671 632 c 2
 671 631 l 1
 659 608 l 2
 655 600 651 592 647 584 c 0
 642 575 632 570 623 575 c 0
352 530 m 0
 343 535 339 545 343 554 c 0
 347 563 358 567 367 563 c 0
 384 555 400 547 417 538 c 0
 426 533 429 522 424 513 c 0
 419 504 409 501 400 506 c 2
 376 518 l 2
 368 522 360 526 352 530 c 0
709 392 m 0
 726 384 742 376 759 367 c 0
 768 362 771 351 766 342 c 0
 761 333 751 330 742 335 c 2
 718 347 l 2
 710 351 702 355 694 359 c 0
 685 364 681 374 685 383 c 0
 689 392 700 396 709 392 c 0
684 518 m 0
 672 524 670 540 681 548 c 0
 697 559 713 570 729 580 c 0
 737 585 748 582 753 574 c 0
 758 566 756 555 748 550 c 0
 732 539 717 528 701 518 c 0
 696 515 690 515 684 518 c 0
537 596 m 0
 531 599 527 604 527 611 c 0
 526 629 525 647 524 665 c 0
 523 675 531 683 541 684 c 0
 551 685 559 678 560 667 c 0
 561 649 562 631 563 613 c 0
 564 599 550 590 537 596 c 0
449 575 m 0
 439 590 430 605 420 620 c 0
 414 629 415 640 424 646 c 0
 432 652 444 649 450 640 c 0
 460 625 470 610 480 595 c 0
 485 588 484 579 478 573 c 0
 473 567 463 565 455 569 c 0
 453 570 451 572 449 575 c 0
EndSplineSet
Validated: 33
EndChar

StartChar: C
Encoding: 67 67 2
Width: 1024
VWidth: 0
Flags: HW
LayerCount: 2
Fore
SplineSet
914 333 m 0
 960 288 973 219 947 160 c 0
 920 98 870 65 802 63 c 0
 763 62 725 62 682 62 c 2
 402 62 l 2
 377 63 353 61 328 62 c 0
 285 62 215 61 192 63 c 0
 159 66 132 79 111 99 c 1
 111 99 l 1
 110 100 l 2
 107 103 104 105 102 108 c 0
 15 205 104 289 104 289 c 1
 104 289 l 1
 116 303 131 314 150 322 c 0
 158 325 158 334 159 341 c 0
 179 455 262 539 368 551 c 0
 420 557 470 550 513 529 c 1
 606 525 684 470 721 379 c 0
 727 365 731 366 743 370 c 0
 807 394 866 380 914 333 c 0
271 328 m 0
 290 436 370 516 471 528 c 0
 482 529 493 529 504 529 c 1
 480 532 455 531 430 528 c 0
 329 516 249 436 230 328 c 0
 229 322 230 313 222 310 c 0
 204 302 190 292 178 279 c 1
 178 279 l 1
 178 279 93 199 176 106 c 0
 178 103 180 100 183 98 c 2
 184 97 l 1
 184 97 l 1
 204 78 230 66 262 63 c 0
 266 63 293 62 317 62 c 1
 313 62 308 63 304 63 c 0
 272 66 246 78 226 97 c 1
 226 97 l 1
 225 98 l 2
 223 101 220 103 218 106 c 0
 135 199 220 279 220 279 c 1
 220 279 l 1
 232 292 245 302 263 310 c 0
 271 313 270 321 271 328 c 0
EndSplineSet
Validated: 37
EndChar

StartChar: D
Encoding: 68 68 3
Width: 1024
VWidth: 0
Flags: HW
LayerCount: 2
Fore
SplineSet
777.40234375 401.015625 m 2
 894.458007812 653.791992188 l 1
 1011.51367188 401.015625 l 2
 1019.515625 384.181640625 1024 365.349609375 1024 345.469726562 c 0
 1024 273.92578125 966.001953125 215.927734375 894.458007812 215.927734375 c 0
 822.9140625 215.927734375 764.916015625 273.92578125 764.916015625 345.469726562 c 0
 764.916015625 365.349609375 769.400390625 384.181640625 777.40234375 401.015625 c 2
394.944335938 273.15625 m 2
 512 525.931640625 l 1
 629.055664062 273.15625 l 2
 637.057617188 256.322265625 641.541992188 237.490234375 641.541992188 217.610351562 c 0
 641.541992188 146.06640625 583.543945312 88.068359375 512 88.068359375 c 0
 440.456054688 88.068359375 382.458007812 146.06640625 382.458007812 217.610351562 c 0
 382.458007812 237.490234375 386.942382812 256.322265625 394.944335938 273.15625 c 2
12.486328125 145.295898438 m 2
 129.541992188 398.072265625 l 1
 246.59765625 145.295898438 l 2
 254.599609375 128.461914062 259.083984375 109.629882812 259.083984375 89.75 c 0
 259.083984375 18.2060546875 201.0859375 -39.7919921875 129.541992188 -39.7919921875 c 0
 57.998046875 -39.7919921875 0 18.2060546875 0 89.75 c 0
 0 109.629882812 4.484375 128.459960938 12.486328125 145.295898438 c 2
EndSplineSet
EndChar

StartChar: E
Encoding: 69 69 4
Width: 1024
VWidth: 0
Flags: HW
LayerCount: 2
Fore
SplineSet
760.015625 98.9375 m 1
 662.1796875 98.9375 l 2
 660.65625 94.28125 658.78125 89.765625 656.5546875 85.3984375 c 2
 791.09375 -48.71875 l 1
 899.171875 -48.71875 l 1
 899.171875 -108.53125 l 1
 808.671875 -108.53125 l 1
 808.671875 -203.40625 l 1
 748.671875 -203.40625 l 1
 748.671875 -91.0078125 l 1
 614.15625 43.0859375 l 2
 609.75 40.8515625 605.1796875 38.96875 600.4765625 37.4375 c 2
 600.2265625 -61.96875 l 1
 699.7734375 -161.203125 l 1
 657.34375 -203.4921875 l 1
 570.203125 -116.6171875 l 1
 481.546875 -205 l 1
 439.125 -162.703125 l 1
 540.234375 -61.90625 l 1
 540.484375 37.4609375 l 2
 535.90625 38.9453125 531.4609375 40.78125 527.1640625 42.9453125 c 2
 549.515625 98.5 l 2
 547.828125 99.6953125 546.2265625 101.03125 544.734375 102.5234375 c 0
 537.8515625 109.40625 534.0625 118.5546875 534.0625 128.2890625 c 0
 534.0625 138.0234375 537.8515625 147.1796875 544.734375 154.0625 c 0
 551.6171875 160.9453125 560.7734375 164.734375 570.5078125 164.734375 c 0
 572.359375 164.734375 574.1953125 164.59375 576 164.3203125 c 2
 598.734375 220.8125 l 2
 604.0390625 219.203125 609.1796875 217.1171875 614.1171875 214.6171875 c 2
 747.078125 347.171875 l 1
 747.078125 457.9765625 l 1
 807.078125 457.9765625 l 1
 807.078125 364.6796875 l 1
 897.5859375 364.6796875 l 1
 897.5859375 304.859375 l 1
 789.5 304.859375 l 1
 656.5390625 172.3125 l 2
 658.765625 167.9453125 660.6484375 163.40625 662.1796875 158.7421875 c 2
 760.015625 158.75 l 1
 861.125 259.5390625 l 1
 903.5546875 217.25 l 1
 814.875 128.84375 l 1
 902.015625 41.96875 l 1
 859.59375 -0.328125 l 1
 760.015625 98.9375 l 1
596.265625 102.5234375 m 0
 603.1484375 109.40625 606.9453125 118.5546875 606.9375 128.2890625 c 0
 606.9375 138.0234375 603.1484375 147.171875 596.265625 154.0546875 c 0
 590.7109375 159.6171875 583.6640625 163.1171875 576.03125 164.2734375 c 2
 549.6953125 98.3984375 l 2
 555.7578125 94.15625 562.9453125 91.84375 570.5 91.84375 c 0
 580.234375 91.84375 589.3828125 95.640625 596.265625 102.5234375 c 0
596.265625 102.5234375 m 1024
324.8984375 -203.40625 m 1
 324.234375 -99.453125 l 1
 384.8984375 -99.453125 l 1
 384.8984375 -203.40625 l 1
 324.8984375 -203.40625 l 1
324.8984375 -203.40625 m 1024
360.3671875 -39.328125 m 1
 239.3359375 -39.328125 l 1
 239.3359375 -66.6484375 l 1
 239 -66.6484375 l 1
 239 -97.6171875 l 1
 101.4765625 -60.515625 0 64.953125 0 213.625 c 0
 0 286.2265625 50.8515625 405.5703125 151.140625 568.3359375 c 0
 224.3203125 687.1015625 324.3125 819 324.3125 819 c 1
 324.3125 819 505.0703125 559.15625 591.2109375 396.765625 c 1
 657.34375 462.6953125 l 1
 699.765625 420.3984375 l 1
 599.3125 320.2578125 l 1
 599.3125 343.8984375 l 1
 481.5390625 461.671875 l 1
 439.1171875 419.2421875 l 1
 538.65625 319.703125 l 1
 538.4140625 219.28125 l 2
 533.7578125 217.640625 529.234375 215.6484375 524.8828125 213.3046875 c 2
 390.8515625 347.3359375 l 1
 390.8515625 458.5 l 1
 330.8515625 458.5 l 1
 330.8515625 364.9140625 l 1
 240.34375 364.9140625 l 1
 240.34375 304.9140625 l 1
 348.421875 304.9140625 l 1
 483.4453125 169.8828125 l 2
 481.6484375 166.1328125 480.1171875 162.2578125 478.828125 158.296875 c 2
 380.328125 158.34375 l 1
 279.2421875 259.4296875 l 1
 236.8203125 217 l 1
 325.4765625 128.34375 l 1
 238.328125 41.1953125 l 1
 280.7578125 -1.2265625 l 1
 380.3203125 98.34375 l 1
 478.8203125 98.296875 l 2
 480.34375 93.6171875 482.2265625 89.0703125 484.4609375 84.6796875 c 2
 360.3671875 -39.328125 l 1
360.3671875 -39.328125 m 1024
EndSplineSet
EndChar

StartChar: F
Encoding: 70 70 5
Width: 1024
VWidth: 0
Flags: HW
LayerCount: 2
Fore
SplineSet
919 254 m 0
 925 234 913 212 893 207 c 2
 803 184 l 1
 886 136 l 2
 904 125 910 102 900 84 c 0
 893 72 880 65 867 65 c 0
 861 65 854 67 848 70 c 2
 765 118 l 1
 789 28 l 2
 794 8 782 -14 762 -19 c 0
 759 -20 755 -20 752 -20 c 0
 735 -20 720 -9 715 8 c 2
 672 172 l 1
 609 208 l 1
 550 173 l 1
 550 101 l 1
 670 -19 l 2
 685 -34 685 -58 670 -73 c 0
 663 -80 653 -84 643 -84 c 0
 633 -84 623 -80 616 -73 c 2
 550 -7 l 1
 550 -103 l 2
 550 -124 533 -141 512 -141 c 0
 491 -141 474 -124 474 -103 c 2
 474 -7 l 1
 408 -73 l 2
 401 -80 391 -84 381 -84 c 0
 371 -84 362 -80 355 -73 c 0
 340 -58 340 -34 355 -19 c 2
 474 100 l 1
 474 174 l 1
 415 208 l 1
 353 172 l 1
 309 8 l 2
 304 -9 289 -20 272 -20 c 0
 269 -20 265 -20 262 -19 c 0
 242 -14 230 8 235 28 c 2
 259 118 l 1
 177 70 l 2
 171 67 164 65 158 65 c 0
 145 65 132 72 125 84 c 0
 114 102 121 126 139 136 c 2
 221 183 l 1
 132 207 l 2
 112 212 100 234 105 254 c 0
 110 274 131 286 151 281 c 2
 314 237 l 1
 377 274 l 1
 377 342 l 1
 315 377 l 1
 151 333 l 2
 148 332 144 332 141 332 c 0
 124 332 110 343 105 360 c 0
 100 380 112 402 132 407 c 2
 221 431 l 1
 139 479 l 2
 121 489 114 512 124 530 c 0
 134 548 158 555 176 545 c 2
 259 497 l 1
 235 587 l 2
 230 607 242 628 262 633 c 0
 282 638 304 626 309 606 c 2
 352 443 l 1
 415 408 l 1
 474 442 l 1
 474 514 l 1
 354 633 l 2
 339 648 339 672 354 687 c 0
 369 702 393 702 408 687 c 2
 474 622 l 1
 474 717 l 2
 474 738 491 755 512 755 c 0
 533 755 550 738 550 717 c 2
 550 621 l 1
 616 687 l 2
 631 702 655 702 670 687 c 0
 685 672 685 649 670 634 c 2
 550 514 l 1
 550 442 l 1
 609 408 l 1
 672 443 l 1
 715 606 l 2
 720 626 742 638 762 633 c 0
 782 628 794 607 789 587 c 2
 765 497 l 1
 848 545 l 2
 866 555 890 548 900 530 c 0
 910 512 904 488 886 478 c 2
 803 431 l 1
 892 407 l 2
 912 402 924 380 919 360 c 0
 914 343 900 332 883 332 c 0
 880 332 876 332 873 333 c 2
 709 377 l 1
 647 342 l 1
 647 274 l 1
 710 237 l 1
 873 281 l 2
 893 286 914 274 919 254 c 0
571 274 m 1
 571 274 l 1
 571 342 l 1
 512 376 l 1
 453 342 l 1
 453 274 l 1
 512 240 l 1
 571 274 l 1
EndSplineSet
Validated: 37
EndChar

StartChar: G
Encoding: 71 71 6
Width: 1024
VWidth: 0
Flags: HW
LayerCount: 2
Fore
SplineSet
288 451 m 1
 288 504.89453125 368.336914062 595 368.336914062 595 c 1
 368.336914062 595 448 504.89453125 448 451 c 0
 448 412.599609375 421.9921875 371 368.336914062 371 c 0
 314.681640625 371 288 409.400390625 288 451 c 1
 288 451 l 1
608 323 m 1
 608 376.89453125 688.336914062 467 688.336914062 467 c 1
 688.336914062 467 768 376.89453125 768 323 c 0
 768 284.599609375 741.9921875 243 688.336914062 243 c 0
 634.681640625 243 608 281.400390625 608 323 c 1
 608 323 l 1
384 67 m 1
 384 120.89453125 464.336914062 211 464.336914062 211 c 1
 464.336914062 211 544 120.89453125 544 67 c 0
 544 28.599609375 517.9921875 -13 464.336914062 -13 c 0
 410.681640625 -13 384 25.400390625 384 67 c 1
 384 67 l 1
EndSplineSet
EndChar

StartChar: H
Encoding: 72 72 7
Width: 1024
VWidth: 0
Flags: HW
LayerCount: 2
Fore
SplineSet
602.368164062 133.240234375 m 0
 608.3203125 124.599609375 609.727539062 113.528320312 606.015625 103.736328125 c 2
 510.015625 -152.263671875 l 2
 505.280273438 -164.872070312 493.18359375 -173 480.064453125 -173 c 0
 478.143554688 -173 476.223632812 -172.807617188 474.303710938 -172.48828125 c 0
 459.072265625 -169.736328125 448 -156.48828125 448 -141 c 2
 448 19 l 1
 384 19 l 2
 373.50390625 19 363.711914062 24.1201171875 357.696289062 32.759765625 c 0
 351.744140625 41.400390625 350.3359375 52.4716796875 354.047851562 62.263671875 c 2
 450.047851562 318.263671875 l 2
 455.48828125 332.727539062 470.65625 341.047851562 485.759765625 338.48828125 c 0
 500.927734375 335.736328125 512 322.48828125 512 307 c 2
 512 147 l 1
 576 147 l 2
 586.49609375 147 596.3515625 141.879882812 602.368164062 133.240234375 c 0
832 531 m 0
 937.856445312 531 1024 444.791992188 1024 338.935546875 c 0
 1024 233.080078125 937.856445312 146.935546875 832 146.935546875 c 2
 666.240234375 146.935546875 l 2
 663.48828125 154.872070312 659.83984375 162.48828125 654.975585938 169.528320312 c 2
 654.84765625 169.784179688 l 2
 636.864257812 195.639648438 607.423828125 211 576 211 c 1
 576 307 l 2
 576 353.400390625 542.84765625 393.143554688 496.255859375 401.65625 c 0
 450.879882812 409.400390625 406.143554688 383.608398438 390.080078125 340.727539062 c 2
 317.440429688 147 l 1
 224 147 l 2
 100.48046875 147 0 247.48046875 0 371 c 0
 0 492.727539062 97.599609375 592.055664062 218.624023438 594.935546875 c 1
 268.9921875 710.776367188 383.935546875 787 512 787 c 0
 666.17578125 787 795.904296875 678.967773438 825.727539062 530.935546875 c 0
 827.904296875 531 829.952148438 531 832 531 c 0
EndSplineSet
Validated: 524321
EndChar

StartChar: I
Encoding: 73 73 8
Width: 1024
VWidth: 0
Flags: HW
LayerCount: 2
Fore
SplineSet
885.5 483.900390625 m 0
 937.400390625 433.400390625 951.799804688 355.799804688 922.599609375 289.700195312 c 0
 891.700195312 219.599609375 836.5 182.700195312 760 180.099609375 c 0
 716.700195312 178.599609375 673.299804688 179.799804688 625.299804688 179.799804688 c 1
 649.099609375 213.5 670.299804688 243.599609375 694 277.200195312 c 1
 535.299804688 277.200195312 l 1
 545.799804688 315.5 554.900390625 350.799804688 565.299804688 385.700195312 c 0
 569.599609375 400 567.200195312 404.799804688 551.299804688 404.5 c 0
 502.200195312 403.599609375 453 403.5 403.900390625 404.599609375 c 0
 389 404.900390625 384 398.900390625 380.5 386.099609375 c 0
 363.599609375 323.099609375 345.799804688 260.200195312 328.700195312 197.200195312 c 0
 325.900390625 186.599609375 323.700195312 178.799804688 309.700195312 179.200195312 c 0
 273.099609375 180.200195312 236.200195312 177.099609375 199.799804688 180.400390625 c 0
 164.200195312 183.700195312 135.200195312 196.799804688 112.599609375 218.5 c 1
 112.5 218.299804688 l 2
 112.099609375 218.799804688 111.799804688 219.200195312 111.299804688 219.700195312 c 0
 108.5 222.400390625 106 225.5 103.400390625 228.5 c 0
 10.099609375 332.599609375 105.5 422.900390625 105.5 422.900390625 c 1
 105.599609375 422.599609375 l 1
 118.599609375 437 134.5 449.200195312 154.700195312 457.700195312 c 0
 163.599609375 461.5 162.5 470.700195312 163.799804688 478 c 0
 184.799804688 599.700195312 274.400390625 689.599609375 388.099609375 702.799804688 c 0
 512.5 717.299804688 621.900390625 652.700195312 669 535.599609375 c 0
 675.200195312 520.099609375 680.599609375 520.5 694.099609375 525.5 c 0
 766.299804688 551.900390625 831.099609375 536.799804688 885.5 483.900390625 c 0
510.799804688 244.400390625 m 0
 548.099609375 245.099609375 585.5 244.599609375 628.799804688 244.799804688 c 1
 553.400390625 138.599609375 480.400390625 36 407.400390625 -66.7001953125 c 1
 403.700195312 -63.7998046875 l 1
 419.599609375 4.2001953125 434.400390625 72.5 451.799804688 140.099609375 c 0
 457.099609375 160.599609375 450.299804688 161.900390625 433.799804688 161.200195312 c 0
 412.099609375 160.200195312 390.200195312 161.400390625 368.400390625 160.799804688 c 0
 357.099609375 160.5 355 165.200195312 357.700195312 174.799804688 c 0
 374.799804688 236.099609375 391.900390625 297.5 408.799804688 358.900390625 c 0
 411.400390625 368.099609375 416.700195312 370.799804688 425.799804688 370.700195312 c 0
 453.799804688 370.299804688 481.900390625 370.200195312 509.900390625 370.700195312 c 0
 521.700195312 370.900390625 524.599609375 367.400390625 521.099609375 355.599609375 c 0
 512.099609375 325.099609375 505.400390625 293.799804688 495.400390625 263.599609375 c 0
 489.599609375 245.900390625 495.799804688 244.099609375 510.799804688 244.400390625 c 0
220.799804688 100.400390625 m 0
 231 95.7001953125 236.400390625 87.900390625 235.400390625 75.5 c 0
 235.5 66.900390625 229.5 60.7998046875 223.400390625 54.7001953125 c 0
 192.099609375 23.2998046875 160.599609375 -7.900390625 129.400390625 -39.400390625 c 0
 117 -51.900390625 103.099609375 -58.5 88.7998046875 -44.7998046875 c 0
 73.900390625 -30.400390625 81.7001953125 -16.900390625 94.099609375 -4.7001953125 c 0
 126.700195312 27.5 159 60.099609375 191.5 92.5 c 0
 199.700195312 100.599609375 209 105.799804688 220.799804688 100.400390625 c 0
661.900390625 93.099609375 m 0
 672.200195312 103.099609375 684.900390625 102.700195312 695.400390625 92.2998046875 c 0
 706 81.7001953125 705.900390625 69 696 58.7998046875 c 0
 662.900390625 24.599609375 629 -8.7998046875 595.299804688 -42.2998046875 c 0
 590.799804688 -46.7998046875 585.200195312 -49.7001953125 581.5 -49.5 c 0
 568 -49.599609375 560.5 -44.2998046875 555.900390625 -35.5 c 0
 551.200195312 -26.2998046875 552.099609375 -16.7001953125 559.299804688 -9.400390625 c 0
 593.200195312 25 627.200195312 59.400390625 661.900390625 93.099609375 c 0
789.200195312 42.2001953125 m 0
 807.099609375 42 820.700195312 21.599609375 811 7.2001953125 c 0
 796.599609375 -14 777.700195312 -31.7998046875 756.900390625 -47 c 0
 748.799804688 -52.900390625 738.599609375 -50.2001953125 731 -43.2001953125 c 0
 723.700195312 -36.400390625 718.400390625 -26.7998046875 724.099609375 -18.099609375 c 0
 739.400390625 5.400390625 758.799804688 25.400390625 783 40.2998046875 c 0
 784.900390625 41.5 787.400390625 41.7001953125 789.200195312 42.2001953125 c 0
321.799804688 43.599609375 m 0
 331 50.7998046875 341 48.900390625 349.599609375 42 c 0
 358.400390625 34.7998046875 361.900390625 23.7001953125 356 14.7998046875 c 0
 341 -7.900390625 322 -27.2001953125 298.799804688 -41.900390625 c 0
 297 -43.099609375 294.400390625 -43.2998046875 292.900390625 -43.7001953125 c 0
 273.700195312 -44.2998046875 260.5 -23.099609375 271.299804688 -7.5 c 0
 285 12.2001953125 302.799804688 28.7001953125 321.799804688 43.599609375 c 0
EndSplineSet
Validated: 33
EndChar

StartChar: J
Encoding: 74 74 9
Width: 1024
VWidth: 0
Flags: HW
LayerCount: 2
Fore
SplineSet
725 314 m 0
 789 298 829 253 838 188 c 0
 845 141 822 92 782 68 c 0
 775 64 767 61 759 58 c 0
 729 49 706 51 697 53 c 0
 695 54 694 54 692 55 c 0
 643 68 611 120 621 169 c 0
 631 217 682 246 729 231 c 0
 745 226 758 217 766 202 c 0
 771 192 769 182 760 176 c 0
 752 171 741 173 735 181 c 0
 724 196 709 198 693 195 c 0
 676 192 665 181 660 164 c 0
 649 128 681 88 720 89 c 0
 768 91 802 128 801 175 c 0
 800 232 751 279 694 279 c 0
 604 279 513 279 423 279 c 0
 329 279 235 280 141 280 c 0
 137 280 134 280 130 281 c 0
 121 283 116 291 117 301 c 0
 118 311 125 318 137 318 c 0
 166 318 197 318 226 318 c 0
 377 318 529 317 680 317 c 0
 695 317 710 318 725 314 c 0
615 346 m 0
 536 347 456 347 377 347 c 0
 281 347 185 347 89 347 c 0
 77 347 68 350 64 362 c 1
 64 371 l 1
 69 382 77 386 89 386 c 0
 266 386 444 385 621 385 c 0
 661 385 691 408 702 447 c 0
 710 476 697 506 670 519 c 0
 641 533 610 521 602 492 c 0
 601 487 601 482 600 477 c 0
 598 467 591 462 581 462 c 0
 571 462 565 467 563 477 c 0
 562 484 562 492 564 499 c 0
 576 549 626 575 675 558 c 0
 735 538 763 469 727 407 c 0
 703 364 664 346 615 346 c 0
536 249 m 0
 573 249 596 229 600 193 c 0
 603 161 573 130 541 133 c 0
 531 134 524 140 523 150 c 0
 522 159 528 167 537 170 c 0
 540 171 544 171 547 172 c 0
 557 175 563 183 561 194 c 0
 559 205 552 210 537 210 c 0
 459 210 382 210 304 210 c 0
 267 210 228 210 191 210 c 0
 177 210 169 218 169 230 c 0
 169 241 178 249 192 249 c 2
 369 249 l 1
 369 249 l 1
 425 249 480 249 536 249 c 0
955 451 m 0
 972 402 941 348 890 338 c 0
 868 334 845 337 827 336 c 0
 805 336 786 336 768 336 c 0
 755 336 747 345 747 356 c 0
 747 367 756 374 769 374 c 2
 870 374 l 2
 881 374 890 377 899 383 c 0
 922 398 929 430 913 449 c 0
 898 467 871 466 862 446 c 0
 860 442 860 438 859 434 c 0
 857 423 849 416 839 417 c 0
 829 418 821 427 821 438 c 0
 822 452 825 464 834 475 c 0
 850 495 872 504 898 499 c 0
 926 494 946 478 955 451 c 0
EndSplineSet
Validated: 33
EndChar

StartChar: K
Encoding: 75 75 10
Width: 1024
VWidth: 0
Flags: HW
LayerCount: 2
Fore
SplineSet
127.985351562 453.737304688 m 1
 219.0390625 359.483398438 l 2
 268.065429688 308.665039062 268.065429688 226.015625 219.0390625 175.197265625 c 1
 218.997070312 175.197265625 l 1
 194.76171875 150.108398438 162.4609375 136.326171875 127.985351562 136.326171875 c 0
 93.509765625 136.326171875 61.208984375 150.108398438 36.9736328125 175.197265625 c 0
 -12.0947265625 226.015625 -12.0947265625 308.665039062 36.931640625 359.483398438 c 2
 127.985351562 453.737304688 l 1
987.0625 700.829101562 m 2
 1036.08886719 650.010742188 1036.08886719 567.36328125 987.0625 516.543945312 c 1
 987.020507812 516.543945312 l 1
 962.827148438 491.454101562 930.484375 477.671875 896.008789062 477.671875 c 0
 861.575195312 477.671875 829.232421875 491.454101562 804.997070312 516.543945312 c 0
 755.928710938 567.361328125 755.928710938 650.010742188 804.955078125 700.829101562 c 2
 896.008789062 795.083007812 l 1
 987.0625 700.829101562 l 2
682.67578125 241.82421875 m 1
 749.06640625 182.471679688 779.916015625 93.08203125 763.703125 3.5224609375 c 0
 745.526367188 -97.0478515625 666.333007812 -178.54296875 566.6171875 -199.366210938 c 0
 548.524414062 -203.120117188 530.391601562 -204.998046875 512.384765625 -204.998046875 c 0
 453.588867188 -204.998046875 396.625976562 -185.157226562 350.5859375 -147.737304688 c 0
 290.465820312 -98.8837890625 255.990234375 -26.4326171875 255.990234375 50.96875 c 0
 255.990234375 124.869140625 286.83984375 193.310546875 341.328125 241.82421875 c 1
 341.328125 648.327148438 l 2
 341.328125 742.453125 417.875 819 512.000976562 819 c 0
 606.126953125 819 682.67578125 742.453125 682.67578125 648.327148438 c 2
 682.67578125 241.82421875 l 1
512.000976562 -34.369140625 m 0
 559.149414062 -34.369140625 597.338867188 3.8203125 597.334960938 50.970703125 c 0
 597.334960938 82.4599609375 580.053710938 109.680664062 554.666992188 124.487304688 c 1
 554.666992188 648.327148438 l 2
 554.666992188 671.879882812 535.59375 690.995117188 511.999023438 690.995117188 c 0
 488.404296875 690.995117188 469.331054688 671.879882812 469.331054688 648.327148438 c 2
 469.331054688 124.485351562 l 1
 443.944335938 109.680664062 426.663085938 82.4580078125 426.663085938 50.96875 c 0
 426.663085938 3.818359375 464.853515625 -34.369140625 512.000976562 -34.369140625 c 0
EndSplineSet
EndChar

StartChar: M
Encoding: 77 77 11
Width: 1024
VWidth: 0
Flags: HW
LayerCount: 2
Fore
SplineSet
1016.30175781 462.00390625 m 0
 1025.33105469 454.479492188 1026.62109375 440.935546875 1019.09667969 431.690429688 c 0
 1014.58105469 426.53125 1008.56152344 423.951171875 1002.32714844 423.951171875 c 1
 1002.32714844 423.951171875 l 1
 997.3828125 423.951171875 992.653320312 425.670898438 988.568359375 428.896484375 c 0
 962.985351562 450.1796875 916.763671875 480.0625 894.190429688 480.0625 c 0
 881.291015625 480.0625 867.317382812 468.66796875 852.483398438 456.84375 c 0
 833.349609375 441.365234375 811.8515625 423.951171875 783.903320312 423.951171875 c 0
 757.030273438 423.951171875 735.961914062 441.150390625 717.473632812 456.4140625 c 0
 702.639648438 468.66796875 688.665039062 480.0625 675.551757812 480.0625 c 0
 662.8671875 480.0625 649.538085938 468.8828125 635.134765625 456.84375 c 0
 616.430664062 441.365234375 595.362304688 423.736328125 567.19921875 423.736328125 c 0
 538.821289062 423.736328125 517.108398438 441.580078125 497.974609375 457.274414062 c 0
 483.78515625 468.8828125 470.456054688 479.84765625 458.84765625 479.84765625 c 0
 445.948242188 479.84765625 431.974609375 468.453125 417.140625 456.62890625 c 0
 398.006835938 441.150390625 376.508789062 423.736328125 348.560546875 423.736328125 c 0
 320.397460938 423.736328125 299.329101562 441.365234375 280.625 456.84375 c 0
 266.436523438 468.66796875 252.892578125 480.0625 240.208007812 480.0625 c 0
 227.524414062 480.0625 214.1953125 468.8828125 199.791015625 456.84375 c 0
 181.087890625 441.365234375 160.01953125 423.736328125 131.856445312 423.736328125 c 0
 84.7744140625 423.736328125 15.7646484375 478.557617188 8.025390625 484.791992188 c 0
 -1.21875 492.31640625 -2.7236328125 505.860351562 4.80078125 515.104492188 c 0
 12.3251953125 524.348632812 25.869140625 525.853515625 35.11328125 518.329101562 c 0
 61.556640625 497.045898438 109.068359375 466.948242188 131.856445312 466.948242188 c 0
 144.540039062 466.948242188 157.869140625 478.127929688 172.2734375 490.166992188 c 0
 190.9765625 505.645507812 212.044921875 523.274414062 240.208007812 523.274414062 c 0
 268.37109375 523.274414062 289.439453125 505.645507812 308.143554688 490.166992188 c 0
 322.33203125 478.342773438 335.875976562 466.948242188 348.560546875 466.948242188 c 0
 361.458984375 466.948242188 375.43359375 478.342773438 390.267578125 490.166992188 c 0
 409.401367188 505.645507812 430.899414062 523.059570312 458.84765625 523.059570312 c 0
 485.720703125 523.059570312 506.7890625 505.860351562 525.27734375 490.596679688 c 0
 540.111328125 478.342773438 554.084960938 466.948242188 567.19921875 466.948242188 c 0
 579.883789062 466.948242188 593.212890625 478.127929688 607.616210938 490.166992188 c 0
 626.3203125 505.645507812 647.388671875 523.274414062 675.551757812 523.274414062 c 0
 703.9296875 523.274414062 725.642578125 505.430664062 744.776367188 489.736328125 c 0
 758.96484375 478.127929688 772.293945312 467.163085938 783.903320312 467.163085938 c 0
 796.802734375 467.163085938 810.776367188 478.557617188 825.610351562 490.381835938 c 0
 844.744140625 505.860351562 866.2421875 523.274414062 894.190429688 523.274414062 c 0
 941.487304688 523.274414062 1008.77734375 468.23828125 1016.30175781 462.00390625 c 0
8.025390625 651.404296875 m 0
 -1.21875 658.928710938 -2.7236328125 672.473632812 4.80078125 681.717773438 c 0
 12.3251953125 690.961914062 25.869140625 692.466796875 35.11328125 684.942382812 c 0
 61.556640625 663.659179688 109.068359375 633.561523438 131.856445312 633.561523438 c 0
 144.540039062 633.561523438 157.869140625 644.740234375 172.2734375 656.779296875 c 0
 190.9765625 672.2578125 212.044921875 689.88671875 240.208007812 689.88671875 c 0
 268.37109375 689.88671875 289.439453125 672.2578125 308.143554688 656.779296875 c 0
 322.33203125 644.955078125 335.875976562 633.561523438 348.560546875 633.561523438 c 0
 361.458984375 633.561523438 375.43359375 644.955078125 390.267578125 656.779296875 c 0
 409.401367188 672.2578125 430.899414062 689.671875 458.84765625 689.671875 c 0
 485.720703125 689.671875 506.7890625 672.473632812 525.27734375 657.208984375 c 0
 540.111328125 644.955078125 554.084960938 633.561523438 567.19921875 633.561523438 c 0
 579.883789062 633.561523438 593.212890625 644.740234375 607.616210938 656.779296875 c 0
 626.3203125 672.2578125 647.388671875 689.88671875 675.551757812 689.88671875 c 0
 703.9296875 689.88671875 725.642578125 672.04296875 744.776367188 656.349609375 c 0
 758.96484375 644.740234375 772.293945312 633.776367188 783.903320312 633.776367188 c 0
 796.802734375 633.776367188 810.776367188 645.169921875 825.610351562 656.994140625 c 0
 844.744140625 672.473632812 866.2421875 689.88671875 894.190429688 689.88671875 c 0
 941.487304688 689.88671875 1008.77734375 635.06640625 1016.30175781 628.616210938 c 0
 1025.33105469 621.091796875 1026.62109375 607.547851562 1019.09667969 598.303710938 c 0
 1014.58105469 593.143554688 1008.56152344 590.564453125 1002.32714844 590.564453125 c 1
 1002.32714844 590.564453125 l 1
 997.3828125 590.564453125 992.653320312 592.284179688 988.568359375 595.508789062 c 0
 962.985351562 616.791992188 916.763671875 646.674804688 894.190429688 646.674804688 c 0
 881.291015625 646.674804688 867.317382812 635.28125 852.483398438 623.45703125 c 0
 833.349609375 607.977539062 811.8515625 590.564453125 783.903320312 590.564453125 c 0
 757.030273438 590.564453125 735.961914062 607.762695312 717.473632812 623.026367188 c 0
 702.639648438 635.28125 688.665039062 646.674804688 675.551757812 646.674804688 c 0
 662.8671875 646.674804688 649.538085938 635.49609375 635.134765625 623.45703125 c 0
 616.430664062 607.977539062 595.362304688 590.349609375 567.19921875 590.349609375 c 0
 538.821289062 590.349609375 517.108398438 608.193359375 497.974609375 623.88671875 c 0
 483.78515625 635.49609375 470.456054688 646.459960938 458.84765625 646.459960938 c 0
 445.948242188 646.459960938 431.974609375 635.06640625 417.140625 623.2421875 c 0
 398.006835938 607.762695312 376.508789062 590.349609375 348.560546875 590.349609375 c 0
 320.397460938 590.349609375 299.329101562 607.977539062 280.625 623.45703125 c 0
 266.436523438 635.28125 252.892578125 646.674804688 240.208007812 646.674804688 c 0
 227.524414062 646.674804688 214.1953125 635.49609375 199.791015625 623.45703125 c 0
 181.087890625 607.977539062 160.01953125 590.349609375 131.856445312 590.349609375 c 0
 84.7744140625 590.349609375 15.7646484375 645.169921875 8.025390625 651.404296875 c 0
1016.30175781 128.993164062 m 0
 1025.33105469 121.46875 1026.62109375 107.924804688 1019.09667969 98.6806640625 c 0
 1014.58105469 93.5205078125 1008.56152344 90.9404296875 1002.32714844 90.9404296875 c 1
 1002.32714844 90.9404296875 l 1
 997.3828125 90.9404296875 992.653320312 92.6611328125 988.568359375 95.8857421875 c 0
 962.985351562 117.168945312 916.763671875 147.051757812 894.190429688 147.051757812 c 0
 881.291015625 147.051757812 867.317382812 135.657226562 852.483398438 123.833007812 c 0
 833.349609375 108.354492188 811.8515625 90.9404296875 783.903320312 90.9404296875 c 0
 757.030273438 90.9404296875 735.961914062 108.139648438 717.473632812 123.403320312 c 0
 702.639648438 135.657226562 688.665039062 147.051757812 675.551757812 147.051757812 c 0
 662.8671875 147.051757812 649.538085938 135.872070312 635.134765625 123.833007812 c 0
 616.430664062 108.354492188 595.362304688 90.7255859375 567.19921875 90.7255859375 c 0
 538.821289062 90.7255859375 517.108398438 108.569335938 497.974609375 124.263671875 c 0
 483.78515625 135.872070312 470.456054688 146.836914062 458.84765625 146.836914062 c 0
 445.948242188 146.836914062 431.974609375 135.442382812 417.140625 123.618164062 c 0
 398.006835938 108.139648438 376.508789062 90.7255859375 348.560546875 90.7255859375 c 0
 320.397460938 90.7255859375 299.329101562 108.354492188 280.625 123.833007812 c 0
 266.436523438 135.657226562 252.892578125 147.051757812 240.208007812 147.051757812 c 0
 227.524414062 147.051757812 214.1953125 135.872070312 199.791015625 123.833007812 c 0
 181.087890625 108.354492188 160.01953125 90.7255859375 131.856445312 90.7255859375 c 0
 84.7744140625 90.7255859375 15.7646484375 145.546875 8.025390625 151.78125 c 0
 -1.21875 159.305664062 -2.7236328125 172.849609375 4.80078125 182.09375 c 0
 12.3251953125 191.338867188 25.869140625 192.84375 35.11328125 185.319335938 c 0
 61.556640625 164.03515625 109.068359375 133.9375 131.856445312 133.9375 c 0
 144.540039062 133.9375 157.869140625 145.1171875 172.2734375 157.15625 c 0
 190.9765625 172.634765625 212.044921875 190.263671875 240.208007812 190.263671875 c 0
 268.37109375 190.263671875 289.439453125 172.634765625 308.143554688 157.15625 c 0
 322.33203125 145.33203125 335.875976562 133.9375 348.560546875 133.9375 c 0
 361.458984375 133.9375 375.43359375 145.33203125 390.267578125 157.15625 c 0
 409.401367188 172.634765625 430.899414062 190.048828125 458.84765625 190.048828125 c 0
 485.720703125 190.048828125 506.7890625 172.849609375 525.27734375 157.5859375 c 0
 540.111328125 145.33203125 554.084960938 133.9375 567.19921875 133.9375 c 0
 579.883789062 133.9375 593.212890625 145.1171875 607.616210938 157.15625 c 0
 626.3203125 172.634765625 647.388671875 190.263671875 675.551757812 190.263671875 c 0
 703.9296875 190.263671875 725.642578125 172.419921875 744.776367188 156.725585938 c 0
 758.96484375 145.1171875 772.293945312 134.15234375 783.903320312 134.15234375 c 0
 796.802734375 134.15234375 810.776367188 145.546875 825.610351562 157.37109375 c 0
 844.744140625 172.849609375 866.2421875 190.263671875 894.190429688 190.263671875 c 0
 941.487304688 190.263671875 1008.77734375 135.227539062 1016.30175781 128.993164062 c 0
1016.30175781 295.390625 m 0
 1025.33105469 287.866210938 1026.62109375 274.322265625 1019.09667969 265.078125 c 0
 1014.58105469 260.133789062 1008.56152344 257.338867188 1002.32714844 257.338867188 c 1
 1002.32714844 257.338867188 l 1
 997.3828125 257.338867188 992.653320312 259.05859375 988.568359375 262.283203125 c 0
 962.985351562 283.56640625 916.763671875 313.44921875 894.190429688 313.44921875 c 0
 881.291015625 313.44921875 867.317382812 302.055664062 852.483398438 290.231445312 c 0
 833.349609375 274.751953125 811.8515625 257.338867188 783.903320312 257.338867188 c 0
 757.030273438 257.338867188 735.961914062 274.537109375 717.473632812 289.80078125 c 0
 702.639648438 302.055664062 688.665039062 313.44921875 675.551757812 313.44921875 c 0
 662.8671875 313.44921875 649.538085938 302.270507812 635.134765625 290.231445312 c 0
 616.430664062 274.751953125 595.362304688 257.124023438 567.19921875 257.124023438 c 0
 538.821289062 257.124023438 517.108398438 274.967773438 497.974609375 290.661132812 c 0
 483.78515625 302.270507812 470.456054688 313.234375 458.84765625 313.234375 c 0
 445.948242188 313.234375 431.974609375 301.840820312 417.140625 290.016601562 c 0
 398.006835938 274.537109375 376.508789062 257.124023438 348.560546875 257.124023438 c 0
 320.397460938 257.124023438 299.329101562 274.751953125 280.625 290.231445312 c 0
 266.436523438 302.055664062 252.892578125 313.44921875 240.208007812 313.44921875 c 0
 227.524414062 313.44921875 214.1953125 302.270507812 199.791015625 290.231445312 c 0
 181.087890625 274.751953125 160.01953125 257.124023438 131.856445312 257.124023438 c 0
 84.7744140625 257.124023438 15.7646484375 311.944335938 8.025390625 318.178710938 c 0
 -1.21875 325.704101562 -2.7236328125 339.248046875 4.80078125 348.4921875 c 0
 12.3251953125 357.736328125 25.869140625 359.241210938 35.11328125 351.716796875 c 0
 61.556640625 330.43359375 109.068359375 300.3359375 131.856445312 300.3359375 c 0
 144.540039062 300.3359375 157.869140625 311.514648438 172.2734375 323.553710938 c 0
 190.9765625 339.032226562 212.044921875 356.661132812 240.208007812 356.661132812 c 0
 268.37109375 356.661132812 289.439453125 339.032226562 308.143554688 323.553710938 c 0
 322.33203125 311.729492188 335.875976562 300.3359375 348.560546875 300.3359375 c 0
 361.458984375 300.3359375 375.43359375 311.729492188 390.267578125 323.553710938 c 0
 409.401367188 339.032226562 430.899414062 356.446289062 458.84765625 356.446289062 c 0
 485.720703125 356.446289062 506.7890625 339.248046875 525.27734375 323.983398438 c 0
 540.111328125 311.729492188 554.084960938 300.3359375 567.19921875 300.3359375 c 0
 579.883789062 300.3359375 593.212890625 311.514648438 607.616210938 323.553710938 c 0
 626.3203125 339.032226562 647.388671875 356.661132812 675.551757812 356.661132812 c 0
 703.9296875 356.661132812 725.642578125 338.817382812 744.776367188 323.124023438 c 0
 758.96484375 311.514648438 772.293945312 300.55078125 783.903320312 300.55078125 c 0
 796.802734375 300.55078125 810.776367188 311.944335938 825.610351562 323.768554688 c 0
 844.744140625 339.248046875 866.2421875 356.661132812 894.190429688 356.661132812 c 0
 941.487304688 356.661132812 1008.77734375 301.625 1016.30175781 295.390625 c 0
1016.30175781 -37.6201171875 m 0
 1025.33105469 -45.14453125 1026.62109375 -58.6884765625 1019.09667969 -67.9326171875 c 0
 1014.58105469 -73.091796875 1008.56152344 -75.671875 1002.32714844 -75.671875 c 1
 1002.32714844 -75.671875 l 1
 997.3828125 -75.671875 992.653320312 -73.9521484375 988.568359375 -70.7275390625 c 0
 962.985351562 -49.4443359375 916.763671875 -19.5615234375 894.190429688 -19.5615234375 c 0
 881.291015625 -19.5615234375 867.317382812 -30.955078125 852.483398438 -42.779296875 c 0
 833.349609375 -58.2578125 811.8515625 -75.671875 783.903320312 -75.671875 c 0
 757.030273438 -75.671875 735.961914062 -58.4736328125 717.473632812 -43.208984375 c 0
 702.639648438 -30.955078125 688.665039062 -19.5615234375 675.551757812 -19.5615234375 c 0
 662.8671875 -19.5615234375 649.538085938 -30.740234375 635.134765625 -42.779296875 c 0
 616.430664062 -58.2578125 595.362304688 -75.88671875 567.19921875 -75.88671875 c 0
 538.821289062 -75.88671875 517.108398438 -58.04296875 497.974609375 -42.349609375 c 0
 483.78515625 -30.740234375 470.456054688 -19.7763671875 458.84765625 -19.7763671875 c 0
 445.948242188 -19.7763671875 431.974609375 -31.169921875 417.140625 -42.994140625 c 0
 398.006835938 -58.4736328125 376.508789062 -75.88671875 348.560546875 -75.88671875 c 0
 320.397460938 -75.88671875 299.329101562 -58.2578125 280.625 -42.779296875 c 0
 266.436523438 -30.955078125 252.892578125 -19.5615234375 240.208007812 -19.5615234375 c 0
 227.524414062 -19.5615234375 214.1953125 -30.740234375 199.791015625 -42.779296875 c 0
 181.087890625 -58.2578125 160.01953125 -75.88671875 131.856445312 -75.88671875 c 0
 84.7744140625 -75.88671875 15.7646484375 -21.06640625 8.025390625 -14.8310546875 c 0
 -1.21875 -7.306640625 -2.7236328125 6.2373046875 4.80078125 15.4814453125 c 0
 12.3251953125 24.7255859375 25.869140625 26.23046875 35.11328125 18.7060546875 c 0
 61.556640625 -2.5771484375 109.068359375 -32.6748046875 131.856445312 -32.6748046875 c 0
 144.540039062 -32.6748046875 157.869140625 -21.49609375 172.2734375 -9.45703125 c 0
 190.9765625 6.0224609375 212.044921875 23.650390625 240.208007812 23.650390625 c 0
 268.37109375 23.650390625 289.439453125 6.0224609375 308.143554688 -9.45703125 c 0
 322.33203125 -21.28125 335.875976562 -32.6748046875 348.560546875 -32.6748046875 c 0
 361.458984375 -32.6748046875 375.43359375 -21.28125 390.267578125 -9.45703125 c 0
 409.401367188 6.0224609375 430.899414062 23.435546875 458.84765625 23.435546875 c 0
 485.720703125 23.435546875 506.7890625 6.2373046875 525.27734375 -9.0263671875 c 0
 540.111328125 -21.28125 554.084960938 -32.6748046875 567.19921875 -32.6748046875 c 0
 579.883789062 -32.6748046875 593.212890625 -21.49609375 607.616210938 -9.45703125 c 0
 626.3203125 6.0224609375 647.388671875 23.650390625 675.551757812 23.650390625 c 0
 703.9296875 23.650390625 725.642578125 5.806640625 744.776367188 -9.88671875 c 0
 758.96484375 -21.49609375 772.293945312 -32.4599609375 783.903320312 -32.4599609375 c 0
 796.802734375 -32.4599609375 810.776367188 -21.06640625 825.610351562 -9.2421875 c 0
 844.744140625 6.2373046875 866.2421875 23.650390625 894.190429688 23.650390625 c 0
 941.487304688 23.650390625 1008.77734375 -31.169921875 1016.30175781 -37.6201171875 c 0
EndSplineSet
Validated: 524293
EndChar

StartChar: N
Encoding: 78 78 12
Width: 1024
VWidth: 0
Flags: HW
LayerCount: 2
Fore
SplineSet
752.688476562 728.514648438 m 2
 736.541015625 728.514648438 723.520507812 741.607421875 723.520507812 757.754882812 c 0
 723.520507812 773.90234375 736.541015625 786.995117188 752.688476562 786.995117188 c 2
 767.818359375 786.995117188 l 2
 783.893554688 786.995117188 796.986328125 773.90234375 796.986328125 757.754882812 c 0
 796.986328125 741.607421875 783.965820312 728.514648438 767.818359375 728.514648438 c 2
 752.688476562 728.514648438 l 2
481.813476562 728.514648438 m 2
 465.739257812 728.514648438 452.646484375 741.607421875 452.646484375 757.754882812 c 0
 452.646484375 773.90234375 465.666015625 786.995117188 481.813476562 786.995117188 c 2
 496.870117188 786.995117188 l 2
 512.9453125 786.995117188 526.038085938 773.90234375 526.038085938 757.754882812 c 0
 526.038085938 741.607421875 513.018554688 728.514648438 496.870117188 728.514648438 c 2
 481.813476562 728.514648438 l 2
346.44921875 728.514648438 m 2
 330.228515625 728.514648438 317.208984375 741.607421875 317.208984375 757.754882812 c 0
 317.208984375 773.90234375 330.301757812 786.995117188 346.44921875 786.995117188 c 2
 361.505859375 786.995117188 l 2
 377.653320312 786.995117188 390.74609375 773.90234375 390.74609375 757.754882812 c 0
 390.74609375 741.607421875 377.7265625 728.514648438 361.505859375 728.514648438 c 2
 346.44921875 728.514648438 l 2
617.32421875 728.514648438 m 2
 601.176757812 728.514648438 588.15625 741.607421875 588.15625 757.754882812 c 0
 588.15625 773.90234375 601.176757812 786.995117188 617.32421875 786.995117188 c 2
 632.380859375 786.995117188 l 2
 648.456054688 786.995117188 661.548828125 773.90234375 661.548828125 757.754882812 c 0
 661.548828125 741.607421875 648.528320312 728.514648438 632.380859375 728.514648438 c 2
 617.32421875 728.514648438 l 2
884.125976562 699.2734375 m 2
 867.905273438 699.2734375 854.884765625 712.366210938 854.884765625 728.514648438 c 0
 854.884765625 744.662109375 867.905273438 757.754882812 884.125976562 757.754882812 c 2
 899.109375 757.754882812 l 2
 915.256835938 757.754882812 928.349609375 744.662109375 928.349609375 728.514648438 c 0
 928.349609375 712.366210938 915.330078125 699.2734375 899.109375 699.2734375 c 2
 884.125976562 699.2734375 l 2
195.6640625 728.514648438 m 2
 179.516601562 728.514648438 166.423828125 741.607421875 166.423828125 757.754882812 c 0
 166.423828125 773.90234375 179.516601562 786.995117188 195.6640625 786.995117188 c 2
 210.720703125 786.995117188 l 2
 226.868164062 786.995117188 239.9609375 773.90234375 239.9609375 757.754882812 c 0
 239.9609375 741.607421875 226.868164062 728.514648438 210.720703125 728.514648438 c 2
 195.6640625 728.514648438 l 2
636.745117188 636.865234375 m 0
 636.745117188 653.012695312 649.837890625 666.10546875 666.05859375 666.10546875 c 2
 680.969726562 666.10546875 l 2
 697.1171875 666.10546875 710.209960938 653.012695312 710.209960938 636.865234375 c 0
 710.209960938 620.717773438 697.190429688 607.625 680.969726562 607.625 c 2
 665.985351562 607.625 l 2
 649.837890625 607.625 636.745117188 620.717773438 636.745117188 636.865234375 c 0
124.235351562 607.625 m 2
 108.087890625 607.625 94.9951171875 620.717773438 94.9951171875 636.865234375 c 0
 94.9951171875 653.012695312 108.087890625 666.10546875 124.235351562 666.10546875 c 2
 139.29296875 666.10546875 l 2
 155.440429688 666.10546875 168.533203125 653.012695312 168.533203125 636.865234375 c 0
 168.533203125 620.717773438 155.440429688 607.625 139.29296875 607.625 c 2
 124.235351562 607.625 l 2
772.182617188 636.865234375 m 0
 772.182617188 653.012695312 785.202148438 666.10546875 801.422851562 666.10546875 c 2
 816.479492188 666.10546875 l 2
 832.626953125 666.10546875 845.719726562 653.012695312 845.719726562 636.865234375 c 0
 845.719726562 620.717773438 832.700195312 607.625 816.479492188 607.625 c 2
 801.422851562 607.625 l 2
 785.275390625 607.625 772.182617188 620.717773438 772.182617188 636.865234375 c 0
365.943359375 636.865234375 m 0
 365.943359375 653.012695312 378.962890625 666.10546875 395.110351562 666.10546875 c 2
 410.166992188 666.10546875 l 2
 426.2421875 666.10546875 439.334960938 653.012695312 439.334960938 636.865234375 c 0
 439.334960938 620.717773438 426.315429688 607.625 410.166992188 607.625 c 2
 395.110351562 607.625 l 2
 379.036132812 607.625 365.943359375 620.717773438 365.943359375 636.865234375 c 0
501.307617188 636.865234375 m 0
 501.307617188 653.012695312 514.400390625 666.10546875 530.547851562 666.10546875 c 2
 545.604492188 666.10546875 l 2
 561.6796875 666.10546875 574.772460938 653.012695312 574.772460938 636.865234375 c 0
 574.772460938 620.717773438 561.752929688 607.625 545.604492188 607.625 c 2
 530.547851562 607.625 l 2
 514.400390625 607.625 501.307617188 620.717773438 501.307617188 636.865234375 c 0
230.432617188 636.865234375 m 0
 230.432617188 653.012695312 243.525390625 666.10546875 259.600585938 666.10546875 c 2
 274.729492188 666.10546875 l 2
 290.877929688 666.10546875 303.970703125 653.012695312 303.970703125 636.865234375 c 0
 303.970703125 620.717773438 290.877929688 607.625 274.729492188 607.625 c 2
 259.600585938 607.625 l 2
 243.525390625 607.625 230.432617188 620.717773438 230.432617188 636.865234375 c 0
907.620117188 636.865234375 m 0
 907.620117188 653.012695312 920.712890625 666.10546875 936.860351562 666.10546875 c 2
 951.844726562 666.10546875 l 2
 967.9921875 666.10546875 981.084960938 653.012695312 981.084960938 636.865234375 c 0
 981.084960938 620.717773438 968.064453125 607.625 951.844726562 607.625 c 2
 936.860351562 607.625 l 2
 920.712890625 607.625 907.620117188 620.717773438 907.620117188 636.865234375 c 0
346.8125 505.35546875 m 0
 346.8125 489.208007812 333.79296875 476.115234375 317.572265625 476.115234375 c 2
 302.515625 476.115234375 l 2
 286.368164062 476.115234375 273.275390625 489.208007812 273.275390625 505.35546875 c 0
 273.275390625 521.502929688 286.368164062 534.595703125 302.515625 534.595703125 c 2
 317.572265625 534.595703125 l 2
 333.719726562 534.595703125 346.8125 521.502929688 346.8125 505.35546875 c 0
438.025390625 476.115234375 m 2
 421.877929688 476.115234375 408.78515625 489.208007812 408.78515625 505.35546875 c 0
 408.78515625 521.502929688 421.877929688 534.595703125 438.025390625 534.595703125 c 2
 453.083007812 534.595703125 l 2
 469.157226562 534.595703125 482.25 521.502929688 482.25 505.35546875 c 0
 482.25 489.208007812 469.23046875 476.115234375 453.083007812 476.115234375 c 2
 438.025390625 476.115234375 l 2
708.828125 476.115234375 m 2
 692.752929688 476.115234375 679.66015625 489.208007812 679.66015625 505.35546875 c 0
 679.66015625 521.502929688 692.680664062 534.595703125 708.828125 534.595703125 c 2
 723.884765625 534.595703125 l 2
 740.032226562 534.595703125 753.125 521.502929688 753.125 505.35546875 c 0
 753.125 489.208007812 740.10546875 476.115234375 723.884765625 476.115234375 c 2
 708.828125 476.115234375 l 2
573.462890625 476.115234375 m 2
 557.243164062 476.115234375 544.22265625 489.208007812 544.22265625 505.35546875 c 0
 544.22265625 521.502929688 557.243164062 534.595703125 573.462890625 534.595703125 c 2
 588.51953125 534.595703125 l 2
 604.594726562 534.595703125 617.6875 521.502929688 617.6875 505.35546875 c 0
 617.6875 489.208007812 604.66796875 476.115234375 588.51953125 476.115234375 c 2
 573.462890625 476.115234375 l 2
950.53515625 505.35546875 m 0
 950.53515625 521.502929688 963.5546875 534.595703125 979.775390625 534.595703125 c 2
 994.759765625 534.595703125 l 2
 1010.90722656 534.595703125 1024 521.502929688 1024 505.35546875 c 0
 1024 489.208007812 1010.97949219 476.115234375 994.759765625 476.115234375 c 2
 979.775390625 476.115234375 l 2
 963.627929688 476.115234375 950.53515625 489.208007812 950.53515625 505.35546875 c 0
844.337890625 476.115234375 m 2
 828.1171875 476.115234375 815.09765625 489.208007812 815.09765625 505.35546875 c 0
 815.09765625 521.502929688 828.1171875 534.595703125 844.337890625 534.595703125 c 2
 859.39453125 534.595703125 l 2
 875.469726562 534.595703125 888.5625 521.502929688 888.5625 505.35546875 c 0
 888.5625 489.208007812 875.54296875 476.115234375 859.39453125 476.115234375 c 2
 844.337890625 476.115234375 l 2
211.448242188 505.35546875 m 0
 211.448242188 489.208007812 198.35546875 476.115234375 182.208007812 476.115234375 c 2
 167.151367188 476.115234375 l 2
 151.002929688 476.115234375 137.91015625 489.208007812 137.91015625 505.35546875 c 0
 137.91015625 521.502929688 151.002929688 534.595703125 167.151367188 534.595703125 c 2
 182.208007812 534.595703125 l 2
 198.35546875 534.595703125 211.448242188 521.502929688 211.448242188 505.35546875 c 0
31.7138671875 476.115234375 m 2
 15.5654296875 476.115234375 2.47265625 489.208007812 2.47265625 505.35546875 c 0
 2.47265625 521.502929688 15.5654296875 534.595703125 31.7138671875 534.595703125 c 2
 46.7705078125 534.595703125 l 2
 62.91796875 534.595703125 76.0107421875 521.502929688 76.0107421875 505.35546875 c 0
 76.0107421875 489.208007812 62.91796875 476.115234375 46.7705078125 476.115234375 c 2
 31.7138671875 476.115234375 l 2
119.798828125 378.719726562 m 0
 119.798828125 362.499023438 106.778320312 349.478515625 90.630859375 349.478515625 c 2
 75.57421875 349.478515625 l 2
 59.4267578125 349.478515625 46.333984375 362.499023438 46.333984375 378.719726562 c 0
 46.333984375 394.793945312 59.4267578125 407.88671875 75.57421875 407.88671875 c 2
 90.55859375 407.88671875 l 2
 106.706054688 407.88671875 119.798828125 394.8671875 119.798828125 378.719726562 c 0
903.182617188 349.478515625 m 2
 888.125976562 349.478515625 l 2
 872.05078125 349.478515625 858.958007812 362.499023438 858.958007812 378.719726562 c 0
 858.958007812 394.793945312 871.978515625 407.88671875 888.125976562 407.88671875 c 2
 903.182617188 407.88671875 l 2
 919.2578125 407.88671875 932.350585938 394.8671875 932.350585938 378.719726562 c 0
 932.350585938 362.571289062 919.331054688 349.478515625 903.182617188 349.478515625 c 2
632.380859375 349.478515625 m 2
 617.32421875 349.478515625 l 2
 601.249023438 349.478515625 588.15625 362.499023438 588.15625 378.719726562 c 0
 588.15625 394.793945312 601.176757812 407.88671875 617.32421875 407.88671875 c 2
 632.380859375 407.88671875 l 2
 648.456054688 407.88671875 661.548828125 394.8671875 661.548828125 378.719726562 c 0
 661.548828125 362.571289062 648.528320312 349.478515625 632.380859375 349.478515625 c 2
496.870117188 349.478515625 m 2
 481.813476562 349.478515625 l 2
 465.739257812 349.478515625 452.646484375 362.499023438 452.646484375 378.719726562 c 0
 452.646484375 394.793945312 465.666015625 407.88671875 481.813476562 407.88671875 c 2
 496.870117188 407.88671875 l 2
 512.9453125 407.88671875 526.038085938 394.8671875 526.038085938 378.719726562 c 0
 526.038085938 362.571289062 513.018554688 349.478515625 496.870117188 349.478515625 c 2
346.44921875 349.478515625 m 2
 330.228515625 349.478515625 317.208984375 362.499023438 317.208984375 378.719726562 c 0
 317.208984375 394.793945312 330.301757812 407.88671875 346.44921875 407.88671875 c 2
 361.505859375 407.88671875 l 2
 377.653320312 407.88671875 390.74609375 394.8671875 390.74609375 378.719726562 c 0
 390.74609375 362.571289062 377.7265625 349.478515625 361.505859375 349.478515625 c 2
 346.44921875 349.478515625 l 2
767.818359375 349.478515625 m 2
 752.688476562 349.478515625 l 2
 736.61328125 349.478515625 723.520507812 362.499023438 723.520507812 378.719726562 c 0
 723.520507812 394.793945312 736.541015625 407.88671875 752.688476562 407.88671875 c 2
 767.818359375 407.88671875 l 2
 783.893554688 407.88671875 796.986328125 394.8671875 796.986328125 378.719726562 c 0
 796.986328125 362.571289062 783.965820312 349.478515625 767.818359375 349.478515625 c 2
210.939453125 349.478515625 m 2
 194.791015625 349.478515625 181.698242188 362.499023438 181.698242188 378.719726562 c 0
 181.698242188 394.793945312 194.791015625 407.88671875 210.939453125 407.88671875 c 2
 226.068359375 407.88671875 l 2
 242.215820312 407.88671875 255.30859375 394.8671875 255.30859375 378.719726562 c 0
 255.30859375 362.571289062 242.215820312 349.478515625 226.068359375 349.478515625 c 2
 210.939453125 349.478515625 l 2
666.05859375 213.095703125 m 2
 649.837890625 213.095703125 636.745117188 226.116210938 636.817382812 242.263671875 c 0
 636.817382812 258.411132812 649.837890625 271.50390625 666.05859375 271.50390625 c 2
 681.041992188 271.50390625 l 2
 697.190429688 271.50390625 710.282226562 258.484375 710.282226562 242.263671875 c 0
 710.282226562 226.188476562 697.262695312 213.095703125 681.041992188 213.095703125 c 2
 666.05859375 213.095703125 l 2
303.970703125 242.263671875 m 0
 303.970703125 226.116210938 290.877929688 213.095703125 274.729492188 213.095703125 c 2
 259.600585938 213.095703125 l 2
 243.525390625 213.095703125 230.432617188 226.116210938 230.432617188 242.263671875 c 0
 230.432617188 258.411132812 243.453125 271.50390625 259.600585938 271.50390625 c 2
 274.729492188 271.50390625 l 2
 290.877929688 271.50390625 303.970703125 258.484375 303.970703125 242.263671875 c 0
801.422851562 213.095703125 m 2
 785.202148438 213.095703125 772.182617188 226.116210938 772.182617188 242.263671875 c 0
 772.182617188 258.411132812 785.202148438 271.50390625 801.422851562 271.50390625 c 2
 816.479492188 271.50390625 l 2
 832.626953125 271.50390625 845.719726562 258.484375 845.719726562 242.263671875 c 0
 845.719726562 226.188476562 832.700195312 213.095703125 816.479492188 213.095703125 c 2
 801.422851562 213.095703125 l 2
530.547851562 213.095703125 m 2
 514.400390625 213.095703125 501.307617188 226.116210938 501.307617188 242.263671875 c 0
 501.307617188 258.411132812 514.327148438 271.50390625 530.547851562 271.50390625 c 2
 545.604492188 271.50390625 l 2
 561.6796875 271.50390625 574.772460938 258.484375 574.772460938 242.263671875 c 0
 574.772460938 226.188476562 561.752929688 213.095703125 545.604492188 213.095703125 c 2
 530.547851562 213.095703125 l 2
395.110351562 213.095703125 m 2
 378.962890625 213.095703125 365.943359375 226.116210938 365.943359375 242.263671875 c 0
 365.943359375 258.411132812 378.962890625 271.50390625 395.110351562 271.50390625 c 2
 410.166992188 271.50390625 l 2
 426.2421875 271.50390625 439.334960938 258.484375 439.334960938 242.263671875 c 0
 439.334960938 226.188476562 426.315429688 213.095703125 410.166992188 213.095703125 c 2
 395.110351562 213.095703125 l 2
168.533203125 242.263671875 m 0
 168.533203125 226.116210938 155.440429688 213.095703125 139.29296875 213.095703125 c 2
 124.235351562 213.095703125 l 2
 108.087890625 213.095703125 94.9951171875 226.116210938 94.9951171875 242.263671875 c 0
 94.9951171875 258.411132812 108.087890625 271.50390625 124.235351562 271.50390625 c 2
 139.29296875 271.50390625 l 2
 155.440429688 271.50390625 168.533203125 258.484375 168.533203125 242.263671875 c 0
981.157226562 242.263671875 m 0
 981.157226562 226.116210938 968.064453125 213.095703125 951.916992188 213.095703125 c 2
 936.932617188 213.095703125 l 2
 920.78515625 213.095703125 907.692382812 226.116210938 907.692382812 242.263671875 c 0
 907.692382812 258.411132812 920.712890625 271.50390625 936.932617188 271.50390625 c 2
 951.916992188 271.50390625 l 2
 968.064453125 271.50390625 981.157226562 258.484375 981.157226562 242.263671875 c 0
706.427734375 90.0234375 m 2
 690.280273438 90.0234375 677.1875 103.116210938 677.1875 119.19140625 c 0
 677.1875 135.338867188 690.20703125 148.431640625 706.427734375 148.431640625 c 2
 721.484375 148.431640625 l 2
 737.559570312 148.431640625 750.65234375 135.412109375 750.65234375 119.19140625 c 0
 750.65234375 103.116210938 737.631835938 90.0234375 721.484375 90.0234375 c 2
 706.427734375 90.0234375 l 2
570.990234375 90.0234375 m 2
 554.842773438 90.0234375 541.822265625 103.116210938 541.822265625 119.19140625 c 0
 541.822265625 135.338867188 554.842773438 148.431640625 570.990234375 148.431640625 c 2
 586.046875 148.431640625 l 2
 602.122070312 148.431640625 615.287109375 135.412109375 615.287109375 119.19140625 c 0
 615.287109375 103.116210938 602.194335938 90.0234375 586.046875 90.0234375 c 2
 570.990234375 90.0234375 l 2
841.865234375 90.0234375 m 2
 825.717773438 90.0234375 812.625 103.116210938 812.697265625 119.19140625 c 0
 812.697265625 135.338867188 825.717773438 148.431640625 841.865234375 148.431640625 c 2
 856.921875 148.431640625 l 2
 873.069335938 148.431640625 886.162109375 135.412109375 886.162109375 119.19140625 c 0
 886.162109375 103.116210938 873.142578125 90.0234375 856.921875 90.0234375 c 2
 841.865234375 90.0234375 l 2
992.359375 148.504882812 m 2
 1008.50683594 148.504882812 1021.52734375 135.412109375 1021.52734375 119.264648438 c 0
 1021.52734375 103.189453125 1008.50683594 90.0966796875 992.359375 90.0966796875 c 2
 977.302734375 90.0966796875 l 2
 961.227539062 90.0966796875 948.134765625 103.116210938 948.134765625 119.264648438 c 0
 948.134765625 135.412109375 961.154296875 148.504882812 977.302734375 148.504882812 c 2
 992.359375 148.504882812 l 2
208.975585938 119.19140625 m 0
 208.975585938 103.116210938 195.8828125 90.0234375 179.734375 90.0234375 c 2
 164.677734375 90.0234375 l 2
 148.530273438 90.0234375 135.4375 103.043945312 135.4375 119.19140625 c 0
 135.4375 135.338867188 148.530273438 148.431640625 164.677734375 148.431640625 c 2
 179.734375 148.431640625 l 2
 195.8828125 148.431640625 208.975585938 135.412109375 208.975585938 119.19140625 c 0
435.552734375 90.0234375 m 2
 419.405273438 90.0234375 406.3125 103.116210938 406.384765625 119.19140625 c 0
 406.384765625 135.338867188 419.405273438 148.431640625 435.552734375 148.431640625 c 2
 450.609375 148.431640625 l 2
 466.756835938 148.431640625 479.849609375 135.412109375 479.849609375 119.19140625 c 0
 479.849609375 103.116210938 466.830078125 90.0234375 450.609375 90.0234375 c 2
 435.552734375 90.0234375 l 2
44.296875 148.504882812 m 2
 60.4453125 148.504882812 73.5380859375 135.412109375 73.5380859375 119.264648438 c 0
 73.5380859375 103.189453125 60.4453125 90.0966796875 44.296875 90.0966796875 c 2
 29.240234375 90.0966796875 l 2
 13.0927734375 90.0966796875 0 103.116210938 0 119.264648438 c 0
 0 135.412109375 13.0927734375 148.504882812 29.240234375 148.504882812 c 2
 44.296875 148.504882812 l 2
344.412109375 119.19140625 m 0
 344.412109375 103.116210938 331.319335938 90.0234375 315.171875 90.0234375 c 2
 300.115234375 90.0234375 l 2
 283.967773438 90.0234375 270.875 103.043945312 270.875 119.19140625 c 0
 270.875 135.338867188 283.967773438 148.431640625 300.115234375 148.431640625 c 2
 315.171875 148.431640625 l 2
 331.319335938 148.431640625 344.412109375 135.412109375 344.412109375 119.19140625 c 0
900.709960938 21.8681640625 m 2
 916.930664062 21.8681640625 930.0234375 8.775390625 929.950195312 -7.3720703125 c 0
 929.950195312 -23.447265625 916.930664062 -36.5400390625 900.709960938 -36.5400390625 c 2
 885.725585938 -36.5400390625 l 2
 869.578125 -36.5400390625 856.485351562 -23.51953125 856.485351562 -7.3720703125 c 0
 856.485351562 8.775390625 869.504882812 21.8681640625 885.725585938 21.8681640625 c 2
 900.709960938 21.8681640625 l 2
523.7109375 -7.4443359375 m 0
 523.7109375 -23.51953125 510.618164062 -36.6123046875 494.470703125 -36.6123046875 c 2
 479.486328125 -36.6123046875 l 2
 463.338867188 -36.6123046875 450.24609375 -23.5927734375 450.24609375 -7.4443359375 c 0
 450.24609375 8.703125 463.265625 21.7958984375 479.486328125 21.7958984375 c 2
 494.470703125 21.7958984375 l 2
 510.618164062 21.7958984375 523.7109375 8.775390625 523.7109375 -7.4443359375 c 0
223.595703125 21.8681640625 m 2
 239.743164062 21.8681640625 252.8359375 8.775390625 252.908203125 -7.3720703125 c 0
 252.908203125 -23.447265625 239.815429688 -36.5400390625 223.66796875 -36.5400390625 c 2
 208.5390625 -36.5400390625 l 2
 192.390625 -36.5400390625 179.297851562 -23.51953125 179.297851562 -7.3720703125 c 0
 179.297851562 8.775390625 192.390625 21.8681640625 208.5390625 21.8681640625 c 2
 223.595703125 21.8681640625 l 2
794.5859375 -7.4443359375 m 0
 794.5859375 -23.51953125 781.493164062 -36.6123046875 765.344726562 -36.6123046875 c 2
 750.288085938 -36.6123046875 l 2
 734.140625 -36.6123046875 721.047851562 -23.5927734375 721.047851562 -7.4443359375 c 0
 721.047851562 8.703125 734.068359375 21.7958984375 750.288085938 21.7958984375 c 2
 765.344726562 21.7958984375 l 2
 781.419921875 21.7958984375 794.5859375 8.775390625 794.5859375 -7.4443359375 c 0
659.1484375 -7.4443359375 m 0
 659.1484375 -23.51953125 646.055664062 -36.6123046875 629.907226562 -36.6123046875 c 2
 614.850585938 -36.6123046875 l 2
 598.776367188 -36.6123046875 585.68359375 -23.5927734375 585.68359375 -7.4443359375 c 0
 585.68359375 8.703125 598.703125 21.7958984375 614.850585938 21.7958984375 c 2
 629.907226562 21.7958984375 l 2
 646.055664062 21.7958984375 659.1484375 8.775390625 659.1484375 -7.4443359375 c 0
388.200195312 -7.4443359375 m 0
 388.200195312 -23.51953125 375.180664062 -36.6123046875 359.033203125 -36.6123046875 c 2
 343.9765625 -36.6123046875 l 2
 327.828125 -36.6123046875 314.735351562 -23.5927734375 314.735351562 -7.4443359375 c 0
 314.735351562 8.703125 327.828125 21.7958984375 343.9765625 21.7958984375 c 2
 359.033203125 21.7958984375 l 2
 375.107421875 21.7958984375 388.200195312 8.775390625 388.200195312 -7.4443359375 c 0
543.131835938 -114.514648438 m 2
 559.279296875 -114.514648438 572.372070312 -127.6796875 572.372070312 -143.754882812 c 0
 572.372070312 -159.830078125 559.279296875 -172.995117188 543.131835938 -172.995117188 c 2
 528.075195312 -172.995117188 l 2
 512 -172.995117188 498.907226562 -159.830078125 498.907226562 -143.754882812 c 0
 498.907226562 -127.6796875 511.927734375 -114.514648438 528.075195312 -114.514648438 c 2
 543.131835938 -114.514648438 l 2
814.079101562 -114.514648438 m 2
 830.154296875 -114.514648438 843.247070312 -127.6796875 843.247070312 -143.754882812 c 0
 843.247070312 -159.830078125 830.2265625 -172.995117188 814.079101562 -172.995117188 c 2
 798.950195312 -172.995117188 l 2
 782.875 -172.995117188 769.782226562 -159.830078125 769.782226562 -143.754882812 c 0
 769.782226562 -127.6796875 782.801757812 -114.514648438 798.950195312 -114.514648438 c 2
 814.079101562 -114.514648438 l 2
678.569335938 -114.514648438 m 2
 694.716796875 -114.514648438 707.737304688 -127.6796875 707.737304688 -143.754882812 c 0
 707.737304688 -159.830078125 694.716796875 -172.995117188 678.569335938 -172.995117188 c 2
 663.512695312 -172.995117188 l 2
 647.4375 -172.995117188 634.344726562 -159.830078125 634.344726562 -143.754882812 c 0
 634.344726562 -127.6796875 647.364257812 -114.514648438 663.512695312 -114.514648438 c 2
 678.569335938 -114.514648438 l 2
407.694335938 -114.514648438 m 2
 423.915039062 -114.514648438 436.934570312 -127.6796875 436.934570312 -143.754882812 c 0
 436.934570312 -159.830078125 423.915039062 -172.995117188 407.694335938 -172.995117188 c 2
 392.637695312 -172.995117188 l 2
 376.5625 -172.995117188 363.469726562 -159.830078125 363.469726562 -143.754882812 c 0
 363.469726562 -127.6796875 376.490234375 -114.514648438 392.637695312 -114.514648438 c 2
 407.694335938 -114.514648438 l 2
EndSplineSet
EndChar

StartChar: T
Encoding: 84 84 13
Width: 1024
VWidth: 0
Flags: H
LayerCount: 2
Fore
SplineSet
891.099609375 -70.7001953125 m 0
 913.200195312 -84.5 903.5 -118.400390625 877.5 -118.599609375 c 2
 122.400390625 -118.599609375 l 2
 96.5 -118.599609375 86.7998046875 -84.599609375 108.799804688 -70.900390625 c 0
 321.700195312 61.900390625 374.799804688 245.700195312 387 306.900390625 c 0
 389.400390625 318.900390625 400 327.599609375 412.299804688 327.599609375 c 2
 434.200195312 327.599609375 l 1
 426.900390625 300.799804688 419.299804688 274 411.900390625 247.200195312 c 0
 410.700195312 242.900390625 411.599609375 240.799804688 416.700195312 241 c 0
 426.5 241.299804688 436.299804688 240.799804688 446 241.200195312 c 0
 453.299804688 241.599609375 456.400390625 241 454 231.799804688 c 0
 446.200195312 201.599609375 439.599609375 170.900390625 432.5 140.5 c 1
 434.200195312 139.200195312 l 1
 466.900390625 185.200195312 499.599609375 231.200195312 533.400390625 278.700195312 c 1
 513.900390625 278.700195312 497.200195312 278.900390625 480.5 278.599609375 c 0
 473.799804688 278.5 471 279.299804688 473.599609375 287.200195312 c 0
 478.099609375 300.599609375 481.099609375 314.299804688 485 327.799804688 c 1
 525.599609375 327.799804688 l 1
 522.400390625 316.299804688 519.099609375 304.599609375 515.900390625 293 c 0
 515.200195312 290.299804688 515.700195312 289.099609375 518.799804688 289.200195312 c 0
 524.599609375 289.400390625 530.400390625 289 536.299804688 289.299804688 c 0
 540.700195312 289.5 542.5 289.099609375 541.099609375 283.599609375 c 0
 536.400390625 265.5 532.400390625 247.099609375 528.200195312 228.900390625 c 1
 529.200195312 228.099609375 l 1
 548.799804688 255.599609375 568.400390625 283.200195312 588.599609375 311.599609375 c 1
 576.900390625 311.599609375 566.900390625 311.700195312 556.900390625 311.5 c 0
 552.900390625 311.5 551.200195312 312 552.799804688 316.700195312 c 0
 554 320.400390625 555 324 556 327.700195312 c 2
 587.599609375 327.700195312 l 2
 600 327.700195312 610.5 319.099609375 612.900390625 307 c 0
 625.099609375 245.900390625 678.200195312 62.099609375 891.099609375 -70.7001953125 c 0
444.299804688 574.599609375 m 0
 400 588.299804688 376.299804688 617.700195312 377.299804688 657.599609375 c 0
 378.400390625 705.400390625 406.200195312 741.400390625 450.700195312 751.900390625 c 0
 461.099609375 754.299804688 471.900390625 755 482.599609375 756.5 c 0
 540.200195312 754.900390625 586.299804688 720.200195312 597.799804688 668.099609375 c 0
 604.299804688 638.599609375 599.299804688 609.900390625 587.900390625 582.5 c 0
 570.5 540.599609375 543.799804688 506.599609375 501.5 487.400390625 c 0
 492.5 483.299804688 482.400390625 481 472.5 479.900390625 c 0
 458.799804688 478.299804688 453.299804688 487.200195312 457.5 500.599609375 c 0
 462.099609375 515.299804688 466.900390625 530.099609375 470 545.099609375 c 0
 473.799804688 562.900390625 469.900390625 567.900390625 452.599609375 572.299804688 c 0
 449.799804688 573 447 573.700195312 444.299804688 574.599609375 c 0
545.599609375 445.299804688 m 0
 555.700195312 461.200195312 568.799804688 474.400390625 586.400390625 481.700195312 c 0
 617.799804688 494.799804688 652.799804688 483.5 674.799804688 454 c 0
 678 447.799804688 681.700195312 442 684.200195312 435.599609375 c 0
 695.099609375 408.5 686.5 380.900390625 661.900390625 362.700195312 c 0
 641.5 347.599609375 617.5 349.299804688 594.099609375 367.299804688 c 0
 592.700195312 368.400390625 591.299804688 369.599609375 589.900390625 370.799804688 c 0
 581.299804688 378.200195312 577.200195312 378.400390625 569.299804688 369.900390625 c 0
 562.700195312 362.799804688 556.599609375 354.900390625 550.700195312 347.099609375 c 0
 545.200195312 340.099609375 538.5 339.700195312 534.299804688 347.400390625 c 0
 531.400390625 353 528.799804688 359.099609375 527.700195312 365.299804688 c 0
 522.200195312 394.5 530.099609375 420.900390625 545.599609375 445.299804688 c 0
306.200195312 374.299804688 m 0
 277.400390625 395.599609375 267.299804688 428.200195312 280.099609375 460.099609375 c 0
 283 467.5 287.299804688 474.5 291 481.700195312 c 0
 316.900390625 516.299804688 358.099609375 529.700195312 395 514.299804688 c 0
 415.900390625 505.599609375 431.299804688 490.099609375 443.200195312 471.299804688 c 0
 461.400390625 442.599609375 470.700195312 411.5 464.299804688 377.299804688 c 0
 462.900390625 370 460 362.799804688 456.400390625 356.200195312 c 0
 451.5 347.200195312 443.599609375 347.5 437.200195312 355.900390625 c 0
 430.099609375 365.099609375 423.099609375 374.299804688 415.200195312 382.799804688 c 0
 406 392.700195312 401.099609375 392.5 391 383.799804688 c 0
 389.299804688 382.400390625 387.700195312 381 386 379.700195312 c 0
 358.5 358.5 330.299804688 356.5 306.200195312 374.299804688 c 0
305.799804688 562.599609375 m 0
 296.700195312 569.400390625 292.299804688 581 294.799804688 591.099609375 c 0
 298.599609375 605.5 313.400390625 616.5 328.5 616.400390625 c 0
 352.700195312 616.099609375 374.799804688 580.599609375 364.099609375 558.799804688 c 0
 360.799804688 551.900390625 356.200195312 551.299804688 352.200195312 557.799804688 c 0
 346.799804688 566.599609375 341.599609375 568.5 332.700195312 561.5 c 0
 324.299804688 554.799804688 314.5 556.099609375 305.799804688 562.599609375 c 0
633.799804688 520.700195312 m 0
 631.099609375 518.5 625.900390625 516.299804688 623.900390625 517.400390625 c 0
 621.400390625 518.700195312 620.799804688 523.799804688 620.5 524.799804688 c 0
 620.900390625 547.400390625 640.599609375 568.599609375 660 570.400390625 c 0
 676.400390625 571.900390625 693.900390625 556.799804688 695.700195312 539.400390625 c 0
 697.200195312 525.099609375 685 509.900390625 670.299804688 510.299804688 c 0
 663.5 510.5 655.099609375 513.799804688 650.599609375 518.599609375 c 0
 644.5 525.099609375 640.5 526.299804688 633.799804688 520.700195312 c 0
EndSplineSet
Validated: 524321
EndChar

StartChar: V
Encoding: 86 86 14
Width: 1024
VWidth: 0
Flags: HW
LayerCount: 2
Fore
SplineSet
139.9609375 724.293945312 m 2
 929.284179688 -65.044921875 l 2
 941.78125 -77.5419921875 941.78125 -97.8046875 929.284179688 -110.301757812 c 0
 916.787109375 -122.798828125 896.524414062 -122.798828125 884.02734375 -110.301757812 c 2
 640.012695312 133.721679688 l 1
 458.26171875 -63.265625 l 2
 431.922851562 -91.8134765625 384.237304688 -73.1767578125 384.237304688 -34.3330078125 c 2
 384.237304688 183.48828125 l 1
 356.921875 160.73046875 l 2
 338.818359375 145.647460938 311.9140625 148.096679688 296.831054688 166.200195312 c 0
 281.747070312 184.303710938 284.1953125 211.208984375 302.298828125 226.291992188 c 2
 384.237304688 294.55859375 l 1
 384.237304688 389.5 l 1
 94.705078125 679.040039062 l 2
 82.208984375 691.536132812 82.208984375 711.797851562 94.7060546875 724.294921875 c 0
 107.203125 736.791015625 127.46484375 736.791015625 139.9609375 724.293945312 c 2
469.572265625 304.166992188 m 1
 469.572265625 74.8291015625 l 1
 579.315429688 194.419921875 l 1
 469.572265625 304.166992188 l 1
649.237304688 404.28125 m 2
 625.834960938 384.78125 l 1
 384.237304688 626.3828125 l 1
 384.237304688 648.333007812 l 2
 384.237304688 687.172851562 431.91015625 705.8125 458.256835938 677.272460938 c 2
 653.278320312 466.000976562 l 2
 669.836914062 448.061523438 667.993164062 419.909179688 649.237304688 404.28125 c 2
EndSplineSet
EndChar

StartChar: W
Encoding: 87 87 15
Width: 1024
VWidth: 0
Flags: HW
LayerCount: 2
Fore
SplineSet
509.200195312 735.099609375 m 0
 658.900390625 727.799804688 782.599609375 666.200195312 862.700195312 537 c 0
 980.200195312 347.700195312 955 166.299804688 816.900390625 -4.099609375 c 0
 813.5 -8.2998046875 813.900390625 -14.7001953125 817.700195312 -18.5 c 0
 841.400390625 -42.099609375 865.700195312 -66.099609375 889.200195312 -89.5 c 0
 893 -93.2998046875 891.700195312 -96.400390625 886.299804688 -96.400390625 c 0
 809.099609375 -96.599609375 732.200195312 -96.900390625 656.599609375 -97.099609375 c 0
 651.200195312 -97.099609375 646.799804688 -92.7001953125 646.799804688 -87.2998046875 c 0
 646.5 -13.7001953125 646.299804688 62.900390625 646 140.400390625 c 0
 646 145.799804688 649.099609375 147.099609375 652.900390625 143.299804688 c 0
 677.099609375 119.400390625 701.900390625 94.7001953125 728.099609375 68.7001953125 c 0
 732 64.900390625 738 65 741.599609375 69.099609375 c 0
 820.700195312 159.299804688 848.900390625 260.900390625 822.799804688 376.799804688 c 0
 795.799804688 497 684.200195312 624.400390625 509.599609375 633.099609375 c 0
 504.200195312 633.299804688 499.799804688 637.799804688 499.799804688 643.200195312 c 0
 499.700195312 670.099609375 499.599609375 697.200195312 499.5 725.799804688 c 0
 499.5 731.099609375 503.799804688 735.400390625 509.200195312 735.099609375 c 0
255.400390625 568.700195312 m 0
 169.799804688 469.200195312 140.5 358.099609375 183.299804688 234.099609375 c 0
 233.099609375 90 340.299804688 18.7001953125 488.799804688 5 c 0
 494.200195312 4.5 498.5 -0.2001953125 498.5 -5.599609375 c 0
 498.400390625 -32 498.299804688 -58.2001953125 498.200195312 -84.400390625 c 0
 498.099609375 -89.7998046875 493.799804688 -94.599609375 488.400390625 -94.7998046875 c 0
 370.400390625 -100.200195312 217.599609375 -29.2998046875 132 101.400390625 c 0
 40.099609375 241.900390625 23.400390625 470.200195312 180.799804688 640.700195312 c 0
 184.5 644.700195312 184.400390625 650.900390625 180.599609375 654.700195312 c 0
 156.299804688 678.900390625 132.099609375 702.900390625 109.099609375 725.700195312 c 0
 105.299804688 729.5 106.599609375 732.599609375 112 732.599609375 c 0
 188.200195312 732.799804688 265 733.099609375 340.700195312 733.400390625 c 0
 346.099609375 733.400390625 350.5 729.099609375 350.5 723.700195312 c 0
 350.700195312 651.700195312 350.900390625 575.200195312 351.099609375 497.200195312 c 0
 351.099609375 491.799804688 348 490.5 344.200195312 494.299804688 c 2
 268.799804688 569.200195312 l 2
 264.900390625 572.900390625 258.900390625 572.799804688 255.400390625 568.700195312 c 0
EndSplineSet
EndChar

StartChar: X
Encoding: 88 88 16
Width: 1024
VWidth: 0
Flags: H
LayerCount: 2
Fore
SplineSet
484 360.700195312 m 1
 740.400390625 360.700195312 l 1
 618.799804688 199.900390625 498.400390625 40.7001953125 378 -118.5 c 1
 376.200195312 -117.5 l 1
 419.700195312 1.900390625 463.299804688 121.200195312 507.599609375 243 c 1
 424.700195312 239.299804688 343.700195312 235.700195312 259.5 232 c 1
 382.900390625 408.299804688 504.900390625 582.400390625 626.900390625 756.5 c 1
 629.200195312 755.5 l 1
 580.900390625 624.5 532.700195312 493.400390625 484 360.700195312 c 1
EndSplineSet
Validated: 1
EndChar

StartChar: Y
Encoding: 89 89 17
Width: 1024
VWidth: 0
Flags: H
LayerCount: 2
Fore
SplineSet
396.299804688 212.200195312 m 0
 338.400390625 190.200195312 278.099609375 179.5 218.700195312 163.700195312 c 0
 208.400390625 161 198.200195312 158.700195312 185.5 155.5 c 1
 169.700195312 202.799804688 153.900390625 249.700195312 138.200195312 296.700195312 c 0
 122.599609375 343.599609375 115 391.900390625 116.299804688 442 c 0
 117 466.700195312 119.299804688 491.200195312 127.5 514.200195312 c 0
 144.700195312 562.200195312 177.700195312 587 221.900390625 590.5 c 0
 247.799804688 592.5 274.599609375 593.299804688 299.900390625 587.799804688 c 0
 340 579.099609375 365.400390625 547.700195312 382.400390625 505.900390625 c 0
 398 467.5 403.700195312 427.099609375 404.099609375 385.400390625 c 0
 404.700195312 331.900390625 404 278.599609375 404.400390625 225.099609375 c 0
 404.5 217.5 402.400390625 214.5 396.299804688 212.200195312 c 0
880.099609375 645.700195312 m 0
 888.200195312 584.799804688 882.299804688 525.700195312 863.799804688 468.299804688 c 0
 848.799804688 421.599609375 832.200195312 375.700195312 816.5 329.299804688 c 0
 813.900390625 321.5 810.5 320 803.200195312 321.799804688 c 0
 752.900390625 334.799804688 702.5 346.799804688 652.299804688 359.900390625 c 0
 634.700195312 364.400390625 617.599609375 371.599609375 600.200195312 377.299804688 c 0
 595.299804688 378.799804688 595.400390625 382.5 595.400390625 386.900390625 c 2
 595.400390625 475.299804688 l 1
 594 475.400390625 l 1
 595.599609375 515.700195312 595.200195312 556.299804688 599.099609375 596.400390625 c 0
 603.599609375 642.299804688 617.099609375 685.200195312 646.900390625 718.700195312 c 0
 665.099609375 739.200195312 686.900390625 752.299804688 713.099609375 754.700195312 c 0
 740.599609375 757.200195312 768.200195312 758.200195312 795.299804688 751.5 c 0
 841.900390625 740 872.700195312 700.700195312 880.099609375 645.700195312 c 0
421.799804688 127.299804688 m 0
 432.599609375 98.099609375 445.799804688 70 449.599609375 38.400390625 c 0
 454.099609375 1.099609375 455.299804688 -35.5 436.299804688 -69.5 c 0
 411.299804688 -114.200195312 385.099609375 -122.700195312 347 -116.700195312 c 0
 304.299804688 -110 273.099609375 -83.599609375 253.299804688 -39.2998046875 c 0
 235.900390625 -0.2998046875 224.700195312 41.2001953125 212.900390625 84.099609375 c 1
 240.5 92.599609375 267.099609375 100 293.400390625 109.099609375 c 0
 331.799804688 122.400390625 371.5 131 410.900390625 138.200195312 c 0
 416.5 139.200195312 419.400390625 133.599609375 421.799804688 127.299804688 c 0
607.599609375 295.099609375 m 0
 662.599609375 288.900390625 715 269.700195312 768 253.799804688 c 0
 774.099609375 251.900390625 780 250 787.099609375 247.799804688 c 1
 772.099609375 195.5 761.5 141.799804688 732 98.599609375 c 0
 701.099609375 53.2998046875 656.5 36.7001953125 610.099609375 49.7001953125 c 0
 599 52.7001953125 587.900390625 61.7001953125 579.599609375 71.2001953125 c 0
 560.5 93 549 119.5 547.700195312 151.299804688 c 0
 545.900390625 194.400390625 554.400390625 234.599609375 571.200195312 272.900390625 c 0
 574.900390625 281.5 576.799804688 294 582.799804688 297.599609375 c 0
 589 301.299804688 599.200195312 296.099609375 607.599609375 295.099609375 c 0
EndSplineSet
Validated: 33
EndChar

StartChar: Z
Encoding: 90 90 18
Width: 1024
VWidth: 0
Flags: H
LayerCount: 2
Fore
SplineSet
560.299804688 -13.599609375 m 1
 652.700195312 306.200195312 l 1
 917.5 306.200195312 l 1
 785.900390625 108.400390625 536.400390625 -108.299804688 536.400390625 -108.299804688 c 1
 536.400390625 -108.299804688 284.900390625 108.400390625 152.299804688 306.200195312 c 1
 222.299804688 306.200195312 l 1
 283.400390625 556.5 l 1
 350.200195312 306.200195312 l 1
 453.700195312 306.200195312 l 1
 560.299804688 -13.599609375 l 1
786.599609375 745.5 m 0
 891.200195312 734.299804688 1029.5 688.099609375 994.400390625 473.599609375 c 0
 986.900390625 427.400390625 961.299804688 374.200195312 925.900390625 319.099609375 c 1
 925.900390625 331.900390625 l 1
 633.299804688 331.900390625 l 1
 558.5 73 l 1
 472.299804688 331.900390625 l 1
 369.900390625 331.900390625 l 1
 282.299804688 660.400390625 l 1
 202.099609375 331.900390625 l 1
 135.599609375 331.900390625 l 1
 104.299804688 382.400390625 81.7998046875 431 74.7998046875 473.599609375 c 0
 39.7998046875 688.099609375 178 734.299804688 282.799804688 745.5 c 0
 368.299804688 754.599609375 510 702 534.599609375 564.700195312 c 1
 559.200195312 702 701 754.599609375 786.599609375 745.5 c 0
925.900390625 306.200195312 m 1
 917.5 306.200195312 l 1
 920.299804688 310.5 923.200195312 314.799804688 925.900390625 319.099609375 c 2
 925.900390625 306.200195312 l 1
0 331.900390625 m 1
 135.599609375 331.900390625 l 1
 141 323.400390625 146.599609375 314.799804688 152.299804688 306.200195312 c 1
 0 306.200195312 l 1
 0 331.900390625 l 1
EndSplineSet
Validated: 37
EndChar

StartChar: a
Encoding: 97 97 19
Width: 1024
VWidth: 0
Flags: HW
LayerCount: 2
Fore
SplineSet
893.400390625 62.7998046875 m 0
 893.799804688 41.400390625 893.599609375 19.900390625 893.700195312 -2.2001953125 c 1
 107.299804688 -2.2001953125 l 1
 107.299804688 19.599609375 107 41.400390625 107.599609375 63.099609375 c 0
 107.599609375 65.7001953125 111.900390625 69 114.799804688 70.7998046875 c 0
 148.099609375 92.2001953125 177 118.599609375 199.900390625 152 c 0
 225.700195312 189.599609375 238.599609375 231.5 238.299804688 277.900390625 c 0
 237.900390625 333.599609375 239.5 389.299804688 248.5 444.299804688 c 0
 255.400390625 486.5 266.799804688 527.299804688 286.5 565.200195312 c 0
 317.599609375 625 365.200195312 662.099609375 427.799804688 678.299804688 c 0
 428.900390625 678.599609375 429.799804688 678.900390625 430.700195312 679.200195312 c 0
 432.299804688 679.799804688 434.599609375 686.799804688 435.700195312 694.900390625 c 0
 436.400390625 700 437.299804688 704.799804688 438.700195312 709.400390625 c 0
 448.5 741.200195312 479.200195312 760.799804688 510 755.700195312 c 0
 542.299804688 750.400390625 565.400390625 722.200195312 566.099609375 687.799804688 c 0
 566.200195312 684.799804688 569 679.5 571.400390625 678.900390625 c 0
 661.099609375 656.700195312 711.900390625 593.5 738.700195312 504.599609375 c 0
 751.900390625 460.5 758.299804688 415.200195312 760.400390625 369.200195312 c 0
 762.099609375 331.099609375 761.799804688 293.099609375 764.200195312 255.099609375 c 0
 767.799804688 199.200195312 792.900390625 153.700195312 831 116.299804688 c 0
 848.599609375 99 869.099609375 85.2001953125 888.200195312 69.599609375 c 0
 890.299804688 67.7998046875 893.299804688 65.2001953125 893.400390625 62.7998046875 c 0
624.599609375 -43.900390625 m 2
 632.299804688 -43.900390625 636 -50 632.599609375 -57.400390625 c 2
 611.5 -105.099609375 l 2
 608.299804688 -112.5 599.400390625 -118.5 591.599609375 -118.5 c 2
 409.599609375 -118.5 l 2
 401.900390625 -118.5 392.900390625 -112.400390625 389.599609375 -105.099609375 c 2
 368.099609375 -57.2998046875 l 2
 364.700195312 -49.7998046875 368.299804688 -43.900390625 376.099609375 -43.900390625 c 2
 624.599609375 -43.900390625 l 2
EndSplineSet
Validated: 33
EndChar

StartChar: b
Encoding: 98 98 20
Width: 1024
VWidth: 0
Flags: H
LayerCount: 2
Fore
SplineSet
842.599609375 53.099609375 m 0
 862 9.7001953125 882.5 -33.2001953125 903.099609375 -75.900390625 c 0
 908.700195312 -87.7001953125 913.200195312 -99.2001953125 902.400390625 -110.400390625 c 0
 892 -121.099609375 880.400390625 -119.200195312 867.799804688 -114.700195312 c 0
 784 -84.5 700.200195312 -54.5 616.400390625 -24.5 c 0
 612.5 -23.2001953125 608.599609375 -21.7998046875 604.299804688 -20.2998046875 c 1
 583.599609375 -51.7001953125 556.099609375 -72.7998046875 520 -82.2001953125 c 0
 430.900390625 -105.5 344.799804688 -37.099609375 349 54.7001953125 c 0
 349.700195312 68.400390625 345.400390625 73.2998046875 333 77.7001953125 c 0
 250.299804688 106.700195312 168 136.599609375 85.5 166.200195312 c 0
 73.5 170.5 63.2998046875 176.299804688 63 190.799804688 c 0
 62.7001953125 204.799804688 71.5 212.299804688 83.2998046875 217.599609375 c 0
 127.5 237.700195312 171.400390625 258.099609375 215.599609375 277.900390625 c 0
 224.299804688 281.799804688 229.400390625 287.099609375 232.599609375 296.099609375 c 0
 259 368.900390625 283.5 442.599609375 313.200195312 514.099609375 c 0
 361.700195312 630.400390625 451.400390625 695.599609375 575.700195312 713.400390625 c 0
 617.400390625 719.400390625 658.5 715.299804688 700.099609375 705.099609375 c 1
 704.5 716.099609375 708.5 726.799804688 713 737.400390625 c 0
 719.900390625 753.900390625 732.200195312 760 746.900390625 754.599609375 c 0
 761.200195312 749.299804688 766 736 759.799804688 719 c 0
 756 708.700195312 752.099609375 698.400390625 749.700195312 691.799804688 c 1
 780.900390625 668.599609375 812.400390625 649.099609375 839.299804688 624.299804688 c 0
 894.400390625 573.299804688 925 508.700195312 935.099609375 434.099609375 c 0
 944 368.400390625 926.299804688 307.900390625 903.5 247.799804688 c 0
 882.099609375 191.200195312 861.5 134.5 841.400390625 77.5 c 0
 838.799804688 70.2998046875 839.5 60.099609375 842.599609375 53.099609375 c 0
463.299804688 -33.5 m 0
 497.900390625 -43.5 539.799804688 -28.599609375 554.400390625 -0.599609375 c 1
 503.099609375 17.7001953125 452 36 399.799804688 54.599609375 c 1
 397 13.7998046875 423.400390625 -22 463.299804688 -33.5 c 0
EndSplineSet
Validated: 33
EndChar

StartChar: c
Encoding: 99 99 21
Width: 1024
VWidth: 0
Flags: H
LayerCount: 2
Fore
SplineSet
63.099609375 274.400390625 m 0
 66.7001953125 348.799804688 87.599609375 418.099609375 127.200195312 480.700195312 c 0
 212.700195312 615.700195312 336.900390625 685.299804688 478.900390625 693.299804688 c 0
 486.099609375 693.400390625 493.099609375 693.400390625 500 693.299804688 c 0
 506.900390625 693.400390625 513.900390625 693.299804688 521.099609375 693.299804688 c 0
 663 685.299804688 787.200195312 615.700195312 872.799804688 480.700195312 c 0
 912.5 418.099609375 933.299804688 348.799804688 936.900390625 274.400390625 c 0
 942.799804688 153.599609375 906.099609375 47.7998046875 827.400390625 -43.7998046875 c 0
 813.900390625 -59.5 804.400390625 -59.900390625 789.700195312 -45.400390625 c 0
 775 -30.900390625 760.5 -16.2998046875 746 -1.7001953125 c 0
 729.900390625 14.400390625 729.299804688 21.5 743.700195312 38.7998046875 c 0
 774.900390625 76.2998046875 798.299804688 118.200195312 809.400390625 165.700195312 c 0
 840.200195312 297.099609375 805.299804688 409.299804688 705 499.099609375 c 0
 651.799804688 546.700195312 587.700195312 571.700195312 515.599609375 575.299804688 c 0
 510.400390625 575.5 505.200195312 575.700195312 500.099609375 575.700195312 c 0
 495 575.700195312 489.799804688 575.5 484.599609375 575.299804688 c 0
 412.5 571.799804688 348.400390625 546.799804688 295.200195312 499.099609375 c 0
 194.900390625 409.200195312 160 297.099609375 190.799804688 165.700195312 c 0
 201.900390625 118.200195312 225.299804688 76.2998046875 256.5 38.7998046875 c 0
 270.900390625 21.5 270.299804688 14.400390625 254.200195312 -1.7001953125 c 0
 239.599609375 -16.2998046875 225.099609375 -30.900390625 210.5 -45.400390625 c 0
 195.799804688 -59.900390625 186.200195312 -59.5 172.799804688 -43.7998046875 c 0
 94 47.7998046875 57.2001953125 153.599609375 63.099609375 274.400390625 c 0
469.400390625 285.599609375 m 0
 496.400390625 305.799804688 523.299804688 326.099609375 550.299804688 346.400390625 c 0
 592.400390625 378 634.5 409.700195312 676.799804688 441.099609375 c 0
 681 444.200195312 686.900390625 447.299804688 691.700195312 446.900390625 c 0
 704.799804688 445.900390625 707.900390625 433.200195312 698.700195312 420.799804688 c 0
 646.5 351.200195312 594.299804688 281.599609375 542.200195312 212 c 0
 528.299804688 193.5 505.700195312 186.400390625 482.900390625 193.799804688 c 0
 462 200.599609375 447.900390625 220.5 447.900390625 243.099609375 c 0
 447.900390625 260.900390625 455.200195312 275 469.400390625 285.599609375 c 0
EndSplineSet
Validated: 33
EndChar

StartChar: d
Encoding: 100 100 22
Width: 1024
VWidth: 0
Flags: HW
LayerCount: 2
Fore
SplineSet
512 818.971679688 m 0
 793.900390625 818.971679688 1024 588.912109375 1024 306.969726562 c 0
 1024 293.751953125 1015.34765625 282.08984375 1002.69433594 278.2578125 c 0
 999.8203125 277.385742188 996.893554688 276.967773438 994.001953125 276.967773438 c 0
 984.158203125 276.967773438 974.706054688 281.828125 969.038085938 290.330078125 c 0
 947.805664062 322.1796875 911.904296875 341.194335938 873 341.194335938 c 0
 834.095703125 341.194335938 798.194335938 322.177734375 776.961914062 290.330078125 c 0
 771.3984375 281.982421875 762.030273438 276.969726562 752 276.969726562 c 0
 741.969726562 276.969726562 732.6015625 281.984375 727.038085938 290.330078125 c 0
 705.490234375 322.654296875 670.84765625 341.194335938 632 341.194335938 c 0
 596.038085938 341.194335938 563.704101562 325.282226562 542 297.280273438 c 1
 542 149.811523438 l 1
 576.91796875 137.427734375 602 104.08203125 602 64.9716796875 c 2
 602 12.076171875 l 2
 602 -101.549804688 515.692382812 -204.963867188 392.3515625 -204.971679688 c 0
 275.74609375 -204.973632812 182 -110.67578125 182 4.9736328125 c 0
 182 54.599609375 222.374023438 94.9736328125 272 94.9736328125 c 0
 321.625976562 94.9736328125 362 54.599609375 362 4.9736328125 c 0
 362 -11.568359375 375.458007812 -25.0263671875 392 -25.0263671875 c 0
 408.541992188 -25.0263671875 422 -11.568359375 422 4.9736328125 c 2
 422 64.9736328125 l 2
 422 104.083984375 447.08203125 137.4296875 482 149.814453125 c 1
 482 297.282226562 l 1
 460.295898438 325.284179688 427.961914062 341.196289062 392 341.196289062 c 0
 353.15234375 341.196289062 318.509765625 322.65625 296.961914062 290.33203125 c 0
 291.3984375 281.984375 282.030273438 276.971679688 272 276.971679688 c 0
 261.969726562 276.971679688 252.6015625 281.986328125 247.038085938 290.33203125 c 0
 225.805664062 322.181640625 189.904296875 341.196289062 151 341.196289062 c 0
 112.095703125 341.196289062 76.1943359375 322.1796875 54.9619140625 290.33203125 c 0
 47.6279296875 279.33203125 33.9599609375 274.431640625 21.3056640625 278.259765625 c 0
 8.654296875 282.08984375 0 293.751953125 0 306.971679688 c 0
 0 588.872070312 230.059570312 818.971679688 512 818.971679688 c 0
242.849609375 375.505859375 m 1
 248.07421875 495.811523438 280.272460938 636.017578125 354.75 730.73828125 c 1
 204.669921875 674.862304688 92.015625 541.4296875 65.7998046875 379.4140625 c 1
 91.40625 393.50390625 120.616210938 401.196289062 151 401.196289062 c 0
 184.059570312 401.196289062 215.700195312 392.051757812 242.849609375 375.505859375 c 1
392 401.196289062 m 0
 424.282226562 401.196289062 455.259765625 392.288085938 482 376.146484375 c 1
 482 754.438476562 l 1
 388.213867188 726.110351562 312.353515625 567.68359375 302.986328125 376.75 c 1
 329.5 392.513671875 360.114257812 401.196289062 392 401.196289062 c 0
542 12.076171875 m 2
 542 64.9716796875 l 2
 542 81.513671875 528.541992188 94.9716796875 512 94.9716796875 c 0
 495.458007812 94.9716796875 482 81.513671875 482 64.9716796875 c 2
 482 4.9716796875 l 2
 482 -44.654296875 441.625976562 -85.0283203125 392 -85.0283203125 c 0
 342.374023438 -85.0283203125 302 -44.654296875 302 4.9716796875 c 0
 302 21.513671875 288.541992188 34.9716796875 272 34.9716796875 c 0
 255.458007812 34.9716796875 242 21.513671875 242 4.9716796875 c 0
 242 -78.658203125 310.009765625 -144.811523438 392 -144.986328125 c 0
 480.162109375 -145.171875 542 -71.7099609375 542 12.076171875 c 2
632 401.196289062 m 0
 663.885742188 401.196289062 694.5 392.513671875 721.013671875 376.748046875 c 1
 711.646484375 567.68359375 635.786132812 726.110351562 542 754.438476562 c 1
 542 376.1484375 l 1
 568.740234375 392.288085938 599.717773438 401.196289062 632 401.196289062 c 0
873 401.196289062 m 0
 903.383789062 401.196289062 932.59375 393.50390625 958.200195312 379.4140625 c 1
 931.984375 541.4296875 819.330078125 674.862304688 669.25 730.73828125 c 1
 743.505859375 636.301757812 775.90234375 496.374023438 781.150390625 375.505859375 c 1
 808.299804688 392.053710938 839.940429688 401.196289062 873 401.196289062 c 0
EndSplineSet
EndChar

StartChar: e
Encoding: 101 101 23
Width: 1024
VWidth: 0
Flags: H
LayerCount: 2
Fore
SplineSet
999.599609375 459.900390625 m 1
 999.599609375 436.400390625 l 2
 999.599609375 335.599609375 999.700195312 234.900390625 999.599609375 134.099609375 c 0
 999.400390625 44.099609375 935.599609375 -22.7998046875 845.799804688 -23.2001953125 c 0
 615.900390625 -24.2001953125 386 -24.2001953125 156 -23.2998046875 c 0
 64.2001953125 -22.900390625 0.2001953125 43.2998046875 0.099609375 134.400390625 c 0
 -0.099609375 235.099609375 0 335.700195312 0 436.400390625 c 2
 0 461.400390625 l 1
 44.7001953125 442.200195312 86.2001953125 424.599609375 127.5 406.5 c 0
 230.599609375 361.5 333.099609375 315 436.900390625 271.700195312 c 0
 479.299804688 254.099609375 524.5 255.400390625 567.299804688 273.799804688 c 0
 661.700195312 314.299804688 755.700195312 355.599609375 849.900390625 396.599609375 c 0
 893 415.400390625 936 434.200195312 979.099609375 452.900390625 c 0
 984.900390625 455.400390625 991 457 999.599609375 460 c 1
 999.599609375 459.900390625 l 1
499.200195312 661.400390625 m 0
 637.299804688 661.400390625 775.5 661.700195312 913.599609375 661.299804688 c 0
 969.299804688 661.099609375 1000.20019531 629 1000 575.299804688 c 0
 1000 561.400390625 994.700195312 555.599609375 982.799804688 550.5 c 0
 863.099609375 498.799804688 743.5 446.700195312 623.900390625 394.700195312 c 0
 597.200195312 383 570.200195312 372.099609375 543.799804688 359.599609375 c 0
 512.700195312 344.900390625 482.299804688 347.799804688 452.200195312 360.900390625 c 0
 306.599609375 424.200195312 161 487.5 15.900390625 551.799804688 c 0
 8.7001953125 554.900390625 1.099609375 566.299804688 0.7001953125 574.200195312 c 0
 -2.099609375 628.099609375 30.099609375 661.200195312 84.900390625 661.299804688 c 0
 223 661.700195312 361.099609375 661.400390625 499.200195312 661.400390625 c 0
EndSplineSet
Validated: 33
EndChar

StartChar: f
Encoding: 102 102 24
Width: 1024
VWidth: 0
Flags: HW
LayerCount: 2
Fore
SplineSet
274.900390625 377.799804688 m 0
 258 356.099609375 240.200195312 335 220.599609375 310.900390625 c 1
 190.700195312 350 160.900390625 386 134.400390625 424.299804688 c 0
 113.400390625 454.5 95 486.799804688 78.099609375 519.5 c 0
 33.2001953125 606.5 91.5 705.099609375 174 730.599609375 c 0
 275 761.799804688 379.299804688 686.799804688 380.799804688 581 c 0
 381 559.799804688 374.400390625 540.099609375 365.900390625 521.099609375 c 0
 342.599609375 468.900390625 309.799804688 422.700195312 274.900390625 377.799804688 c 0
165.799804688 579.700195312 m 0
 165.599609375 549.400390625 190.900390625 524 221.5 523.700195312 c 0
 251.099609375 523.400390625 276.900390625 548.799804688 277.200195312 578.700195312 c 0
 277.5 609.400390625 252.799804688 634.799804688 222.099609375 635.099609375 c 0
 191.900390625 635.400390625 166 609.900390625 165.799804688 579.700195312 c 0
936.299804688 252.5 m 0
 939.700195312 227.099609375 936.099609375 203 925.400390625 180.5 c 0
 912.5 153.700195312 898.599609375 127.200195312 882.799804688 102 c 0
 852.599609375 53.900390625 816.900390625 9.7001953125 778.200195312 -34.7001953125 c 1
 762 -15 746.299804688 3.5 731.299804688 22.599609375 c 0
 696.599609375 66.7998046875 665.200195312 112.900390625 638.799804688 162.799804688 c 0
 584.799804688 264.900390625 655.900390625 364.5 738.299804688 385.5 c 0
 830.400390625 409 923.700195312 346.599609375 936.299804688 252.5 c 0
778.5 176.400390625 m 0
 808.5 176.400390625 834.299804688 202.200195312 834.299804688 232.299804688 c 0
 834.5 262.400390625 808.799804688 288 778.599609375 288 c 0
 748.599609375 287.900390625 722.900390625 262.200195312 722.900390625 232.200195312 c 0
 722.900390625 201.900390625 748.400390625 176.400390625 778.5 176.400390625 c 0
549.900390625 -53 m 0
 563.599609375 -54.099609375 572 -62.599609375 571.5 -74.2998046875 c 0
 570.900390625 -86.5 561.5 -94.099609375 547.400390625 -93.900390625 c 2
 540.599609375 -93.900390625 l 1
 540.599609375 -93.7001953125 l 1
 526.700195312 -92.900390625 512.799804688 -92.2998046875 498.900390625 -91.2001953125 c 0
 484.299804688 -90.099609375 475.700195312 -80.900390625 476.799804688 -68.2998046875 c 0
 477.900390625 -56 487.200195312 -48.7998046875 501.5 -49.599609375 c 0
 517.599609375 -50.599609375 533.799804688 -51.7001953125 549.900390625 -53 c 0
288.099609375 -20.900390625 m 0
 301.5 -24.7001953125 308.5 -34.900390625 305.200195312 -46.7001953125 c 0
 302.099609375 -58.7998046875 291.5 -64.599609375 277.900390625 -61 c 0
 261.099609375 -56.5 244.299804688 -51.7998046875 227.700195312 -46.2998046875 c 0
 216.700195312 -42.7001953125 211.599609375 -32.400390625 214 -21.599609375 c 0
 216 -12.7001953125 224.400390625 -6.2001953125 235.400390625 -6.2001953125 c 0
 236.799804688 -6.5 239.700195312 -6.900390625 242.5 -7.7001953125 c 0
 257.700195312 -12.099609375 272.900390625 -16.599609375 288.099609375 -20.900390625 c 0
420.599609375 -42.900390625 m 0
 432.799804688 -44.7998046875 439.400390625 -54.900390625 437.599609375 -67 c 0
 436 -77.400390625 426.599609375 -84.900390625 415 -83.7001953125 c 0
 397 -81.7001953125 379 -79.400390625 361.099609375 -76.5 c 0
 349 -74.599609375 342.700195312 -65.400390625 344 -53.5 c 0
 345.200195312 -42.7001953125 354 -35.5 365.700195312 -35.900390625 c 0
 384 -38.2001953125 402.400390625 -40.099609375 420.599609375 -42.900390625 c 0
429.599609375 168.599609375 m 0
 440.700195312 171.200195312 449.700195312 165.400390625 453.200195312 154.900390625 c 0
 456.299804688 145.599609375 453.099609375 134.200195312 443.900390625 131 c 0
 423.900390625 123.900390625 403.299804688 118.400390625 382.900390625 112.299804688 c 1
 372.200195312 114 363.599609375 120.599609375 361.900390625 129.799804688 c 0
 359.900390625 140.599609375 365 150.700195312 375.299804688 153.799804688 c 0
 393.299804688 159.200195312 411.400390625 164.200195312 429.599609375 168.599609375 c 0
301.799804688 137.200195312 m 0
 312.099609375 139.400390625 321.200195312 131.900390625 323.700195312 122.200195312 c 0
 326 113.299804688 322.299804688 102.200195312 313.5 99.2998046875 c 0
 293.299804688 92.7001953125 272.5 87.7998046875 254.799804688 82.900390625 c 0
 242.200195312 82.900390625 234 89.099609375 231.799804688 98.2001953125 c 0
 229.400390625 107.799804688 233.400390625 118.599609375 242.799804688 121.599609375 c 0
 262.200195312 127.700195312 281.900390625 133 301.799804688 137.200195312 c 0
506.400390625 203.299804688 m 0
 508.599609375 190.200195312 499.5 179 484.799804688 178.700195312 c 0
 477.099609375 179 468.799804688 183.099609375 467 192.599609375 c 0
 464.299804688 207.099609375 454.799804688 214.599609375 443.400390625 221.400390625 c 0
 435.400390625 226.200195312 432.200195312 233.599609375 433.799804688 242.900390625 c 0
 435.299804688 251.400390625 440.5 256.900390625 448.700195312 258.900390625 c 0
 452.5 259.799804688 457.400390625 259.900390625 460.799804688 258.299804688 c 0
 484.5 247.099609375 501.799804688 230.400390625 506.400390625 203.299804688 c 0
397.299804688 257.5 m 0
 395.400390625 245.200195312 385 238.400390625 371.700195312 240 c 0
 356.599609375 241.700195312 341.400390625 242.900390625 326.299804688 244.299804688 c 0
 310.700195312 245.700195312 302.700195312 253.200195312 303.299804688 266 c 0
 303.900390625 279.099609375 313.200195312 286.099609375 329.099609375 285.5 c 2
 334.5 285.5 l 2
 347.099609375 284.299804688 362.200195312 282.900390625 377.299804688 281.200195312 c 0
 391 279.599609375 399.200195312 269.599609375 397.299804688 257.5 c 0
688.099609375 -57.900390625 m 0
 698.400390625 -58.599609375 706 -69.5 705.299804688 -79.400390625 c 0
 704.5 -90 696.200195312 -98.099609375 684.700195312 -98.900390625 c 0
 680.200195312 -99.2001953125 675.599609375 -98.5 671.099609375 -98.400390625 c 0
 666.599609375 -98.2998046875 662 -98.400390625 657.5 -98.400390625 c 1
 657.5 -97.599609375 l 1
 648.799804688 -97.599609375 640 -97.7998046875 631.299804688 -97.5 c 0
 619.400390625 -97 611.299804688 -89.5 610.5 -78.599609375 c 0
 609.700195312 -67.099609375 616.599609375 -57.400390625 629 -56.900390625 c 0
 648.700195312 -56.099609375 668.5 -56.7001953125 688.099609375 -57.900390625 c 0
166.400390625 81 m 0
 174.400390625 89.099609375 187.200195312 89.400390625 195.299804688 82.099609375 c 0
 203.200195312 75.099609375 204.599609375 62.7001953125 197.299804688 54.099609375 c 0
 189.299804688 44.599609375 186.299804688 35.2998046875 190 22.900390625 c 0
 193.299804688 12 186.700195312 1.7998046875 176.200195312 -1.400390625 c 0
 166.299804688 -4.400390625 155.799804688 0.2001953125 151.599609375 10.5 c 0
 148.799804688 17.599609375 147.400390625 25.2998046875 146.299804688 29.2001953125 c 0
 146.700195312 51.599609375 153.299804688 67.7001953125 166.400390625 81 c 0
796.799804688 -58.099609375 m 0
 807.299804688 -58.900390625 815 -68.5 814.900390625 -78.7998046875 c 0
 814.799804688 -89.2998046875 806.5 -98.2998046875 795.400390625 -99.2998046875 c 0
 790.299804688 -99.7998046875 785.099609375 -99.400390625 779.900390625 -99.400390625 c 1
 779.900390625 -99.5 l 1
 775.099609375 -99.5 770.200195312 -99.7001953125 765.400390625 -99.400390625 c 0
 754.299804688 -98.599609375 746 -90.099609375 745.5 -79.400390625 c 0
 745.099609375 -68.7001953125 752.799804688 -59 763.900390625 -58.099609375 c 0
 774.799804688 -57.2001953125 785.900390625 -57.2001953125 796.799804688 -58.099609375 c 0
229.099609375 246.599609375 m 0
 223.599609375 246.599609375 218.099609375 246.200195312 212.5 246.599609375 c 0
 202.200195312 247.5 194.299804688 256.700195312 194.400390625 267.099609375 c 0
 194.5 277.400390625 202.599609375 286.700195312 213 287.200195312 c 0
 224 287.700195312 235 287.700195312 246 287.099609375 c 0
 256.299804688 286.599609375 264 277.200195312 264 266.599609375 c 0
 264 256.5 256.5 247.700195312 246.5 246.700195312 c 0
 240.799804688 246.200195312 234.900390625 246.599609375 229.099609375 246.599609375 c 0
EndSplineSet
Validated: 33
EndChar

StartChar: g
Encoding: 103 103 25
Width: 1024
VWidth: 0
Flags: H
LayerCount: 2
Fore
SplineSet
1021.72167969 113.223632812 m 0
 1024.03710938 110.908203125 1024.65332031 107.39453125 1023.26855469 104.428710938 c 0
 996.850585938 47.9140625 960.908203125 -3.29296875 916.436523438 -47.76171875 c 0
 815.041992188 -149.16015625 680.228515625 -205 536.8359375 -205 c 0
 393.440429688 -205 258.626953125 -149.16015625 157.235351562 -47.76171875 c 0
 55.83984375 53.630859375 0 188.443359375 0 331.8359375 c 0
 0 475.228515625 55.83984375 610.041992188 157.23828125 711.436523438 c 0
 201.70703125 755.905273438 252.91015625 791.850585938 309.428710938 818.268554688 c 0
 312.391601562 819.653320312 315.908203125 819.037109375 318.223632812 816.721679688 c 0
 320.5390625 814.409179688 321.158203125 810.892578125 319.770507812 807.926757812 c 0
 227.235351562 609.9609375 268.92578125 373.08984375 423.508789062 218.505859375 c 0
 521.95703125 120.05859375 652.8515625 65.8388671875 792.083984375 65.8388671875 c 0
 868.075195312 65.8388671875 944.442382812 82.759765625 1012.92675781 114.770507812 c 0
 1015.88964844 116.162109375 1019.40917969 115.5390625 1021.72167969 113.223632812 c 0
520.260742188 323.041015625 m 0
 520.260742188 325.033203125 521.0234375 327.024414062 522.541992188 328.540039062 c 0
 600.279296875 406.283203125 600.279296875 481.864257812 522.541992188 559.603515625 c 0
 521.0234375 561.123046875 520.264648438 563.114257812 520.264648438 565.106445312 c 0
 520.264648438 567.09765625 521.0234375 569.08984375 522.541992188 570.608398438 c 0
 525.576171875 573.6484375 530.505859375 573.6484375 533.543945312 570.608398438 c 0
 572.186523438 531.965820312 611.056640625 512.372070312 649.073242188 512.372070312 c 0
 687.090820312 512.372070312 725.9609375 531.96875 764.603515625 570.608398438 c 0
 767.638671875 573.6484375 772.567382812 573.6484375 775.60546875 570.608398438 c 0
 777.124023438 569.08984375 777.8828125 567.09765625 777.8828125 565.106445312 c 0
 777.8828125 563.114257812 777.124023438 561.123046875 775.60546875 559.603515625 c 0
 698.051757812 482.05078125 697.87109375 406.638671875 775.057617188 329.090820312 c 0
 776.819335938 327.666015625 777.9453125 325.484375 777.9453125 323.041015625 c 0
 777.9453125 318.734375 774.465820312 315.12109375 770.137695312 315.260742188 c 0
 770.125 315.260742188 770.112304688 315.260742188 770.102539062 315.260742188 c 0
 768.111328125 315.260742188 766.119140625 316.020507812 764.600585938 317.5390625 c 0
 725.958007812 356.181640625 687.087890625 375.775390625 649.0703125 375.775390625 c 0
 611.053710938 375.775390625 572.18359375 356.181640625 533.540039062 317.5390625 c 0
 530.505859375 314.499023438 525.576171875 314.499023438 522.5390625 317.5390625 c 0
 521.020507812 319.057617188 520.260742188 321.049804688 520.260742188 323.041015625 c 0
EndSplineSet
Validated: 33
EndChar

StartChar: h
Encoding: 104 104 26
Width: 1024
VWidth: 0
Flags: HW
LayerCount: 2
Fore
SplineSet
713.599609375 47.7998046875 m 0
 688 47.7998046875 662.400390625 57.400390625 640 76.599609375 c 0
 624 92.599609375 598.400390625 92.599609375 582.400390625 76.599609375 c 0
 544 38.2001953125 476.799804688 38.2001953125 438.400390625 76.599609375 c 0
 422.400390625 92.599609375 396.799804688 92.599609375 380.799804688 76.599609375 c 0
 342.400390625 38.2001953125 275.200195312 38.2001953125 236.799804688 76.599609375 c 0
 220.799804688 92.599609375 195.200195312 92.599609375 179.200195312 76.599609375 c 0
 166.400390625 63.7998046875 147.200195312 63.7998046875 134.400390625 76.599609375 c 0
 121.599609375 89.400390625 121.599609375 108.599609375 134.400390625 121.400390625 c 0
 172.799804688 159.799804688 240 159.799804688 278.400390625 121.400390625 c 0
 294.400390625 105.400390625 320 105.400390625 336 121.400390625 c 0
 374.400390625 159.799804688 441.599609375 159.799804688 480 121.400390625 c 0
 496 105.400390625 521.599609375 105.400390625 537.599609375 121.400390625 c 0
 576 159.799804688 643.200195312 159.799804688 681.599609375 121.400390625 c 0
 697.599609375 105.400390625 723.200195312 105.400390625 739.200195312 121.400390625 c 0
 777.599609375 159.799804688 844.799804688 159.799804688 883.200195312 121.400390625 c 0
 896 108.599609375 896 89.400390625 883.200195312 76.599609375 c 0
 870.400390625 63.7998046875 851.200195312 63.7998046875 838.400390625 76.599609375 c 0
 822.400390625 92.599609375 796.799804688 92.599609375 780.799804688 76.599609375 c 0
 764.799804688 57.400390625 739.200195312 47.7998046875 713.599609375 47.7998046875 c 0
275.200195312 -80.2001953125 m 0
 246.400390625 -80.2001953125 217.599609375 -70.599609375 195.200195312 -54.599609375 c 0
 172.799804688 -38.599609375 137.599609375 -38.599609375 115.200195312 -54.599609375 c 0
 102.400390625 -64.2001953125 80 -64.2001953125 70.400390625 -51.400390625 c 0
 60.7998046875 -38.599609375 60.7998046875 -16.2001953125 73.599609375 -6.599609375 c 0
 118.400390625 28.599609375 188.799804688 28.599609375 233.599609375 -6.599609375 c 0
 256 -22.599609375 291.200195312 -22.599609375 313.599609375 -6.599609375 c 0
 358.400390625 28.599609375 428.799804688 28.599609375 473.599609375 -6.599609375 c 0
 496 -22.599609375 531.200195312 -22.599609375 553.599609375 -6.599609375 c 0
 598.400390625 28.599609375 668.799804688 28.599609375 713.599609375 -6.599609375 c 0
 736 -22.599609375 771.200195312 -22.599609375 793.599609375 -6.599609375 c 0
 838.400390625 28.599609375 908.799804688 28.599609375 953.599609375 -6.599609375 c 0
 966.400390625 -16.2001953125 969.599609375 -38.599609375 956.799804688 -51.400390625 c 0
 947.200195312 -64.2001953125 924.799804688 -67.400390625 912 -54.599609375 c 0
 889.599609375 -38.599609375 854.400390625 -38.599609375 832 -54.599609375 c 0
 787.200195312 -89.7998046875 716.799804688 -89.7998046875 672 -54.599609375 c 0
 649.599609375 -38.599609375 614.400390625 -38.599609375 592 -54.599609375 c 0
 547.200195312 -89.7998046875 476.799804688 -89.7998046875 432 -54.599609375 c 0
 409.599609375 -38.599609375 374.400390625 -38.599609375 352 -54.599609375 c 0
 332.799804688 -70.599609375 304 -80.2001953125 275.200195312 -80.2001953125 c 0
512 595 m 0
 492.799804688 595 480 607.799804688 480 627 c 2
 480 723 l 2
 480 742.200195312 492.799804688 755 512 755 c 0
 531.200195312 755 544 742.200195312 544 723 c 2
 544 627 l 2
 544 607.799804688 531.200195312 595 512 595 c 0
284.799804688 502.200195312 m 0
 275.200195312 502.200195312 268.799804688 505.400390625 262.400390625 511.799804688 c 2
 195.200195312 579 l 2
 182.400390625 591.799804688 182.400390625 611 195.200195312 623.799804688 c 0
 208 636.599609375 227.200195312 636.599609375 240 623.799804688 c 2
 307.200195312 556.599609375 l 2
 320 543.799804688 320 524.599609375 307.200195312 511.799804688 c 0
 300.799804688 505.400390625 294.400390625 502.200195312 284.799804688 502.200195312 c 0
192 275 m 2
 96 275 l 2
 76.7998046875 275 64 287.799804688 64 307 c 0
 64 326.200195312 76.7998046875 339 96 339 c 2
 192 339 l 2
 211.200195312 339 224 326.200195312 224 307 c 0
 224 287.799804688 211.200195312 275 192 275 c 2
928 275 m 2
 832 275 l 2
 812.799804688 275 800 287.799804688 800 307 c 0
 800 326.200195312 812.799804688 339 832 339 c 2
 928 339 l 2
 947.200195312 339 960 326.200195312 960 307 c 0
 960 287.799804688 947.200195312 275 928 275 c 2
739.200195312 502.200195312 m 0
 729.599609375 502.200195312 723.200195312 505.400390625 716.799804688 511.799804688 c 0
 704 524.599609375 704 543.799804688 716.799804688 556.599609375 c 2
 784 623.799804688 l 2
 796.799804688 636.599609375 816 636.599609375 828.799804688 623.799804688 c 0
 841.599609375 611 841.599609375 591.799804688 828.799804688 579 c 2
 761.599609375 511.799804688 l 2
 755.200195312 505.400390625 745.599609375 502.200195312 739.200195312 502.200195312 c 0
512 563 m 0
 652.799804688 563 768 447.799804688 768 307 c 0
 768 268.599609375 758.400390625 233.400390625 742.400390625 198.200195312 c 0
 736 185.400390625 726.400390625 179 713.599609375 179 c 2
 544 179 l 1
 544 358.200195312 l 1
 585.599609375 316.599609375 l 2
 592 310.200195312 598.400390625 307 608 307 c 0
 617.599609375 307 624 310.200195312 630.400390625 316.599609375 c 0
 643.200195312 329.400390625 643.200195312 348.599609375 630.400390625 361.400390625 c 2
 534.400390625 457.400390625 l 2
 531.200195312 460.599609375 528 460.599609375 524.799804688 463.799804688 c 0
 515.200195312 467 505.599609375 467 499.200195312 463.799804688 c 0
 496 463.799804688 492.799804688 460.599609375 489.599609375 457.400390625 c 2
 393.599609375 361.400390625 l 2
 380.799804688 348.599609375 380.799804688 329.400390625 393.599609375 316.599609375 c 0
 406.400390625 303.799804688 425.599609375 303.799804688 438.400390625 316.599609375 c 2
 480 358.200195312 l 1
 480 179 l 1
 310.400390625 179 l 2
 297.599609375 179 284.799804688 185.400390625 281.599609375 198.200195312 c 0
 265.599609375 233.400390625 256 268.599609375 256 307 c 0
 256 447.799804688 371.200195312 563 512 563 c 0
EndSplineSet
Validated: 524321
EndChar

StartChar: i
Encoding: 105 105 27
Width: 1024
VWidth: 0
Flags: HW
LayerCount: 2
Fore
SplineSet
713.599609375 47.7998046875 m 0
 688 47.7998046875 662.400390625 57.400390625 640 76.599609375 c 0
 624 92.599609375 598.400390625 92.599609375 582.400390625 76.599609375 c 0
 544 38.2001953125 476.799804688 38.2001953125 438.400390625 76.599609375 c 0
 422.400390625 92.599609375 396.799804688 92.599609375 380.799804688 76.599609375 c 0
 342.400390625 38.2001953125 275.200195312 38.2001953125 236.799804688 76.599609375 c 0
 220.799804688 92.599609375 195.200195312 92.599609375 179.200195312 76.599609375 c 0
 166.400390625 63.7998046875 147.200195312 63.7998046875 134.400390625 76.599609375 c 0
 121.599609375 89.400390625 121.599609375 108.599609375 134.400390625 121.400390625 c 0
 172.799804688 159.799804688 240 159.799804688 278.400390625 121.400390625 c 0
 294.400390625 105.400390625 320 105.400390625 336 121.400390625 c 0
 374.400390625 159.799804688 441.599609375 159.799804688 480 121.400390625 c 0
 496 105.400390625 521.599609375 105.400390625 537.599609375 121.400390625 c 0
 576 159.799804688 643.200195312 159.799804688 681.599609375 121.400390625 c 0
 697.599609375 105.400390625 723.200195312 105.400390625 739.200195312 121.400390625 c 0
 777.599609375 159.799804688 844.799804688 159.799804688 883.200195312 121.400390625 c 0
 896 108.599609375 896 89.400390625 883.200195312 76.599609375 c 0
 870.400390625 63.7998046875 851.200195312 63.7998046875 838.400390625 76.599609375 c 0
 822.400390625 92.599609375 796.799804688 92.599609375 780.799804688 76.599609375 c 0
 764.799804688 57.400390625 739.200195312 47.7998046875 713.599609375 47.7998046875 c 0
275.200195312 -80.2001953125 m 0
 246.400390625 -80.2001953125 217.599609375 -70.599609375 195.200195312 -54.599609375 c 0
 172.799804688 -38.599609375 137.599609375 -38.599609375 115.200195312 -54.599609375 c 0
 102.400390625 -64.2001953125 80 -64.2001953125 70.400390625 -51.400390625 c 0
 60.7998046875 -38.599609375 60.7998046875 -16.2001953125 73.599609375 -6.599609375 c 0
 118.400390625 28.599609375 188.799804688 28.599609375 233.599609375 -6.599609375 c 0
 256 -22.599609375 291.200195312 -22.599609375 313.599609375 -6.599609375 c 0
 358.400390625 28.599609375 428.799804688 28.599609375 473.599609375 -6.599609375 c 0
 496 -22.599609375 531.200195312 -22.599609375 553.599609375 -6.599609375 c 0
 598.400390625 28.599609375 668.799804688 28.599609375 713.599609375 -6.599609375 c 0
 736 -22.599609375 771.200195312 -22.599609375 793.599609375 -6.599609375 c 0
 838.400390625 28.599609375 908.799804688 28.599609375 953.599609375 -6.599609375 c 0
 966.400390625 -16.2001953125 969.599609375 -38.599609375 956.799804688 -51.400390625 c 0
 947.200195312 -64.2001953125 924.799804688 -67.400390625 912 -54.599609375 c 0
 889.599609375 -38.599609375 854.400390625 -38.599609375 832 -54.599609375 c 0
 787.200195312 -89.7998046875 716.799804688 -89.7998046875 672 -54.599609375 c 0
 649.599609375 -38.599609375 614.400390625 -38.599609375 592 -54.599609375 c 0
 547.200195312 -89.7998046875 476.799804688 -89.7998046875 432 -54.599609375 c 0
 409.599609375 -38.599609375 374.400390625 -38.599609375 352 -54.599609375 c 0
 332.799804688 -70.599609375 304 -80.2001953125 275.200195312 -80.2001953125 c 0
512 595 m 0
 492.799804688 595 480 607.799804688 480 627 c 2
 480 723 l 2
 480 742.200195312 492.799804688 755 512 755 c 0
 531.200195312 755 544 742.200195312 544 723 c 2
 544 627 l 2
 544 607.799804688 531.200195312 595 512 595 c 0
284.799804688 502.200195312 m 0
 275.200195312 502.200195312 268.799804688 505.400390625 262.400390625 511.799804688 c 2
 195.200195312 579 l 2
 182.400390625 591.799804688 182.400390625 611 195.200195312 623.799804688 c 0
 208 636.599609375 227.200195312 636.599609375 240 623.799804688 c 2
 307.200195312 556.599609375 l 2
 320 543.799804688 320 524.599609375 307.200195312 511.799804688 c 0
 300.799804688 505.400390625 294.400390625 502.200195312 284.799804688 502.200195312 c 0
192 275 m 2
 96 275 l 2
 76.7998046875 275 64 287.799804688 64 307 c 0
 64 326.200195312 76.7998046875 339 96 339 c 2
 192 339 l 2
 211.200195312 339 224 326.200195312 224 307 c 0
 224 287.799804688 211.200195312 275 192 275 c 2
928 275 m 2
 832 275 l 2
 812.799804688 275 800 287.799804688 800 307 c 0
 800 326.200195312 812.799804688 339 832 339 c 2
 928 339 l 2
 947.200195312 339 960 326.200195312 960 307 c 0
 960 287.799804688 947.200195312 275 928 275 c 2
739.200195312 502.200195312 m 0
 729.599609375 502.200195312 723.200195312 505.400390625 716.799804688 511.799804688 c 0
 704 524.599609375 704 543.799804688 716.799804688 556.599609375 c 2
 784 623.799804688 l 2
 796.799804688 636.599609375 816 636.599609375 828.799804688 623.799804688 c 0
 841.599609375 611 841.599609375 591.799804688 828.799804688 579 c 2
 761.599609375 511.799804688 l 2
 755.200195312 505.400390625 745.599609375 502.200195312 739.200195312 502.200195312 c 0
512 563 m 0
 652.799804688 563 768 447.799804688 768 307 c 0
 768 268.599609375 758.400390625 233.400390625 742.400390625 198.200195312 c 0
 736 185.400390625 726.400390625 179 713.599609375 179 c 2
 310.400390625 179 l 2
 297.599609375 179 284.799804688 185.400390625 281.599609375 198.200195312 c 0
 265.599609375 233.400390625 256 268.599609375 256 307 c 0
 256 447.799804688 371.200195312 563 512 563 c 0
630.400390625 316.599609375 m 2
 643.200195312 329.400390625 643.200195312 348.599609375 630.400390625 361.400390625 c 0
 617.599609375 374.200195312 598.400390625 374.200195312 585.599609375 361.400390625 c 2
 544 319.799804688 l 1
 544 467 l 2
 544 486.200195312 531.200195312 499 512 499 c 0
 492.799804688 499 480 486.200195312 480 467 c 2
 480 319.799804688 l 1
 438.400390625 361.400390625 l 2
 425.599609375 374.200195312 406.400390625 374.200195312 393.599609375 361.400390625 c 0
 380.799804688 348.599609375 380.799804688 329.400390625 393.599609375 316.599609375 c 2
 489.599609375 220.599609375 l 2
 492.799804688 217.400390625 496 217.400390625 499.200195312 214.200195312 c 0
 502.400390625 211 508.799804688 211 512 211 c 0
 515.200195312 211 521.599609375 211 524.799804688 214.200195312 c 0
 528 214.200195312 531.200195312 217.400390625 534.400390625 220.599609375 c 2
 630.400390625 316.599609375 l 2
EndSplineSet
Validated: 524321
EndChar

StartChar: j
Encoding: 106 106 28
Width: 1024
VWidth: 0
Flags: H
LayerCount: 2
Fore
SplineSet
21.337890625 349.66015625 m 0
 9.5458984375 349.66015625 0.005859375 359.202148438 0.005859375 370.994140625 c 0
 0.005859375 382.786132812 9.5478515625 392.328125 21.33984375 392.328125 c 0
 58.671875 392.328125 78.712890625 378.370117188 94.796875 367.162109375 c 0
 108.838867188 357.392578125 119.942382812 349.662109375 143.880859375 349.662109375 c 0
 167.860351562 349.662109375 178.963867188 357.390625 193.026367188 367.182617188 c 0
 209.129882812 378.390625 229.171875 392.328125 266.525390625 392.328125 c 0
 303.899414062 392.328125 323.9609375 378.390625 340.086914062 367.182617188 c 0
 354.1484375 357.392578125 365.274414062 349.662109375 389.274414062 349.662109375 c 0
 413.251953125 349.662109375 424.377929688 357.390625 438.439453125 367.182617188 c 0
 454.563476562 378.390625 474.626953125 392.328125 512.000976562 392.328125 c 0
 523.79296875 392.328125 533.334960938 382.786132812 533.334960938 370.994140625 c 0
 533.334960938 359.202148438 523.79296875 349.66015625 512.000976562 349.66015625 c 0
 488.000976562 349.66015625 476.875 341.932617188 462.813476562 332.140625 c 0
 446.6875 320.932617188 426.625976562 306.995117188 389.272460938 306.995117188 c 0
 351.896484375 306.995117188 331.834960938 320.932617188 315.73046875 332.140625 c 0
 301.649414062 341.930664062 290.5234375 349.66015625 266.5234375 349.66015625 c 0
 242.563476562 349.66015625 231.459960938 341.930664062 217.397460938 332.161132812 c 0
 201.293945312 320.953125 181.232421875 306.995117188 143.87890625 306.995117188 c 0
 106.546875 306.995117188 86.5048828125 320.953125 70.4208984375 332.161132812 c 0
 56.3798828125 341.930664062 45.275390625 349.66015625 21.337890625 349.66015625 c 0
512.000976562 -34.3359375 m 0
 487.999023438 -34.3359375 476.875 -42.0634765625 462.815429688 -51.85546875 c 0
 446.689453125 -63.0634765625 426.627929688 -77.0009765625 389.274414062 -77.0009765625 c 0
 351.8984375 -77.0009765625 331.836914062 -63.0634765625 315.733398438 -51.85546875 c 0
 301.651367188 -42.0654296875 290.525390625 -34.3359375 266.525390625 -34.3359375 c 0
 242.565429688 -34.3359375 231.461914062 -42.0654296875 217.399414062 -51.8359375 c 0
 201.295898438 -63.04296875 181.234375 -77.0009765625 143.880859375 -77.0009765625 c 0
 106.548828125 -77.0009765625 86.5068359375 -63.04296875 70.4228515625 -51.8359375 c 0
 56.3818359375 -42.0654296875 45.27734375 -34.3359375 21.33984375 -34.3359375 c 0
 9.5478515625 -34.3359375 0.005859375 -24.7939453125 0.005859375 -13.001953125 c 0
 0.005859375 -1.2099609375 9.5478515625 8.33203125 21.33984375 8.33203125 c 0
 58.671875 8.33203125 78.712890625 -5.6259765625 94.796875 -16.833984375 c 0
 108.838867188 -26.603515625 119.942382812 -34.333984375 143.880859375 -34.333984375 c 0
 167.860351562 -34.333984375 178.963867188 -26.60546875 193.026367188 -16.8134765625 c 0
 209.129882812 -5.60546875 229.171875 8.33203125 266.525390625 8.33203125 c 0
 303.899414062 8.33203125 323.9609375 -5.60546875 340.086914062 -16.8134765625 c 0
 354.1484375 -26.603515625 365.274414062 -34.333984375 389.274414062 -34.333984375 c 0
 413.251953125 -34.333984375 424.377929688 -26.60546875 438.439453125 -16.8134765625 c 0
 454.563476562 -5.60546875 474.626953125 8.33203125 512.000976562 8.33203125 c 0
 523.79296875 8.33203125 533.334960938 -1.2099609375 533.334960938 -13.001953125 c 0
 533.334960938 -24.7939453125 523.79296875 -34.3359375 512.000976562 -34.3359375 c 0
21.337890625 93.6630859375 m 0
 9.5458984375 93.6630859375 0.00390625 103.205078125 0.00390625 114.997070312 c 0
 0.00390625 126.7890625 9.5458984375 136.331054688 21.337890625 136.331054688 c 0
 58.6689453125 136.331054688 78.7109375 122.373046875 94.794921875 111.165039062 c 0
 108.836914062 101.39453125 119.940429688 93.6650390625 143.87890625 93.6650390625 c 0
 155.670898438 93.6650390625 165.211914062 84.123046875 165.211914062 72.3310546875 c 0
 165.211914062 60.5390625 155.670898438 50.9970703125 143.87890625 50.9970703125 c 0
 106.546875 50.9970703125 86.5048828125 64.955078125 70.4208984375 76.1630859375 c 0
 56.3798828125 85.93359375 45.275390625 93.6630859375 21.337890625 93.6630859375 c 0
587.5 111.642578125 m 0
 603.186523438 101.600585938 615.603515625 93.6630859375 640.001953125 93.6630859375 c 0
 651.793945312 93.6630859375 661.3359375 84.12109375 661.3359375 72.3291015625 c 0
 661.3359375 60.537109375 651.793945312 50.9951171875 640.001953125 50.9951171875 c 0
 603.127929688 50.9951171875 582.606445312 64.12109375 564.502929688 75.68359375 c 0
 548.814453125 85.7255859375 536.3984375 93.6630859375 512.002929688 93.6630859375 c 0
 488.002929688 93.6630859375 476.876953125 85.935546875 462.815429688 76.1435546875 c 0
 446.689453125 64.935546875 426.627929688 50.9970703125 389.274414062 50.9970703125 c 0
 351.900390625 50.9970703125 331.838867188 64.935546875 315.712890625 76.1435546875 c 0
 301.651367188 85.93359375 290.525390625 93.6630859375 266.525390625 93.6630859375 c 0
 254.733398438 93.6630859375 245.19140625 103.205078125 245.19140625 114.997070312 c 0
 245.19140625 126.7890625 254.733398438 136.331054688 266.525390625 136.331054688 c 0
 303.901367188 136.331054688 323.962890625 122.392578125 340.06640625 111.184570312 c 0
 354.1484375 101.39453125 365.274414062 93.6650390625 389.274414062 93.6650390625 c 0
 413.251953125 93.6650390625 424.377929688 101.392578125 438.439453125 111.184570312 c 0
 454.563476562 122.392578125 474.626953125 136.331054688 512.000976562 136.331054688 c 0
 548.875 136.331054688 569.396484375 123.205078125 587.5 111.642578125 c 0
21.337890625 221.662109375 m 0
 9.5458984375 221.662109375 0.005859375 231.204101562 0.00390625 242.99609375 c 0
 0.00390625 254.787109375 9.5458984375 264.329101562 21.337890625 264.329101562 c 0
 58.6689453125 264.329101562 78.7109375 250.37109375 94.794921875 239.1640625 c 0
 108.836914062 229.393554688 119.940429688 221.6640625 143.87890625 221.6640625 c 0
 167.858398438 221.6640625 178.961914062 229.391601562 193.024414062 239.18359375 c 0
 209.127929688 250.391601562 229.169921875 264.329101562 266.5234375 264.329101562 c 0
 278.315429688 264.329101562 287.857421875 254.787109375 287.857421875 242.99609375 c 0
 287.857421875 231.204101562 278.315429688 221.662109375 266.5234375 221.662109375 c 0
 242.563476562 221.662109375 231.459960938 213.931640625 217.397460938 204.162109375 c 0
 201.293945312 192.954101562 181.232421875 178.99609375 143.87890625 178.99609375 c 0
 106.546875 178.99609375 86.5048828125 192.954101562 70.4208984375 204.162109375 c 0
 56.3798828125 213.931640625 45.275390625 221.662109375 21.337890625 221.662109375 c 0
757.184570312 221.662109375 m 0
 733.2265625 221.662109375 722.123046875 213.93359375 708.061523438 204.162109375 c 0
 691.95703125 192.954101562 671.895507812 178.99609375 634.541992188 178.99609375 c 0
 597.209960938 178.99609375 577.16796875 192.954101562 561.084960938 204.162109375 c 0
 547.04296875 213.931640625 535.938476562 221.662109375 512.000976562 221.662109375 c 0
 488.000976562 221.662109375 476.875 213.93359375 462.813476562 204.141601562 c 0
 446.6875 192.934570312 426.625976562 178.99609375 389.272460938 178.99609375 c 0
 377.48046875 178.99609375 367.938476562 188.538085938 367.938476562 200.330078125 c 0
 367.938476562 212.122070312 377.48046875 221.6640625 389.272460938 221.6640625 c 0
 413.25 221.6640625 424.375976562 229.391601562 438.4375 239.18359375 c 0
 454.561523438 250.391601562 474.625 264.329101562 511.999023438 264.329101562 c 0
 549.331054688 264.329101562 569.372070312 250.37109375 585.456054688 239.1640625 c 0
 599.498046875 229.393554688 610.6015625 221.6640625 634.540039062 221.6640625 c 0
 658.51953125 221.6640625 669.623046875 229.391601562 683.685546875 239.18359375 c 0
 699.7890625 250.391601562 719.831054688 264.329101562 757.184570312 264.329101562 c 0
 768.9765625 264.329101562 778.518554688 254.787109375 778.518554688 242.99609375 c 0
 778.518554688 231.204101562 768.9765625 221.662109375 757.184570312 221.662109375 c 0
654.311523438 813.467773438 m 0
 669.395507812 799.822265625 1023.99609375 475.721679688 1023.9921875 178.998046875 c 0
 1023.9921875 -32.7294921875 851.723632812 -204.998046875 639.99609375 -204.998046875 c 0
 569.162109375 -204.998046875 499.8515625 -185.4140625 439.498046875 -148.39453125 c 0
 432.51953125 -144.102539062 428.6015625 -136.20703125 429.435546875 -128.041015625 c 0
 430.267578125 -119.89453125 435.685546875 -112.936523438 443.393554688 -110.14453125 c 0
 462.393554688 -103.270507812 476.767578125 -94.0830078125 487.163085938 -86.875 c 0
 492.205078125 -83.291015625 497.559570312 -79.853515625 507.016601562 -77.5830078125 c 0
 508.663085938 -77.1875 510.331054688 -76.9990234375 511.997070312 -76.9990234375 c 0
 547.2890625 -76.9990234375 575.99609375 -48.2919921875 575.99609375 -13 c 0
 575.600585938 -6.26953125 578.162109375 2.2080078125 583.30859375 6.5419921875 c 0
 588.432617188 10.8740234375 595.120117188 14.5419921875 601.662109375 12.9580078125 c 0
 615.162109375 9.8115234375 627.349609375 8.33203125 639.99609375 8.33203125 c 0
 675.287109375 8.33203125 703.995117188 37.0400390625 703.995117188 72.3310546875 c 0
 703.995117188 91.767578125 695.245117188 105.850585938 687.891601562 114.247070312 c 0
 683.37109375 119.392578125 681.62109375 126.434570312 683.18359375 133.100585938 c 0
 684.725585938 139.7890625 689.391601562 145.331054688 695.725585938 147.9765625 c 0
 711.432617188 154.538085938 723.05859375 162.622070312 732.413085938 169.142578125 c 0
 736.516601562 172.05859375 742.0390625 175.974609375 752.205078125 178.412109375 c 0
 753.850585938 178.80859375 755.518554688 178.99609375 757.184570312 178.99609375 c 0
 792.4765625 178.99609375 821.18359375 207.704101562 821.18359375 242.99609375 c 0
 821.18359375 278.287109375 792.4765625 306.995117188 757.184570312 306.995117188 c 0
 706.435546875 306.995117188 678.1015625 287.265625 659.33203125 274.203125 c 0
 654.143554688 270.37109375 651.08203125 268.265625 647.956054688 266.745117188 c 0
 645.248046875 265.43359375 642.309570312 264.703125 639.290039062 264.599609375 c 2
 631.76953125 264.369140625 l 2
 628.333984375 264.327148438 625.103515625 264.973632812 622.103515625 266.369140625 c 0
 618.1875 268.201171875 614.833984375 270.513671875 611.604492188 272.889648438 c 0
 598.708007812 281.931640625 586.083984375 290.015625 569.354492188 296.53515625 c 0
 562.936523438 299.03515625 558.125 304.453125 556.416992188 311.119140625 c 0
 554.708984375 317.78515625 556.334960938 324.869140625 560.750976562 330.138671875 c 0
 567.708007812 338.409179688 576 352.22265625 576 370.9921875 c 0
 576 406.284179688 547.29296875 434.9921875 512.000976562 434.9921875 c 0
 461.251953125 434.9921875 432.875976562 415.26171875 414.10546875 402.200195312 c 0
 408.91796875 398.366210938 405.814453125 396.240234375 402.66796875 394.719726562 c 0
 399.938476562 393.40625 396.98046875 392.677734375 393.98046875 392.59375 c 2
 386.314453125 392.385742188 l 2
 382.8359375 392.553710938 379.732421875 392.969726562 376.751953125 394.366210938 c 0
 372.833984375 396.177734375 369.501953125 398.490234375 366.272460938 400.866210938 c 0
 358.584960938 406.284179688 350.876953125 411.116210938 342.188476562 415.950195312 c 0
 332.000976562 421.595703125 328.23046875 434.368164062 333.73046875 444.637695312 c 0
 440.458007812 644.51171875 618.166015625 806.65625 625.685546875 813.467773438 c 0
 633.811523438 820.84375 646.185546875 820.84375 654.311523438 813.467773438 c 0
EndSplineSet
Validated: 33
EndChar

StartChar: k
Encoding: 107 107 29
Width: 1024
VWidth: 0
Flags: HW
LayerCount: 2
Fore
SplineSet
428 465 m 0
 501 466 572 465 657 465 c 1
 510 259 369 59 227 -141 c 1
 220 -135 l 1
 251 -3 279 130 313 261 c 0
 323 301 310 304 278 303 c 0
 236 301 193 303 151 302 c 0
 129 301 125 310 130 329 c 0
 163 449 196 567 229 687 c 0
 234 705 244 710 262 710 c 0
 316 709 371 709 426 710 c 0
 449 710 455 704 448 681 c 0
 430 622 417 561 398 502 c 0
 387 468 399 464 428 465 c 0
759 608 m 0
 802 609 846 608 897 608 c 1
 809 484 724 365 639 245 c 1
 635 249 l 1
 654 328 671 407 691 486 c 0
 697 510 689 512 670 511 c 0
 645 510 619 512 594 511 c 0
 581 510 578 516 581 527 c 0
 601 599 621 669 641 741 c 0
 644 752 649 755 660 755 c 0
 693 755 725 754 758 755 c 0
 772 755 775 752 771 738 c 0
 760 702 753 665 741 630 c 0
 734 609 741 608 759 608 c 0
EndSplineSet
Validated: 33
EndChar

StartChar: l
Encoding: 108 108 30
Width: 1024
VWidth: 0
Flags: HW
LayerCount: 2
Fore
SplineSet
480 469.438476562 m 0
 444.173828125 469.374023438 409.799804688 483.586914062 384.490234375 508.935546875 c 0
 338.690429688 554.8125 331.896484375 626.729492188 368.27734375 680.374023438 c 2
 468.057617188 827.180664062 l 2
 470.748046875 831.135742188 475.219726562 833.502929688 480 833.502929688 c 0
 484.774414062 833.502929688 489.245117188 831.135742188 491.935546875 827.180664062 c 2
 591.715820312 680.374023438 l 2
 619.8515625 639.006835938 622.799804688 585.46484375 599.393554688 541.2578125 c 0
 575.974609375 497.044921875 530.025390625 469.40625 480 469.438476562 c 0
480 469.438476562 m 1024
480 374.219726562 m 0
 406.374023438 374.219726562 337.006835938 381.438476562 284.651367188 394.516601562 c 0
 224.658203125 409.509765625 194.251953125 430.361328125 194.251953125 456.483398438 c 0
 194.251953125 496.53515625 266.413085938 517.012695312 326.955078125 527.141601562 c 0
 334.8125 528.458007812 342.2578125 523.1484375 343.57421875 515.284179688 c 0
 344.883789062 507.413085938 339.57421875 499.98046875 331.715820312 498.6640625 c 0
 241.5546875 483.586914062 223.123046875 461.561523438 223.123046875 456.483398438 c 0
 223.123046875 452.116210938 235.696289062 436.516601562 291.651367188 422.529296875 c 0
 341.780273438 409.993164062 408.670898438 403.08984375 480 403.08984375 c 0
 551.322265625 403.08984375 618.212890625 409.993164062 668.341796875 422.529296875 c 0
 724.284179688 436.516601562 736.87109375 452.116210938 736.87109375 456.483398438 c 0
 736.87109375 463.290039062 714.703125 481.729492188 646.161132812 495.393554688 c 0
 641.096679688 496.38671875 636.948242188 500.01953125 635.27734375 504.91015625 c 0
 633.619140625 509.799804688 634.703125 515.212890625 638.109375 519.083984375 c 0
 641.522460938 522.967773438 646.7421875 524.735351562 651.8125 523.709960938 c 0
 727.413085938 508.638671875 765.7421875 486.025390625 765.7421875 456.477539062 c 0
 765.7421875 430.348632812 735.3359375 409.502929688 675.341796875 394.509765625 c 0
 622.987304688 381.42578125 553.619140625 374.219726562 480 374.219726562 c 0
480 374.219726562 m 1024
480 306.703125 m 0
 354.27734375 306.703125 235.890625 321.4453125 146.645507812 348.219726562 c 0
 50.7099609375 377.006835938 0 415.928710938 0 460.8125 c 0
 0 540.296875 158.645507812 587.4453125 307.109375 605.064453125 c 0
 314.942382812 605.844726562 321.9609375 600.212890625 322.883789062 592.400390625 c 0
 323.8125 584.59375 318.309570312 577.477539062 310.509765625 576.400390625 c 0
 226.051757812 566.380859375 154.193359375 549.290039062 102.709960938 526.98046875 c 0
 55.0966796875 506.354492188 28.876953125 482.8515625 28.876953125 460.819335938 c 0
 28.876953125 401.586914062 214.1484375 335.581054688 480.006835938 335.581054688 c 0
 745.8515625 335.581054688 931.12890625 401.57421875 931.12890625 460.819335938 c 0
 931.12890625 482.735351562 905.141601562 506.141601562 857.9609375 526.696289062 c 0
 806.916015625 548.916015625 735.606445312 566.01953125 651.735351562 576.135742188 c 0
 643.819335938 577.08984375 638.180664062 584.284179688 639.12890625 592.200195312 c 0
 640.08984375 600.109375 647.27734375 605.76171875 655.193359375 604.799804688 c 0
 802.541992188 587.044921875 960 539.896484375 960 460.819335938 c 0
 960 415.948242188 909.290039062 377.012695312 813.354492188 348.232421875 c 0
 724.103515625 321.4453125 605.715820312 306.703125 480 306.703125 c 0
480 306.703125 m 1024
EndSplineSet
EndChar

StartChar: s
Encoding: 115 115 31
Width: 1024
VWidth: 0
Flags: HW
LayerCount: 2
Fore
SplineSet
494.299804688 756.5 m 0
 738.299804688 759.400390625 937.5 563.299804688 937.400390625 318.099609375 c 0
 937.299804688 77.5 741.400390625 -118.400390625 501.799804688 -118.5 c 0
 257.700195312 -118.599609375 62.5 75.900390625 62.5 319.200195312 c 0
 61.400390625 556.5 253.700195312 753.700195312 494.299804688 756.5 c 0
500 -21.099609375 m 1
 697.299804688 -18.7998046875 844.400390625 143 839.299804688 328.700195312 c 0
 834.299804688 505.700195312 689.099609375 658.299804688 499.700195312 658.400390625 c 0
 316 658.5 159.5 511.099609375 160.299804688 317.200195312 c 0
 161.099609375 129.5 311.200195312 -19 500 -21.099609375 c 1
588.400390625 388.099609375 m 0
 610.400390625 329.900390625 631.900390625 271.5 653.799804688 213.099609375 c 0
 666.5 179 679.299804688 144.900390625 693 108.299804688 c 1
 687.799804688 110.599609375 685.099609375 111.599609375 682.400390625 112.900390625 c 0
 595.299804688 154.400390625 508.299804688 195.799804688 421.400390625 237.599609375 c 0
 417.299804688 239.599609375 413.400390625 244.5 411.700195312 249 c 0
 381.099609375 330.099609375 350.900390625 411.299804688 320.599609375 492.5 c 0
 316.200195312 504.299804688 311.900390625 516 307.099609375 528.900390625 c 1
 309.799804688 528.099609375 310.700195312 527.900390625 311.599609375 527.5 c 0
 400.799804688 485 489.900390625 442.5 578.900390625 399.700195312 c 0
 583 397.700195312 586.700195312 392.599609375 588.400390625 388.099609375 c 0
431.200195312 280.400390625 m 1
 469.099609375 315.099609375 506 348.799804688 544.200195312 383.799804688 c 1
 482.700195312 413.200195312 422.5 441.900390625 359.799804688 471.799804688 c 1
 384.200195312 406.5 407.400390625 344.200195312 431.200195312 280.400390625 c 1
EndSplineSet
EndChar

StartChar: t
Encoding: 116 116 32
Width: 1024
VWidth: 0
Flags: HW
LayerCount: 2
Fore
SplineSet
480.282226562 213.776367188 m 0
 540.709960938 136.564453125 571.34765625 65.5576171875 571.34765625 2.7255859375 c 0
 571.34765625 -111.814453125 478.162109375 -205 363.622070312 -205 c 0
 249.08203125 -205 155.896484375 -111.814453125 155.896484375 2.7255859375 c 0
 155.896484375 65.5576171875 186.540039062 136.561523438 246.963867188 213.776367188 c 0
 289.751953125 268.450195312 332.26171875 306.4296875 334.051757812 308.017578125 c 2
 363.625976562 334.303710938 l 1
 393.200195312 308.017578125 l 2
 394.990234375 306.427734375 437.5 268.450195312 480.282226562 213.776367188 c 0
734.463867188 604.772460938 m 2
 748.146484375 592.614257812 868.108398438 482.828125 868.103515625 373.66796875 c 0
 868.103515625 283.671875 794.885742188 210.454101562 704.889648438 210.454101562 c 0
 614.893554688 210.454101562 541.67578125 283.671875 541.67578125 373.66796875 c 0
 541.67578125 482.828125 661.637695312 592.614257812 675.31640625 604.772460938 c 2
 704.889648438 631.057617188 l 1
 734.463867188 604.772460938 l 2
393.202148438 792.713867188 m 2
 403.84375 783.25390625 497.166015625 697.797851562 497.166015625 611.068359375 c 0
 497.166015625 537.435546875 437.26171875 477.530273438 363.627929688 477.530273438 c 0
 289.9921875 477.530273438 230.08984375 537.431640625 230.08984375 611.068359375 c 0
 230.08984375 697.797851562 323.412109375 783.25390625 334.053710938 792.713867188 c 2
 363.627929688 819 l 1
 393.202148438 792.713867188 l 2
EndSplineSet
Validated: 524321
EndChar

StartChar: w
Encoding: 119 119 33
Width: 1024
VWidth: 0
Flags: H
LayerCount: 2
Fore
SplineSet
512 818.971679688 m 0
 793.900390625 818.971679688 1024 588.912109375 1024 306.969726562 c 0
 1024 293.751953125 1015.34765625 282.08984375 1002.69433594 278.2578125 c 0
 999.8203125 277.385742188 996.893554688 276.967773438 994.001953125 276.967773438 c 0
 984.158203125 276.967773438 974.706054688 281.828125 969.038085938 290.330078125 c 0
 947.805664062 322.1796875 911.904296875 341.194335938 873 341.194335938 c 0
 834.095703125 341.194335938 798.194335938 322.177734375 776.961914062 290.330078125 c 0
 771.3984375 281.982421875 762.030273438 276.969726562 752 276.969726562 c 0
 741.969726562 276.969726562 732.6015625 281.984375 727.038085938 290.330078125 c 0
 705.490234375 322.654296875 670.84765625 341.194335938 632 341.194335938 c 0
 596.038085938 341.194335938 563.704101562 325.282226562 542 297.280273438 c 1
 542 149.811523438 l 1
 576.91796875 137.427734375 602 104.08203125 602 64.9716796875 c 2
 602 12.076171875 l 2
 602 -101.549804688 515.692382812 -204.963867188 392.3515625 -204.971679688 c 0
 275.74609375 -204.973632812 182 -110.67578125 182 4.9736328125 c 0
 182 54.599609375 222.374023438 94.9736328125 272 94.9736328125 c 0
 321.625976562 94.9736328125 362 54.599609375 362 4.9736328125 c 0
 362 -11.568359375 375.458007812 -25.0263671875 392 -25.0263671875 c 0
 408.541992188 -25.0263671875 422 -11.568359375 422 4.9736328125 c 2
 422 64.9736328125 l 2
 422 104.083984375 447.08203125 137.4296875 482 149.814453125 c 1
 482 297.282226562 l 1
 460.295898438 325.284179688 427.961914062 341.196289062 392 341.196289062 c 0
 353.15234375 341.196289062 318.509765625 322.65625 296.961914062 290.33203125 c 0
 291.3984375 281.984375 282.030273438 276.971679688 272 276.971679688 c 0
 261.969726562 276.971679688 252.6015625 281.986328125 247.038085938 290.33203125 c 0
 225.805664062 322.181640625 189.904296875 341.196289062 151 341.196289062 c 0
 112.095703125 341.196289062 76.1943359375 322.1796875 54.9619140625 290.33203125 c 0
 47.6279296875 279.33203125 33.9599609375 274.431640625 21.3056640625 278.259765625 c 0
 8.654296875 282.08984375 0 293.751953125 0 306.971679688 c 0
 0 588.872070312 230.059570312 818.971679688 512 818.971679688 c 0
242.849609375 375.505859375 m 1
 248.07421875 495.811523438 280.272460938 636.017578125 354.75 730.73828125 c 1
 204.669921875 674.862304688 92.015625 541.4296875 65.7998046875 379.4140625 c 1
 91.40625 393.50390625 120.616210938 401.196289062 151 401.196289062 c 0
 184.059570312 401.196289062 215.700195312 392.051757812 242.849609375 375.505859375 c 1
392 401.196289062 m 0
 424.282226562 401.196289062 455.259765625 392.288085938 482 376.146484375 c 1
 482 754.438476562 l 1
 388.213867188 726.110351562 312.353515625 567.68359375 302.986328125 376.75 c 1
 329.5 392.513671875 360.114257812 401.196289062 392 401.196289062 c 0
542 12.076171875 m 2
 542 64.9716796875 l 2
 542 81.513671875 528.541992188 94.9716796875 512 94.9716796875 c 0
 495.458007812 94.9716796875 482 81.513671875 482 64.9716796875 c 2
 482 4.9716796875 l 2
 482 -44.654296875 441.625976562 -85.0283203125 392 -85.0283203125 c 0
 342.374023438 -85.0283203125 302 -44.654296875 302 4.9716796875 c 0
 302 21.513671875 288.541992188 34.9716796875 272 34.9716796875 c 0
 255.458007812 34.9716796875 242 21.513671875 242 4.9716796875 c 0
 242 -78.658203125 310.009765625 -144.811523438 392 -144.986328125 c 0
 480.162109375 -145.171875 542 -71.7099609375 542 12.076171875 c 2
632 401.196289062 m 0
 663.885742188 401.196289062 694.5 392.513671875 721.013671875 376.748046875 c 1
 711.646484375 567.68359375 635.786132812 726.110351562 542 754.438476562 c 1
 542 376.1484375 l 1
 568.740234375 392.288085938 599.717773438 401.196289062 632 401.196289062 c 0
873 401.196289062 m 0
 903.383789062 401.196289062 932.59375 393.50390625 958.200195312 379.4140625 c 1
 931.984375 541.4296875 819.330078125 674.862304688 669.25 730.73828125 c 1
 743.505859375 636.301757812 775.90234375 496.374023438 781.150390625 375.505859375 c 1
 808.299804688 392.053710938 839.940429688 401.196289062 873 401.196289062 c 0
EndSplineSet
Validated: 524321
EndChar

StartChar: zero
Encoding: 48 48 34
Width: 1024
VWidth: 0
Flags: HW
LayerCount: 2
Fore
SplineSet
123.879882812 532.2734375 m 1
 132.331054688 530.208984375 137.225585938 531.250976562 138.305664062 536.508789062 c 0
 140.3515625 546.39453125 147.291992188 552.598632812 153.439453125 559.491210938 c 1
 143.745117188 539.291015625 135.313476562 518.450195312 128.219726562 496.94921875 c 0
 126.852539062 495.467773438 125.141601562 494.569335938 122.455078125 494.741210938 c 0
 120.485351562 494.875 121.336914062 492.370117188 122.225585938 490.916992188 c 0
 125.877929688 484.903320312 125.227539062 483.297851562 118.497070312 481.643554688 c 0
 115.973632812 481.032226562 113.36328125 480.725585938 111.728515625 478.25 c 0
 108.249023438 472.97265625 105.572265625 482.284179688 101.671875 478.900390625 c 0
 100.90625 478.220703125 100.065429688 481.5859375 99.912109375 483.31640625 c 0
 99.8359375 484.0625 100.1796875 484.846679688 100.333007812 485.611328125 c 1
 106.260742188 483.536132812 106.346679688 489.893554688 109.415039062 491.7578125 c 0
 114.08984375 494.59765625 115.208984375 498.95703125 116.508789062 503.392578125 c 1
 116.537109375 503.354492188 116.56640625 503.31640625 116.594726562 503.288085938 c 0
 119.080078125 502.20703125 119.998046875 503.823242188 121.307617188 505.572265625 c 0
 127.598632812 513.9375 128.487304688 522.771484375 123.879882812 532.2734375 c 1
154.796875 561.001953125 m 0
 154.357421875 560.495117188 153.888671875 560.0078125 153.44921875 559.510742188 c 1
 156.5078125 565.88671875 159.7109375 572.197265625 163.038085938 578.439453125 c 1
 163.295898438 577.856445312 163.563476562 577.301757812 163.840820312 576.61328125 c 0
 162.397460938 570.533203125 158.745117188 565.619140625 154.796875 561.001953125 c 0
512 819 m 0
 794.309570312 819 1024 589.319335938 1024 306.990234375 c 0
 1024 24.662109375 794.309570312 -205.009765625 512 -205.009765625 c 0
 229.680664062 -205.009765625 0 24.671875 0 306.990234375 c 0
 0 589.319335938 229.680664062 819 512 819 c 0
115.782226562 53.1513671875 m 0
 113.678710938 53.3515625 113.0859375 51.1142578125 113.612304688 49.65234375 c 0
 114.586914062 46.9462890625 115.333007812 43.4765625 118.7265625 42.9697265625 c 0
 120.916015625 42.654296875 121.26953125 45.0439453125 121.35546875 47.1376953125 c 0
 120.638671875 50.0537109375 119.28125 52.81640625 115.782226562 53.1513671875 c 0
157.645507812 25.2548828125 m 0
 160.791015625 27.8935546875 160.733398438 31.564453125 159.146484375 35.1689453125 c 0
 154.271484375 46.162109375 148.162109375 56.009765625 135.571289062 59.4033203125 c 1
 133.009765625 46 137.321289062 34.9296875 148.401367188 26.5263671875 c 0
 151.202148438 24.39453125 154.423828125 22.548828125 157.645507812 25.2548828125 c 0
512 -197.830078125 m 0
 790.370117188 -197.830078125 1016.83984375 28.6103515625 1016.83984375 307 c 0
 1016.83984375 585.370117188 790.370117188 811.830078125 512.009765625 811.830078125 c 0
 484.696289062 811.830078125 457.899414062 809.57421875 431.752929688 805.376953125 c 0
 352.241210938 786.83984375 281.956054688 740.224609375 220.923828125 665.522460938 c 0
 213.247070312 656.125 206.05859375 646.498046875 199.108398438 636.737304688 c 0
 198.008789062 636.861328125 196.899414062 637.0234375 195.8671875 636.861328125 c 0
 194.5859375 636.14453125 193.458007812 635.264648438 193.381835938 633.649414062 c 0
 193.11328125 627.721679688 188.897460938 626.966796875 184.337890625 626.6796875 c 0
 181.622070312 625.494140625 180.130859375 623.849609375 179.873046875 620.427734375 c 0
 179.51953125 615.819335938 174.118164062 612.40625 169.337890625 612.836914062 c 0
 169.17578125 612.59765625 169.012695312 612.33984375 168.840820312 612.090820312 c 0
 168.936523438 605.3515625 166.096679688 598.840820312 167.693359375 592.024414062 c 0
 168.458007812 591.87109375 169.375976562 591.69921875 170.188476562 591.537109375 c 1
 167.731445312 587.215820312 165.370117188 582.836914062 163.038085938 578.44921875 c 1
 160.150390625 584.768554688 157.63671875 585.131835938 150.006835938 581.25 c 0
 148.23828125 580.361328125 146.575195312 579.337890625 145.055664062 578.06640625 c 0
 142.866210938 576.221679688 140.37109375 575.379882812 137.493164062 576.18359375 c 0
 129.213867188 570.122070312 122.407226562 562.311523438 116.125976562 554.55859375 c 0
 110.6484375 547.80859375 105.495117188 540.706054688 99.8076171875 534.013671875 c 0
 93.9375 527.092773438 87.685546875 520.380859375 83.57421875 512.12109375 c 0
 81.681640625 508.326171875 78.220703125 505.897460938 75.390625 502.551757812 c 1
 73.296875 505.400390625 72.7900390625 508.9375 70.66796875 511.30859375 c 1
 72.5517578125 511.098632812 73.669921875 512.331054688 73.7373046875 514.875 c 0
 73.8134765625 517.580078125 74.5205078125 519.416015625 77.3125 520.02734375 c 0
 80.046875 525.75390625 81.8818359375 531.815429688 85.2373046875 537.302734375 c 0
 90.1611328125 545.361328125 95.3330078125 553.249023438 100.466796875 561.1640625 c 1
 97.474609375 558.956054688 94.224609375 557.512695312 90.8779296875 556.508789062 c 0
 81.65234375 541.795898438 73.1630859375 526.633789062 65.677734375 510.849609375 c 0
 63.4404296875 506.1171875 62.388671875 500.801757812 58.8515625 496.701171875 c 0
 56.7392578125 492.771484375 55.1142578125 488.651367188 54.052734375 484.3203125 c 1
 54.052734375 484.3203125 l 1
 44.9609375 463.26953125 37.876953125 441.663085938 32.2177734375 419.331054688 c 0
 23.173828125 383.671875 17.7529296875 347.639648438 15.984375 311.043945312 c 0
 14.091796875 271.923828125 18.5087890625 233.330078125 25.8505859375 195.032226562 c 0
 27.1220703125 193.158203125 28.3740234375 191.275390625 29.607421875 189.373046875 c 1
 29.0146484375 196.552734375 27.7626953125 203.684570312 27.513671875 210.892578125 c 0
 27.45703125 212.451171875 26.4814453125 214.209960938 28.689453125 214.916992188 c 0
 29.80859375 215.26171875 30.6591796875 214.32421875 30.802734375 213.291992188 c 0
 32.0546875 204.142578125 38.986328125 197.327148438 40.9169921875 188.46484375 c 0
 41.6533203125 185.586914062 42.322265625 182.670898438 43.154296875 179.8125 c 0
 44.59765625 174.889648438 45.353515625 169.564453125 50.4775390625 166.676757812 c 0
 50.505859375 165.90234375 50.5341796875 165.119140625 50.5537109375 164.334960938 c 0
 50.984375 161.581054688 48.2685546875 158.20703125 52.064453125 156.189453125 c 0
 56.3857421875 153.895507812 58.775390625 150.013671875 61.0224609375 145.94140625 c 0
 63.6318359375 141.21875 67.474609375 138.84765625 72.9814453125 140.338867188 c 0
 76.2802734375 141.228515625 77.9716796875 140.147460938 79.5205078125 136.993164062 c 0
 82.0732421875 131.783203125 85.1708984375 126.92578125 84.8076171875 120.75 c 0
 84.7021484375 119.01953125 85.7060546875 116.849609375 88.0390625 117.298828125 c 0
 90.3525390625 117.767578125 90.0947265625 119.966796875 89.845703125 121.763671875 c 0
 89.68359375 122.939453125 89.21484375 124.077148438 89.0048828125 125.272460938 c 0
 88.583984375 127.604492188 90.046875 128.484375 91.7958984375 127.604492188 c 0
 96.3466796875 125.348632812 101.7578125 124.192382812 103.908203125 118.551757812 c 0
 105.782226562 113.599609375 109.147460938 110.052734375 114.520507812 108.799804688 c 0
 117.84765625 107.251953125 119.634765625 104.278320312 120.75390625 101.084960938 c 0
 122.72265625 95.42578125 124.98828125 89.9189453125 127.770507812 84.6328125 c 0
 125.504882812 76.9267578125 128.249023438 73.1318359375 135.303710938 69.8720703125 c 0
 141.469726562 67.0517578125 149.720703125 66.2294921875 151.499023438 57.080078125 c 0
 151.747070312 55.798828125 152.493164062 54.8818359375 153.401367188 54.173828125 c 0
 171.431640625 16.583984375 193.869140625 -18.779296875 220.9140625 -51.828125 c 0
 281.764648438 -126.176757812 351.811523438 -172.658203125 431.03515625 -191.252929688 c 0
 457.412109375 -195.526367188 484.438476562 -197.830078125 512 -197.830078125 c 0
EndSplineSet
Validated: 524321
EndChar

StartChar: one
Encoding: 49 49 35
Width: 1024
VWidth: 0
Flags: HW
LayerCount: 2
Fore
SplineSet
256.600585938 -205 m 1
 354.453125 -205 438.302734375 -154.985351562 508.149414062 -54.9755859375 c 0
 578.004882812 45.072265625 612.909179688 165.727539062 612.909179688 306.990234375 c 0
 612.909179688 447.884765625 578.004882812 568.407226562 508.149414062 668.672851562 c 0
 438.302734375 768.881835938 354.444335938 819 256.600585938 819 c 1
 396.29296875 819 516.342773438 768.881835938 616.75 668.663085938 c 0
 717.186523438 568.407226562 767.399414062 447.875 767.399414062 306.990234375 c 0
 767.399414062 165.727539062 717.186523438 45.072265625 616.75 -54.95703125 c 0
 516.342773438 -154.9765625 396.29296875 -205 256.600585938 -205 c 1
EndSplineSet
Validated: 524289
EndChar

StartChar: two
Encoding: 50 50 36
Width: 1024
VWidth: 0
Flags: HW
LayerCount: 2
Fore
SplineSet
256.2890625 -205 m 1
 256.2890625 819 l 1
 396.377929688 819 516.626953125 768.881835938 617.0625 668.663085938 c 0
 717.479492188 568.407226562 767.702148438 447.875 767.702148438 306.990234375 c 0
 767.702148438 165.727539062 717.479492188 45.072265625 617.0625 -54.95703125 c 0
 516.635742188 -154.9765625 396.387695312 -205 256.2890625 -205 c 1
EndSplineSet
Validated: 524289
EndChar

StartChar: three
Encoding: 51 51 37
Width: 1024
VWidth: 0
Flags: HW
LayerCount: 2
Fore
SplineSet
433.8515625 -205 m 0
 335.59375 -205 251.650390625 -155.004882812 182.012695312 -54.9677734375 c 0
 112.356445312 45.0703125 77.5283203125 165.705078125 77.5283203125 306.995117188 c 0
 77.5283203125 447.869140625 112.366210938 568.418945312 182.012695312 668.63671875 c 0
 251.659179688 768.872070312 335.602539062 819 433.8515625 819 c 0
 574.744140625 819 695.3984375 768.872070312 795.805664062 668.63671875 c 0
 896.23046875 568.418945312 946.461914062 447.869140625 946.461914062 306.995117188 c 0
 946.461914062 165.705078125 896.23046875 45.0703125 795.805664062 -54.9580078125 c 0
 695.3984375 -154.995117188 574.744140625 -205 433.8515625 -205 c 0
EndSplineSet
Validated: 524289
EndChar

StartChar: four
Encoding: 52 52 38
Width: 1024
VWidth: 0
Flags: HW
LayerCount: 2
Fore
SplineSet
1023.33789062 333.3046875 m 0
 1023.7734375 324.58984375 1024 315.818359375 1024 307 c 0
 1024 298.181640625 1023.78222656 289.41015625 1023.33789062 280.6953125 c 0
 1009.60449219 10.544921875 785.504882812 -205 512 -205 c 0
 256.151367188 -205 43.5263671875 -16.365234375 5.9072265625 229.133789062 c 0
 2.0224609375 254.522460938 0 280.534179688 0 307 c 0
 0 333.465820312 2.0224609375 359.46875 5.9072265625 384.866210938 c 0
 43.5263671875 630.365234375 256.151367188 819 512 819 c 0
 785.504882812 819 1009.59472656 603.4453125 1023.33789062 333.3046875 c 0
90.03125 534.681640625 m 0
 94.908203125 542.640625 100.021484375 550.447265625 105.087890625 558.264648438 c 1
 102.110351562 556.081054688 98.90625 554.64453125 95.5986328125 553.65234375 c 0
 86.4765625 539.114257812 78.07421875 524.114257812 70.6728515625 508.518554688 c 0
 68.4609375 503.83984375 67.421875 498.59375 63.93359375 494.529296875 c 0
 61.826171875 490.654296875 60.21875 486.5703125 59.1796875 482.2890625 c 2
 59.1796875 482.2890625 59.1796875 482.297851562 59.169921875 482.297851562 c 0
 50.1806640625 461.484375 43.1865234375 440.123046875 37.5908203125 418.04296875 c 0
 28.6591796875 382.787109375 23.2900390625 347.162109375 21.541015625 310.979492188 c 0
 19.669921875 272.310546875 24.037109375 234.143554688 31.2958984375 196.278320312 c 0
 32.552734375 194.435546875 33.791015625 192.573242188 35.0107421875 190.692382812 c 1
 34.43359375 197.78125 33.1953125 204.833007812 32.9404296875 211.958984375 c 0
 32.8837890625 213.509765625 31.9287109375 215.239257812 34.103515625 215.938476562 c 0
 35.21875 216.279296875 36.0595703125 215.352539062 36.201171875 214.340820312 c 0
 37.44921875 205.295898438 31.1162109375 422.788085938 88.38671875 509.793945312 c 1
 86.5244140625 506.032226562 83.1123046875 503.640625 80.3046875 500.323242188 c 1
 78.234375 503.139648438 77.7333984375 506.637695312 75.6357421875 508.981445312 c 1
 77.498046875 508.7734375 78.603515625 509.993164062 78.669921875 512.506835938 c 0
 78.7451171875 515.172851562 79.435546875 516.997070312 82.205078125 517.6015625 c 0
 84.8984375 523.25390625 86.7041015625 529.255859375 90.03125 534.681640625 c 0
EndSplineSet
Validated: 524325
EndChar

StartChar: five
Encoding: 53 53 39
Width: 1024
VWidth: 0
Flags: HW
LayerCount: 2
Fore
SplineSet
623.87890625 -205 m 0
 483.004882812 -205 362.455078125 -154.986328125 262.228515625 -54.9677734375 c 0
 161.982421875 45.0703125 111.864257812 165.724609375 111.864257812 306.995117188 c 0
 111.864257812 447.877929688 161.97265625 568.409179688 262.21875 668.655273438 c 0
 362.455078125 768.86328125 482.995117188 819 623.87890625 819 c 0
 702.797851562 819 770.571289062 768.86328125 827.19921875 668.655273438 c 0
 883.807617188 568.409179688 912.135742188 447.877929688 912.135742188 306.995117188 c 0
 912.135742188 165.724609375 883.826171875 45.0703125 827.1796875 -54.9580078125 c 0
 770.561523438 -154.9765625 702.779296875 -205 623.87890625 -205 c 0
EndSplineSet
Validated: 524289
EndChar

StartChar: seven
Encoding: 55 55 40
Width: 1024
VWidth: 0
Flags: HW
LayerCount: 2
Fore
SplineSet
768.583984375 -205 m 1
 627.303710938 -205 506.459960938 -155.004882812 406.053710938 -54.9765625 c 0
 305.609375 45.0703125 255.40625 165.724609375 255.40625 306.995117188 c 0
 255.40625 447.869140625 305.609375 568.409179688 406.043945312 668.655273438 c 0
 506.451171875 768.872070312 627.313476562 819 768.575195312 819 c 1
 712.534179688 819 664.298828125 768.872070312 623.850585938 668.655273438 c 0
 583.411132812 568.400390625 563.201171875 447.859375 563.201171875 306.995117188 c 0
 563.201171875 165.724609375 583.420898438 45.0703125 623.859375 -54.9580078125 c 0
 664.307617188 -154.995117188 712.5625 -205 768.583984375 -205 c 1
EndSplineSet
Validated: 524289
EndChar

StartChar: six
Encoding: 54 54 41
Width: 1024
VWidth: 0
Flags: HW
LayerCount: 2
Fore
SplineSet
768.291015625 -205 m 1
 627.436523438 -205 506.782226562 -154.986328125 406.356445312 -54.9677734375 c 0
 305.921875 45.0703125 255.69921875 165.724609375 255.69921875 306.995117188 c 0
 255.69921875 447.877929688 305.912109375 568.409179688 406.346679688 668.655273438 c 0
 506.782226562 768.86328125 627.436523438 819 768.291015625 819 c 1
 768.291015625 -205 l 1
EndSplineSet
Validated: 524289
EndChar

StartChar: S
Encoding: 83 83 42
Width: 1024
VWidth: 0
Flags: HW
LayerCount: 2
Fore
SplineSet
821.842773438 672.560546875 m 2
 821.842773438 672.899414062 l 2
 821.868164062 672.821289062 821.874023438 672.66015625 821.842773438 672.560546875 c 2
823.072265625 275.288085938 m 0
 759.383789062 173.211914062 682.591796875 138.0703125 662.149414062 40.3798828125 c 0
 649.663085938 -19.2314453125 661.513671875 -85.1826171875 697.33984375 -155.6484375 c 0
 710.744140625 -181.9921875 686.227539062 -211.641601562 657.994140625 -203.685546875 c 0
 506.081054688 -161.263671875 379.33984375 -75.71484375 364.584960938 81.2158203125 c 0
 362.327148438 105.217773438 385.727539062 123.336914062 408.399414062 115.141601562 c 0
 444.77734375 101.991210938 495.061523438 97.3525390625 542.955078125 109.578125 c 0
 560.942382812 114.169921875 572.841796875 132.002929688 568.782226562 150.118164062 c 0
 564.55859375 168.955078125 545.607421875 180.392578125 527.09765625 175.547851562 c 0
 501.9765625 168.982421875 474.803710938 167.969726562 442.856445312 175.412109375 c 0
 432.560546875 177.8125 413.682617188 185.473632812 387.946289062 198.8359375 c 0
 376.352539062 204.856445312 369.462890625 217.208984375 370.400390625 230.23828125 c 0
 372.250976562 256.009765625 373.192382812 282.25 371.088867188 309.255859375 c 0
 369.357421875 331.467773438 389.799804688 349.706054688 413.139648438 343.301757812 c 0
 518.2109375 314.461914062 623.611328125 321.387695312 722.598632812 371.044921875 c 0
 739.897460938 379.721679688 746.54296875 401.1875 736.825195312 418.219726562 c 0
 727.876953125 433.8984375 707.772460938 439.466796875 691.623046875 431.3984375 c 0
 570.543945312 370.919921875 434.80078125 389.171875 328.869140625 452.341796875 c 0
 324.75390625 454.793945312 321.345703125 458.247070312 318.716796875 462.251953125 c 0
 288.018554688 509.021484375 244.48828125 550.815429688 188.647460938 587.002929688 c 0
 156.3203125 608.026367188 126.533203125 633.151367188 126.533203125 672.7109375 c 0
 126.533203125 866.609375 882.455078125 868.018554688 889.661132812 675.381835938 c 1
 910.985351562 514.90234375 888.598632812 380.30859375 823.072265625 275.288085938 c 0
743.533203125 719.876953125 m 0
 614.334960938 761.626953125 401.8046875 761.596679688 272.69921875 719.876953125 c 0
 207.66015625 698.868164062 194.369140625 677.330078125 194.369140625 672.708984375 c 0
 194.369140625 668.087890625 207.66015625 646.548828125 272.69921875 625.541015625 c 0
 383.162109375 589.845703125 544.186523438 586.735351562 660.79296875 606.037109375 c 0
 676.712890625 608.6875 678.0703125 631.243164062 662.551757812 635.715820312 c 0
 618.716796875 646.69140625 597.619140625 651.98046875 528.48828125 653.629882812 c 0
 481.553710938 654.774414062 434.110351562 650.704101562 387.451171875 641.545898438 c 0
 369.071289062 637.942382812 351.2421875 649.919921875 347.638671875 668.299804688 c 0
 344.03515625 686.678710938 356.012695312 704.5078125 374.391601562 708.111328125 c 0
 469.963867188 726.887695312 586.650390625 727.987304688 680.677734375 701.073242188 c 0
 717.267578125 690.600585938 755.255859375 675.146484375 791.506835938 654.922851562 c 0
 796.828125 651.955078125 803.420898438 652.505859375 808.232421875 656.2578125 c 0
 814.846679688 661.41015625 821.842773438 668.06640625 821.842773438 672.560546875 c 0
 823.716796875 677.25 805.349609375 699.911132812 743.533203125 719.876953125 c 0
EndSplineSet
EndChar

StartChar: R
Encoding: 82 82 43
Width: 1024
VWidth: 0
Flags: HW
LayerCount: 2
Fore
SplineSet
937.5 609.299804688 m 1
 862.099609375 636.200195312 791.099609375 654.5 716 636 c 0
 704 633 691.400390625 630.200195312 687.299804688 617.099609375 c 0
 683.299804688 604.200195312 694.099609375 597.200195312 702.5 590.799804688 c 0
 877.200195312 457.900390625 890.200195312 206.900390625 710.599609375 46.599609375 c 0
 575.299804688 -74.2001953125 415.299804688 -121.200195312 235 -77.599609375 c 0
 169 -61.599609375 113.400390625 -25.900390625 62.5 28.7001953125 c 1
 100.599609375 16.2001953125 134.099609375 5.7001953125 169 -0.2001953125 c 0
 206.799804688 -6.599609375 243.700195312 -5.400390625 280.799804688 2.599609375 c 0
 294.200195312 5.5 308.700195312 8.2001953125 311.599609375 23.400390625 c 0
 314.299804688 37.400390625 301.099609375 44.099609375 291.799804688 51.400390625 c 0
 226.5 103 184.799804688 169.099609375 167.400390625 250.700195312 c 0
 145.5 353.299804688 171.400390625 445.700195312 230.799804688 529.099609375 c 0
 342.900390625 686.5 579.299804688 768.799804688 765.5 716.099609375 c 0
 830.700195312 697.599609375 887.700195312 664.400390625 937.5 609.299804688 c 1
499.200195312 467.299804688 m 0
 420.900390625 467.200195312 352.799804688 399.799804688 351.400390625 321.099609375 c 0
 350 242.099609375 420 171.400390625 499.400390625 171.5 c 0
 577.700195312 171.599609375 645.799804688 239 647.200195312 317.700195312 c 0
 648.599609375 396.700195312 578.700195312 467.400390625 499.200195312 467.299804688 c 0
EndSplineSet
Validated: 524321
EndChar

StartChar: P
Encoding: 80 80 44
Width: 1024
VWidth: 0
Flags: HW
LayerCount: 2
Fore
SplineSet
681.930664062 597.203125 m 0
 681.930664062 577.696289062 666.115234375 561.881835938 646.608398438 561.881835938 c 2
 35.3212890625 561.881835938 l 2
 15.814453125 561.881835938 0 577.696289062 0 597.203125 c 0
 0 616.709960938 15.814453125 632.525390625 35.3212890625 632.525390625 c 2
 646.608398438 632.525390625 l 2
 666.115234375 632.525390625 681.930664062 616.709960938 681.930664062 597.203125 c 0
988.678710938 487.422851562 m 2
 1008.18554688 487.422851562 1024 471.608398438 1024 452.1015625 c 0
 1024 432.594726562 1008.18554688 416.780273438 988.678710938 416.780273438 c 2
 276.130859375 416.780273438 l 2
 256.624023438 416.780273438 240.809570312 432.594726562 240.809570312 452.1015625 c 0
 240.809570312 471.608398438 256.624023438 487.422851562 276.130859375 487.422851562 c 2
 988.678710938 487.422851562 l 2
821.959960938 271.682617188 m 2
 105.7109375 271.682617188 l 2
 86.2041015625 271.682617188 70.388671875 287.498046875 70.388671875 307.004882812 c 0
 70.388671875 326.51171875 86.2041015625 342.326171875 105.7109375 342.326171875 c 2
 821.959960938 342.326171875 l 2
 841.466796875 342.326171875 857.28125 326.51171875 857.28125 307.004882812 c 0
 857.28125 287.498046875 841.466796875 271.682617188 821.959960938 271.682617188 c 2
939.279296875 197.224609375 m 2
 958.787109375 197.224609375 974.6015625 181.41015625 974.6015625 161.903320312 c 0
 974.6015625 142.396484375 958.787109375 126.581054688 939.279296875 126.581054688 c 2
 224.264648438 126.581054688 l 2
 204.7578125 126.581054688 188.943359375 142.396484375 188.943359375 161.903320312 c 0
 188.943359375 181.41015625 204.7578125 197.224609375 224.264648438 197.224609375 c 2
 939.279296875 197.224609375 l 2
592.26953125 52.1181640625 m 2
 611.776367188 52.1181640625 627.591796875 36.3037109375 627.586914062 16.796875 c 0
 627.586914062 -2.7099609375 611.772460938 -18.525390625 592.264648438 -18.525390625 c 2
 118.059570312 -18.525390625 l 2
 98.552734375 -18.525390625 82.7373046875 -2.7099609375 82.7373046875 16.796875 c 0
 82.7373046875 36.3037109375 98.552734375 52.1181640625 118.059570312 52.1181640625 c 2
 592.26953125 52.1181640625 l 2
EndSplineSet
Validated: 524321
EndChar

StartChar: O
Encoding: 79 79 45
Width: 1024
VWidth: 0
Flags: HW
LayerCount: 2
Fore
SplineSet
461.859375 -130.231445312 m 1
 479.81640625 -130.231445312 494.436523438 -146.420898438 494.436523438 -166.33984375 c 0
 494.436523438 -186.258789062 479.9140625 -202.44921875 461.859375 -202.44921875 c 2
 370.116210938 -202.44921875 l 2
 352.159179688 -202.44921875 337.5390625 -186.258789062 337.5390625 -166.33984375 c 0
 337.5390625 -146.420898438 352.061523438 -130.231445312 370.116210938 -130.231445312 c 2
 461.859375 -130.231445312 l 1
 461.859375 -130.231445312 l 1
140.314453125 152.360351562 m 1
 155.62109375 139.604492188 157.583984375 116.83984375 144.828125 101.533203125 c 0
 132.072265625 86.2255859375 109.307617188 84.263671875 94.0009765625 97.01953125 c 0
 77.5166015625 110.755859375 63.0927734375 126.357421875 50.8271484375 143.333007812 c 0
 18.0546875 188.56640625 0.392578125 243.7109375 0 298.659179688 c 0
 -0.392578125 354.196289062 16.876953125 409.439453125 54.1630859375 454.182617188 c 0
 66.232421875 468.705078125 80.4599609375 482.049804688 96.748046875 493.82421875 c 0
 115.685546875 507.561523438 137.37109375 519.139648438 161.901367188 528.657226562 c 0
 178.778320312 535.231445312 196.83203125 540.7265625 215.868164062 545.141601562 c 0
 237.455078125 630.900390625 283.474609375 696.936523438 342.641601562 742.759765625 c 0
 397.982421875 785.638671875 464.607421875 810.659179688 533.194335938 817.233398438 c 0
 601.487304688 823.807617188 671.7421875 812.229492188 734.834960938 781.91015625 c 0
 803.716796875 748.842773438 863.766601562 693.796875 902.721679688 616.377929688 c 0
 918.420898438 618.831054688 934.120117188 620.107421875 949.721679688 619.911132812 c 0
 1015.65917969 619.419921875 1079.2421875 595.87109375 1129.28515625 541.903320312 c 0
 1139.78417969 530.620117188 1149.69433594 517.864257812 1158.91796875 503.63671875 c 0
 1190.31640625 455.360351562 1206.40820312 390.89453125 1205.72167969 327.801757812 c 0
 1205.03515625 265.88671875 1188.35449219 204.266601562 1154.20800781 158.8359375 c 0
 1142.23730469 142.940429688 1119.66894531 139.702148438 1103.7734375 151.672851562 c 0
 1087.87695312 163.643554688 1084.63964844 186.211914062 1096.61035156 202.107421875 c 0
 1121.140625 234.782226562 1133.20996094 280.998046875 1133.70019531 328.390625 c 0
 1134.2890625 378.138671875 1122.12207031 428.08203125 1098.47460938 464.387695312 c 0
 1091.70410156 474.88671875 1084.24707031 484.306640625 1076.39746094 492.745117188 c 0
 1040.97460938 530.9140625 996.03515625 547.594726562 949.329101562 547.889648438 c 0
 915.37890625 548.0859375 880.447265625 539.94140625 847.184570312 525.22265625 c 0
 839.825195312 521.592773438 832.465820312 517.66796875 825.107421875 513.350585938 c 0
 803.029296875 500.3984375 781.24609375 484.600585938 758.97265625 466.448242188 c 2
 711.481445312 520.807617188 l 2
 727.868164062 536.016601562 745.627929688 549.8515625 764.467773438 562.1171875 c 0
 779.48046875 571.928710938 795.1796875 580.563476562 811.271484375 588.119140625 c 0
 817.748046875 591.357421875 824.322265625 594.399414062 830.896484375 597.244140625 c 1
 799.595703125 652.68359375 754.557617188 692.422851562 703.534179688 716.953125 c 0
 652.510742188 741.385742188 595.403320312 750.805664062 539.768554688 745.408203125 c 0
 484.525390625 740.110351562 430.853515625 719.995117188 386.501953125 685.5546875 c 0
 335.184570312 645.716796875 296.229492188 586.352539062 281.217773438 507.561523438 c 2
 276.5078125 482.932617188 l 1
 251.9765625 478.615234375 l 2
 227.9375 474.395507812 206.448242188 468.606445312 187.609375 461.248046875 c 0
 169.358398438 454.182617188 153.0703125 445.450195312 138.842773438 435.147460938 c 0
 127.459960938 426.905273438 117.6484375 417.681640625 109.307617188 407.672851562 c 0
 83.501953125 376.764648438 71.53125 338.006835938 71.8251953125 298.7578125 c 0
 72.119140625 258.919921875 85.0712890625 218.690429688 109.013671875 185.623046875 c 0
 118.138671875 173.456054688 128.540039062 162.171875 140.314453125 152.360351562 c 1
 140.314453125 152.360351562 l 1
316.639648438 112.228515625 m 1
 302.01953125 112.228515625 290.244140625 128.41796875 290.244140625 148.336914062 c 0
 290.244140625 168.255859375 302.01953125 184.4453125 316.639648438 184.4453125 c 2
 969.73828125 184.4453125 l 2
 984.358398438 184.4453125 996.133789062 168.255859375 996.133789062 148.336914062 c 0
 996.133789062 128.41796875 984.358398438 112.228515625 969.73828125 112.228515625 c 2
 316.639648438 112.228515625 l 1
 316.639648438 112.228515625 l 1
199.97265625 -39.958984375 m 1
 182.015625 -39.958984375 167.395507812 -23.7685546875 167.395507812 -3.8505859375 c 0
 167.395507812 16.068359375 181.91796875 32.2587890625 199.97265625 32.2587890625 c 2
 715.30859375 32.2587890625 l 2
 733.264648438 32.2587890625 747.884765625 16.068359375 747.884765625 -3.8505859375 c 0
 747.884765625 -23.7685546875 733.36328125 -39.958984375 715.30859375 -39.958984375 c 2
 199.97265625 -39.958984375 l 1
 199.97265625 -39.958984375 l 1
877.209960938 -39.958984375 m 1
 859.252929688 -39.958984375 844.6328125 -23.7685546875 844.6328125 -3.8505859375 c 0
 844.6328125 16.068359375 859.155273438 32.2587890625 877.209960938 32.2587890625 c 2
 993.189453125 32.2587890625 l 2
 1011.14648438 32.2587890625 1025.76660156 16.068359375 1025.76660156 -3.8505859375 c 0
 1025.76660156 -23.7685546875 1011.24414062 -39.958984375 993.189453125 -39.958984375 c 2
 877.209960938 -39.958984375 l 1
 877.209960938 -39.958984375 l 1
1072.17773438 -133.076171875 m 1
 1090.03613281 -133.174804688 1104.55761719 -149.365234375 1104.45996094 -169.185546875 c 0
 1104.36230469 -189.104492188 1089.83984375 -205.09765625 1071.88378906 -205.09765625 c 2
 611.004882812 -202.44921875 l 2
 593.146484375 -202.350585938 578.625 -186.16015625 578.72265625 -166.33984375 c 0
 578.821289062 -146.420898438 593.342773438 -130.427734375 611.299804688 -130.427734375 c 2
 1072.17773438 -133.076171875 l 1
 1072.17773438 -133.076171875 l 1
EndSplineSet
EndChar

StartChar: L
Encoding: 76 76 46
Width: 1024
VWidth: 0
Flags: HW
LayerCount: 2
Fore
SplineSet
186.799804688 793.799804688 m 0
 207.599609375 785.200195312 217.400390625 761.400390625 208.799804688 740.400390625 c 2
 158.200195312 618.200195312 l 2
 149.599609375 597.400390625 125.599609375 587.599609375 104.799804688 596.200195312 c 0
 84 604.799804688 74.2001953125 628.799804688 82.7998046875 649.599609375 c 2
 133.400390625 771.799804688 l 2
 142 792.599609375 166 802.599609375 186.799804688 793.799804688 c 0
450 793.799804688 m 0
 471 785.200195312 480.799804688 761.400390625 472 740.400390625 c 2
 421.400390625 618.200195312 l 2
 412.799804688 597.400390625 388.799804688 587.599609375 368 596.200195312 c 0
 347.200195312 604.799804688 337.400390625 628.799804688 346 649.599609375 c 2
 396.599609375 771.799804688 l 2
 405.200195312 792.599609375 429.200195312 802.400390625 450 793.799804688 c 0
713.400390625 793.799804688 m 0
 734.200195312 785.200195312 744.200195312 761.400390625 735.400390625 740.400390625 c 2
 684.799804688 618.200195312 l 2
 676.200195312 597.400390625 652.200195312 587.599609375 631.400390625 596.200195312 c 0
 610.599609375 604.799804688 600.799804688 628.799804688 609.400390625 649.599609375 c 2
 660 771.799804688 l 2
 668.599609375 792.599609375 692.599609375 802.400390625 713.400390625 793.799804688 c 0
976.799804688 793.799804688 m 0
 997.599609375 785.200195312 1007.59960938 761.400390625 998.799804688 740.400390625 c 2
 948.200195312 618.200195312 l 2
 939.599609375 597.400390625 915.599609375 587.599609375 894.799804688 596.200195312 c 0
 874 604.799804688 864.200195312 628.799804688 872.799804688 649.599609375 c 2
 923.400390625 771.799804688 l 2
 932 792.599609375 956 802.400390625 976.799804688 793.799804688 c 0
286.200195312 383 m 0
 307 374.400390625 316.799804688 350.400390625 308.200195312 329.599609375 c 2
 257.599609375 207.400390625 l 2
 249 186.599609375 225 176.799804688 204.200195312 185.400390625 c 0
 183.400390625 194 173.599609375 218 182.200195312 238.799804688 c 2
 232.799804688 361 l 2
 241.400390625 381.799804688 265.400390625 391.599609375 286.200195312 383 c 0
549.400390625 383 m 0
 570.400390625 374.400390625 580.200195312 350.400390625 571.400390625 329.599609375 c 2
 520.799804688 207.400390625 l 2
 512.200195312 186.599609375 488.200195312 176.799804688 467.400390625 185.400390625 c 0
 446.599609375 194 436.799804688 218 445.400390625 238.799804688 c 2
 496 361 l 2
 504.599609375 381.799804688 528.599609375 391.599609375 549.400390625 383 c 0
812.799804688 383 m 0
 833.599609375 374.400390625 843.599609375 350.400390625 834.799804688 329.599609375 c 2
 784.200195312 207.400390625 l 2
 775.599609375 186.599609375 751.599609375 176.799804688 730.799804688 185.400390625 c 0
 710 194 700.200195312 218 708.799804688 238.799804688 c 2
 759.400390625 361 l 2
 768 381.799804688 792 391.599609375 812.799804688 383 c 0
129.200195312 17.7998046875 m 0
 150 9.2001953125 159.799804688 -14.7998046875 151.200195312 -35.599609375 c 2
 100.599609375 -157.799804688 l 2
 92 -178.599609375 68 -188.400390625 47.2001953125 -179.799804688 c 0
 26.400390625 -171.200195312 16.599609375 -147.200195312 25.2001953125 -126.400390625 c 2
 75.7998046875 -4.2001953125 l 2
 84.400390625 16.599609375 108.400390625 26.400390625 129.200195312 17.7998046875 c 0
392.400390625 17.7998046875 m 0
 413.400390625 9.2001953125 423.200195312 -14.7998046875 414.400390625 -35.599609375 c 2
 363.799804688 -157.799804688 l 2
 355.200195312 -178.599609375 331.200195312 -188.400390625 310.400390625 -179.799804688 c 0
 289.599609375 -171.200195312 279.799804688 -147.200195312 288.400390625 -126.400390625 c 2
 339 -4.2001953125 l 2
 347.599609375 16.599609375 371.599609375 26.400390625 392.400390625 17.7998046875 c 0
655.799804688 17.7998046875 m 0
 676.599609375 9.2001953125 686.599609375 -14.7998046875 677.799804688 -35.599609375 c 2
 627.200195312 -157.799804688 l 2
 618.599609375 -178.599609375 594.599609375 -188.400390625 573.799804688 -179.799804688 c 0
 553 -171.200195312 543.200195312 -147.200195312 551.799804688 -126.400390625 c 2
 602.400390625 -4.2001953125 l 2
 611 16.599609375 635 26.400390625 655.799804688 17.7998046875 c 0
919.200195312 17.7998046875 m 0
 940 9.2001953125 950 -14.7998046875 941.200195312 -35.599609375 c 2
 890.599609375 -157.799804688 l 2
 882 -178.599609375 858 -188.400390625 837.200195312 -179.799804688 c 0
 816.400390625 -171.200195312 806.599609375 -147.200195312 815.200195312 -126.400390625 c 2
 865.799804688 -4.2001953125 l 2
 874.400390625 16.599609375 898.400390625 26.400390625 919.200195312 17.7998046875 c 0
EndSplineSet
Validated: 524321
EndChar

StartChar: m
Encoding: 109 109 47
Width: 1024
VWidth: 0
Flags: HW
LayerCount: 2
Fore
SplineSet
996.509765625 409.661132812 m 2
 1011.69140625 409.661132812 1024 397.352539062 1024 382.170898438 c 0
 1024 366.990234375 1011.69140625 354.681640625 996.509765625 354.681640625 c 2
 969.8828125 354.681640625 l 1
 972.274414062 306.759765625 959.6015625 251.120117188 935.26953125 210.98828125 c 0
 874.935546875 111.477539062 745.502929688 68.7412109375 614.26953125 203.682617188 c 0
 572.508789062 246.615234375 552.228515625 283.09765625 542.352539062 319.2265625 c 0
 542.3046875 319.415039062 540.61328125 327.641601562 539.52734375 330.727539062 c 0
 535.524414062 342.056640625 524.82421875 351.248046875 512.28515625 351.248046875 c 2
 511.71484375 351.248046875 l 2
 498.86328125 351.248046875 487.946289062 341.767578125 484.1875 330.015625 c 0
 483.280273438 327.184570312 481.568359375 318.7109375 481.568359375 318.7109375 c 2
 471.665039062 282.671875 451.387695312 246.844726562 409.73046875 204.01953125 c 0
 278.497070312 69.0712890625 149.064453125 111.336914062 88.73046875 210.853515625 c 0
 64.498046875 250.814453125 50.0693359375 304.635742188 53.5400390625 354.681640625 c 1
 27.490234375 354.681640625 l 2
 12.30859375 354.681640625 -0 366.990234375 -0 382.170898438 c 0
 -0 397.352539062 12.30859375 409.661132812 27.490234375 409.661132812 c 2
 66.2470703125 409.661132812 l 1
 82.73046875 449.184570312 115.763671875 479.15234375 169.145507812 487.680664062 c 0
 209.693359375 494.165039062 316.133789062 495.567382812 316.133789062 495.567382812 c 1
 707.866210938 495.567382812 l 1
 707.866210938 495.567382812 814.306640625 494.165039062 854.857421875 487.680664062 c 0
 908.240234375 479.15234375 941.272460938 449.184570312 957.755859375 409.661132812 c 1
 996.509765625 409.661132812 l 2
539.90234375 401.345703125 m 1
 543.482421875 415.962890625 549.4375 426.842773438 557.602539062 440.586914062 c 1
 466.401367188 440.586914062 l 1
 474.5625 426.842773438 480.517578125 415.962890625 484.09765625 401.345703125 c 1
 492.75 404.373046875 502.041992188 406.224609375 511.71484375 406.224609375 c 2
 512.28515625 406.224609375 l 2
 521.958007812 406.224609375 531.25 404.373046875 539.90234375 401.345703125 c 1
EndSplineSet
EndChar

StartChar: r
Encoding: 114 114 48
Width: 1024
VWidth: 0
Flags: HW
LayerCount: 2
Fore
SplineSet
716.099609375 418.5 m 0
 596.799804688 498.700195312 470.299804688 514.799804688 339.700195312 450.599609375 c 0
 209.299804688 386.599609375 143.599609375 277.099609375 133.900390625 133.799804688 c 0
 133.5 128.099609375 128.700195312 123.5 123 123.5 c 2
 72.7998046875 123.5 l 2
 67.099609375 123.5 62.400390625 128.099609375 62.5 133.799804688 c 0
 63.400390625 191.900390625 75.7998046875 247.5 99.7001953125 300.599609375 c 0
 140.599609375 391.599609375 205 461.299804688 292.700195312 508.700195312 c 0
 458.799804688 598.599609375 652 564.599609375 770.200195312 466.5 c 0
 774.599609375 462.900390625 774.599609375 456.799804688 770.299804688 453 c 0
 757.5 441.700195312 744.799804688 430.5 732.299804688 419.5 c 0
 728.099609375 415.700195312 720.799804688 415.299804688 716.099609375 418.5 c 0
843.700195312 394 m 0
 903.400390625 317.200195312 934.599609375 231 937.400390625 133.799804688 c 0
 937.599609375 128.099609375 933 123.5 927.299804688 123.5 c 2
 875.900390625 123.5 l 2
 870.200195312 123.5 865.5 128.099609375 865.299804688 133.799804688 c 0
 863.900390625 170.299804688 857.900390625 206.099609375 845.900390625 240.900390625 c 0
 833.799804688 275.799804688 816.900390625 308.200195312 794.799804688 338.599609375 c 0
 791.5 343.200195312 791.700195312 350.299804688 795.5 354.599609375 c 0
 807.200195312 367.799804688 818.599609375 380.799804688 830.5 394.299804688 c 0
 834.299804688 398.599609375 840.200195312 398.5 843.700195312 394 c 0
793.299804688 417.799804688 m 2
 794.900390625 416.200195312 l 1
 775.599609375 394.299804688 756.299804688 372.5 737 350.700195312 c 0
 674.299804688 279.799804688 611.5 208.900390625 549.099609375 137.700195312 c 0
 546.099609375 134.299804688 545.799804688 127.799804688 545.700195312 122.700195312 c 0
 545.400390625 101.099609375 530.799804688 82.099609375 510.5 77.7998046875 c 0
 488.200195312 73.099609375 465.900390625 84.2998046875 457.099609375 104.700195312 c 0
 443.900390625 135.200195312 466.400390625 169.099609375 499.900390625 168.5 c 0
 507.799804688 168.400390625 513.200195312 170.5 519 175.700195312 c 0
 608.5 255.200195312 698.200195312 334.400390625 787.900390625 413.700195312 c 0
 789.599609375 415.200195312 791.5 416.400390625 793.299804688 417.799804688 c 2
EndSplineSet
Validated: 524321
EndChar

StartChar: U
Encoding: 85 85 49
Width: 1024
VWidth: 0
Flags: HW
LayerCount: 2
Fore
SplineSet
758.599609375 526.5 m 2
 769.200195312 515.799804688 769.200195312 498.5 758.599609375 487.799804688 c 2
 609.099609375 338.400390625 l 2
 598.400390625 327.700195312 598.400390625 310.400390625 609.099609375 299.700195312 c 2
 758.599609375 150.099609375 l 2
 769.299804688 139.400390625 769.299804688 122.099609375 758.599609375 111.400390625 c 2
 547.900390625 -99.2998046875 l 2
 537.200195312 -109.900390625 518.799804688 -118.599609375 506.700195312 -118.599609375 c 0
 494.599609375 -118.599609375 484.799804688 -106.400390625 484.799804688 -91.2998046875 c 2
 484.799804688 186.5 l 2
 484.799804688 201.700195312 476.200195312 205.299804688 465.5 194.599609375 c 2
 302.900390625 32 l 2
 292.200195312 21.2998046875 274.900390625 21.2998046875 264.200195312 32 c 2
 241.599609375 54.599609375 l 2
 230.900390625 65.2998046875 230.900390625 82.599609375 241.599609375 93.2998046875 c 2
 448 299.599609375 l 2
 458.700195312 310.299804688 458.700195312 327.599609375 448 338.299804688 c 2
 241.700195312 544.599609375 l 2
 231 555.299804688 231 572.599609375 241.599609375 583.400390625 c 2
 264.299804688 606.299804688 l 2
 275 617.099609375 292.200195312 617.099609375 302.900390625 606.400390625 c 2
 465.5 443.900390625 l 2
 476.099609375 433.200195312 484.799804688 436.799804688 484.799804688 451.900390625 c 2
 484.799804688 729.200195312 l 2
 484.799804688 744.299804688 494.599609375 756.5 506.700195312 756.5 c 0
 518.799804688 756.5 537.200195312 747.900390625 547.900390625 737.200195312 c 2
 758.599609375 526.5 l 2
591.599609375 570.900390625 m 2
 580.900390625 581.599609375 572.299804688 578 572.200195312 563 c 2
 572.200195312 451.799804688 l 2
 572.200195312 436.799804688 580.900390625 433.099609375 591.599609375 443.799804688 c 2
 636 487.799804688 l 2
 646.799804688 498.400390625 646.799804688 515.700195312 636.099609375 526.400390625 c 2
 591.599609375 570.900390625 l 2
636.099609375 111.5 m 2
 646.700195312 122.200195312 646.700195312 139.5 636.099609375 150.200195312 c 2
 591.599609375 194.700195312 l 2
 581 205.400390625 572.299804688 201.799804688 572.299804688 186.700195312 c 2
 572.299804688 75.099609375 l 2
 572.299804688 59.900390625 580.900390625 56.2998046875 591.599609375 67 c 2
 636.099609375 111.5 l 2
EndSplineSet
EndChar

StartChar: n
Encoding: 110 110 50
Width: 1024
VWidth: 0
Flags: H
LayerCount: 2
Fore
SplineSet
815.728515625 801.64453125 m 1
 815.728515625 784.288085938 l 1
 1006.64453125 784.288085938 l 1
 1006.64453125 801.64453125 l 1
 1006.64453125 819 l 1
 815.728515625 819 l 1
 815.728515625 801.64453125 l 1
890.185546875 662.796875 m 2
 1024 662.796875 l 1
 1024 -205 l 1
 0 -205 l 1
 0 -71.16796875 l 2
 0 -49.265625 17.82421875 -31.4404296875 39.7451171875 -31.4404296875 c 2
 121.491210938 -31.4404296875 l 1
 121.491210938 208.366210938 l 1
 88.7236328125 181.4296875 l 2
 85.4951171875 178.756835938 81.58984375 177.47265625 77.7021484375 177.47265625 c 0
 72.6865234375 177.47265625 67.72265625 179.625 64.2861328125 183.807617188 c 0
 58.1943359375 191.201171875 59.2705078125 202.135742188 66.6640625 208.227539062 c 2
 804.725585938 815.060546875 l 2
 805.349609375 815.581054688 806.11328125 815.754882812 806.790039062 816.170898438 c 0
 807.796875 816.795898438 808.76953125 817.420898438 809.915039062 817.836914062 c 0
 811.112304688 818.271484375 812.327148438 818.41015625 813.577148438 818.56640625 c 0
 814.305664062 818.653320312 814.96484375 819 815.728515625 819 c 0
 816.006835938 819 816.232421875 818.861328125 816.458007812 818.861328125 c 0
 817.759765625 818.791992188 818.974609375 818.444335938 820.223632812 818.09765625 c 0
 821.196289062 817.836914062 822.150390625 817.680664062 823.036132812 817.264648438 c 0
 824.0078125 816.813476562 824.805664062 816.119140625 825.69140625 815.4765625 c 0
 826.680664062 814.748046875 827.669921875 814.087890625 828.485351562 813.185546875 c 0
 828.676757812 812.977539062 828.954101562 812.890625 829.127929688 812.665039062 c 0
 829.630859375 812.057617188 829.8046875 811.311523438 830.204101562 810.651367188 c 0
 830.845703125 809.610351562 831.48828125 808.62109375 831.904296875 807.44140625 c 0
 832.321289062 806.278320312 832.459960938 805.1328125 832.616210938 803.934570312 c 0
 832.737304688 803.154296875 833.084960938 802.459960938 833.084960938 801.64453125 c 2
 833.084960938 523.94921875 l 1
 845.407226562 523.94921875 l 2
 848.184570312 523.94921875 850.440429688 526.205078125 850.440429688 528.96484375 c 2
 850.440429688 623.069335938 l 2
 850.440429688 644.971679688 868.265625 662.796875 890.185546875 662.796875 c 2
716.625976562 523.94921875 m 2
 798.373046875 523.94921875 l 1
 798.373046875 764.901367188 l 1
 659.525390625 650.734375 l 1
 659.525390625 385.1015625 l 1
 676.881835938 385.1015625 l 1
 676.881835938 484.221679688 l 2
 676.881835938 506.125 694.706054688 523.94921875 716.625976562 523.94921875 c 2
560.422851562 385.1015625 m 2
 624.813476562 385.1015625 l 1
 624.813476562 622.201171875 l 1
 503.322265625 522.30078125 l 1
 503.322265625 246.25390625 l 1
 515.64453125 246.25390625 l 2
 518.421875 246.25390625 520.677734375 248.510742188 520.677734375 251.270507812 c 2
 520.677734375 345.374023438 l 2
 520.677734375 367.27734375 538.502929688 385.1015625 560.422851562 385.1015625 c 2
386.86328125 246.25390625 m 2
 468.610351562 246.25390625 l 1
 468.610351562 493.767578125 l 1
 329.762695312 379.599609375 l 1
 329.762695312 107.407226562 l 1
 342.084960938 107.407226562 l 2
 344.862304688 107.407226562 347.118164062 109.663085938 347.118164062 112.422851562 c 2
 347.118164062 206.526367188 l 2
 347.118164062 228.4296875 364.943359375 246.25390625 386.86328125 246.25390625 c 2
156.203125 236.899414062 m 1
 156.203125 -31.4404296875 l 1
 168.526367188 -31.4404296875 l 2
 171.302734375 -31.4404296875 173.559570312 -29.1845703125 173.559570312 -26.4248046875 c 2
 173.559570312 67.6787109375 l 2
 173.559570312 89.58203125 191.383789062 107.407226562 213.3046875 107.407226562 c 2
 295.05078125 107.407226562 l 1
 295.05078125 351.06640625 l 1
 156.203125 236.899414062 l 1
EndSplineSet
EndChar

StartChar: o
Encoding: 111 111 51
Width: 1024
VWidth: 0
Flags: HW
LayerCount: 2
Fore
SplineSet
1010.83789062 13.333984375 m 2
 1041.67480469 -40.0810546875 1016.44628906 -83.6845703125 954.76953125 -83.6845703125 c 2
 445.102539062 -83.6845703125 l 1
 210.735351562 -83.6845703125 l 1
 69.23046875 -83.6845703125 l 2
 7.5537109375 -83.6845703125 -17.6748046875 -40.0810546875 13.162109375 13.3310546875 c 2
 201.102539062 338.749023438 l 2
 229.01953125 387.100585938 273.017578125 391.67578125 303.978515625 352.485351562 c 2
 433.294921875 130.313476562 l 2
 439.775390625 119.177734375 451.471679688 112.96484375 463.494140625 112.96484375 c 0
 469.455078125 112.96484375 475.495117188 114.495117188 481.01953125 117.709960938 c 0
 497.6796875 127.407226562 503.325195312 148.774414062 493.626953125 165.434570312 c 2
 367.573242188 382.005859375 l 1
 526.6875 657.610351562 l 2
 557.5234375 711.026367188 607.991210938 711.049804688 638.828125 657.634765625 c 2
 1010.83789062 13.333984375 l 2
333.609375 110.276367188 m 2
 350.05859375 110.276367188 356.788085938 122.112304688 348.565429688 136.361328125 c 2
 272.124023438 268.947265625 l 2
 263.901367188 283.193359375 250.4453125 283.137695312 242.22265625 268.895507812 c 2
 165.774414062 136.381835938 l 2
 157.551757812 122.135742188 164.278320312 110.276367188 180.7265625 110.276367188 c 2
 333.609375 110.276367188 l 2
690.469726562 380.436523438 m 2
 706.918945312 380.436523438 713.64453125 391.811523438 705.42578125 406.056640625 c 2
 597.71484375 592.322265625 l 2
 589.489257812 606.564453125 576.033203125 606.640625 567.806640625 592.3984375 c 2
 460.103515625 406.015625 l 2
 451.876953125 391.766601562 458.603515625 380.436523438 475.051757812 380.436523438 c 2
 690.469726562 380.436523438 l 2
294.360351562 505.8359375 m 0
 283.990234375 498.04296875 271.140625 493.3671875 257.171875 493.3671875 c 0
 250.286132812 493.3671875 243.6875 494.534179688 237.498046875 496.60546875 c 0
 212.87890625 504.838867188 195.104492188 528.041015625 195.104492188 555.420898438 c 0
 195.104492188 589.696289062 222.899414062 617.48828125 257.171875 617.48828125 c 0
 291.440429688 617.48828125 319.21875 589.696289062 319.21875 555.420898438 c 0
 319.21875 535.127929688 309.430664062 517.162109375 294.360351562 505.8359375 c 0
EndSplineSet
EndChar
